<svg width="219" height="197" viewBox="0 0 219 197" fill="none" xmlns="http://www.w3.org/2000/svg">
<path d="M111.6 64.3001H139.5C143.8 64.3001 147.3 60.8001 147.3 56.5001V28.9001C147.3 24.6001 143.8 21.1001 139.5 21.1001H111.6C107.3 21.1001 103.8 24.6001 103.8 28.9001V56.5001C103.8 60.8001 107.2 64.3001 111.6 64.3001Z" fill="#004CBB"/>
<path d="M111.6 64.3001H139.5C143.8 64.3001 147.3 60.8001 147.3 56.5001V28.9001C147.3 24.6001 143.8 21.1001 139.5 21.1001H111.6C107.3 21.1001 103.8 24.6001 103.8 28.9001V56.5001C103.8 60.8001 107.2 64.3001 111.6 64.3001Z" fill="#8FCAE7"/>
<path d="M140.1 21.1001C139.3 22.4001 138.8 23.9001 138.8 25.5001C138.8 30.0001 142.4 33.6001 146.9 33.6001C147 33.6001 147.1 33.6001 147.3 33.6001V28.8001C147.2 24.7001 144.1 21.4001 140.1 21.1001Z" fill="#828282"/>
<path d="M133.4 62.2001V70.8001C133.4 71.8001 132.3 72.2001 131.6 71.6001L122.2 62.2001H133.4V62.2001Z" fill="#8FCAE7"/>
<path d="M124.2 56.5001C124 56.5001 123.9 56.4001 123.8 56.2001L123.4 53.7001C123.4 53.5001 123.2 53.3001 123 53.2001C122.1 53.0001 121.3 52.6001 120.5 52.2001C120.4 52.1001 120.3 52.1001 120.2 52.1001C120.1 52.1001 120 52.1001 119.9 52.2001L117.7 53.7001H117.5C117.4 53.7001 117.3 53.7001 117.2 53.6001L115.4 51.8001C115.3 51.7001 115.3 51.5001 115.3 51.3001L116.8 49.2001C116.9 49.0001 116.9 48.8001 116.8 48.5001C116.3 47.7001 115.9 46.8001 115.7 45.9001C115.6 45.7001 115.5 45.5001 115.2 45.5001L112.6 45.1001C112.4 45.1001 112.3 44.9001 112.3 44.7001V42.2001C112.3 42.0001 112.4 41.9001 112.6 41.8001L115.1 41.4001C115.3 41.4001 115.5 41.2001 115.6 41.0001C115.8 40.1001 116.2 39.2001 116.7 38.4001C116.8 38.2001 116.8 38.0001 116.7 37.8001L115.2 35.7001C115.1 35.5001 115.1 35.3001 115.2 35.2001L117 33.4001C117.1 33.3001 117.2 33.3001 117.3 33.3001H117.4L117.5 33.4001L119.6 34.9001C119.7 35.0001 119.8 35.0001 119.9 35.0001C120 35.0001 120.1 35.0001 120.2 34.9001C121 34.4001 121.9 34.0001 122.8 33.8001C123 33.7001 123.2 33.6001 123.2 33.3001L123.6 30.7001C123.6 30.5001 123.8 30.4001 124 30.4001H126.5C126.7 30.4001 126.8 30.5001 126.9 30.7001L127.3 33.2001C127.3 33.4001 127.5 33.6001 127.7 33.7001C128.6 33.9001 129.5 34.3001 130.3 34.8001C130.4 34.9001 130.5 34.9001 130.6 34.9001C130.7 34.9001 130.8 34.9001 130.9 34.8001L133 33.3001H133.2C133.3 33.3001 133.4 33.3001 133.5 33.4001L135.3 35.2001C135.4 35.3001 135.4 35.5001 135.4 35.7001L133.9 37.8001C133.8 38.0001 133.8 38.2001 133.9 38.4001C134.4 39.2001 134.7 40.1001 135 41.0001C135.1 41.2001 135.2 41.4001 135.5 41.4001L138 41.8001C138.2 41.8001 138.3 42.0001 138.3 42.2001V45.0001H138.2C138.1 45.1001 138.1 45.1001 138 45.2001L135.5 45.6001C135.3 45.6001 135.1 45.8001 135 46.0001C134.8 46.9001 134.4 47.8001 133.9 48.6001C133.8 48.8001 133.8 49.1001 133.9 49.2001L135.4 51.3001C135.5 51.5001 135.5 51.7001 135.4 51.8001L133.6 53.6001C133.6 53.7001 133.5 53.7001 133.3 53.7001H133.2L133 53.6001L130.9 52.1001C130.8 52.0001 130.7 52.0001 130.6 52.0001C130.5 52.0001 130.4 52.0001 130.3 52.1001C129.5 52.6001 128.6 52.9001 127.7 53.2001C127.5 53.3001 127.3 53.4001 127.3 53.7001L126.9 56.2001C126.9 56.4001 126.7 56.5001 126.5 56.5001H124.2ZM125.5 39.1001C123.1 39.1001 121.1 41.1001 121.1 43.5001C121.1 45.9001 123.1 47.9001 125.5 47.9001C127.9 47.9001 129.9 45.9001 129.9 43.5001C129.9 41.0001 127.9 39.1001 125.5 39.1001Z" fill="#050505"/>
<path d="M145.4 30.1001C149.873 30.1001 153.5 26.4737 153.5 22.0001C153.5 17.5266 149.873 13.9001 145.4 13.9001C140.926 13.9001 137.3 17.5266 137.3 22.0001C137.3 26.4737 140.926 30.1001 145.4 30.1001Z" fill="#FF7254"/>
<path d="M144.6 26.3001V20.3001L143.1 21.8001L141.8 20.4001L144.9 17.3001H146.9V26.2001H144.6V26.3001Z" fill="white"/>
<path d="M125.5 196.7C177.1 196.7 219 195.8 219 194.7C219 193.6 177.1 192.7 125.5 192.7C73.9 192.7 32 193.6 32 194.7C32 195.8 73.9 196.7 125.5 196.7Z" fill="black"/>
<path d="M72.4002 117.7H39.3002C36.3002 117.7 33.7002 120.2 33.7002 123.3V171.7C33.7002 174.7 36.2002 177.3 39.3002 177.3H72.3002C75.3002 177.3 77.9002 174.8 77.9002 171.7V123.3C77.8002 120.2 75.4002 117.7 72.4002 117.7Z" fill="#4B4B4B"/>
<path d="M85.3999 117.7H53.9999C50.9999 117.7 48.3999 120.2 48.3999 123.3V171.7C48.3999 174.7 50.8999 177.3 53.9999 177.3H85.3999C88.3999 177.3 90.9999 174.8 90.9999 171.7V123.3C90.8999 120.2 88.3999 117.7 85.3999 117.7Z" fill="#383838"/>
<path d="M153.9 176.4L155 182.2L157.2 193.5C157.3 194.3 158 194.8 158.8 194.8H161.1C162 194.8 162.8 194 162.8 193.1V176.4H153.9V176.4Z" fill="#4B4B4B"/>
<path d="M162.8 176.4H153.9L154.9 181.3L162.8 181.4V176.4Z" fill="#383838"/>
<path d="M193.7 176.4H202.6V193.1C202.6 194 201.8 194.8 200.9 194.8H198.6C197.8 194.8 197.2 194.2 197 193.5L193.7 176.4Z" fill="#383838"/>
<path d="M95.6002 176.4H86.7002V193.1C86.7002 194 87.5002 194.8 88.4002 194.8H90.7002C91.5002 194.8 92.1002 194.2 92.3002 193.5L95.6002 176.4Z" fill="#383838"/>
<path d="M46.8999 176.4V193.1C46.8999 194 47.6999 194.8 48.5999 194.8H50.8999C51.6999 194.8 52.2999 194.2 52.4999 193.5L54.6999 182.2L55.7999 176.4H46.8999V176.4Z" fill="#4B4B4B"/>
<path d="M55.0999 180L55.7999 176.4H46.8999V179.9L55.0999 180Z" fill="#383838"/>
<path d="M201.5 148.5L211.4 105.4C213 98.0001 206.5 90.0001 199.7 90.0001H110.3C103.5 90.0001 96.7 95.5001 95.1 102.3L84.5 148.4H201.4V148.5H201.5Z" fill="#4B4B4B"/>
<path d="M190.8 90.0001H98.5002C91.7002 90.0001 84.9002 95.5001 83.3002 102.3L72.7002 148.4H189.6L200.2 102.3C201.8 95.4001 197.6 90.0001 190.8 90.0001Z" fill="#4B4B4B"/>
<path d="M91.8998 144.5H67.3998C65.4998 144.5 63.8998 143.2 63.4998 141.4L59.7998 125.6C59.1998 123.1 60.6998 121.3 63.0998 121.3H85.7998C88.2998 121.3 90.5998 123.2 91.0998 125.6L94.6998 140.9C95.1998 142.7 93.7998 144.5 91.8998 144.5Z" fill="#757575"/>
<path d="M170.8 144.6H45.1001V177.2H170.8V144.6Z" fill="#4B4B4B"/>
<path d="M159.8 88.6001C154.6 90.4001 146.6 107.8 146.6 107.8L137.6 94.7001L131.6 96.9001C131.6 96.9001 134.2 107.9 141.4 115.9C143.1 117.7 146.7 118.4 149.4 117.3C154.1 115.4 155.9 109.2 155.9 109.2L159.8 95.0001V88.6001V88.6001Z" fill="#38BFDB"/>
<path fill-rule="evenodd" clip-rule="evenodd" d="M170.2 60.1001C170.2 60.1001 185.6 59.1001 183.5 84.8001H157.5C157.4 84.8001 156.1 59.2001 170.2 60.1001Z" fill="#383838"/>
<path fill-rule="evenodd" clip-rule="evenodd" d="M174.5 86.9001L166.1 87.1001L167.4 75.3001L174.1 73.4001L174.5 86.9001Z" fill="#FF7254"/>
<path d="M166.5 83.5001C168.2 82.4001 172 79.7001 172.1 79.7001L166.9 79.9001L166.5 83.5001Z" fill="#F15A37"/>
<path fill-rule="evenodd" clip-rule="evenodd" d="M160.2 75.5001C160.7 78.7001 162.3 80.9001 166.2 81.1001H166.3C166.5 81.1001 168.3 81.1001 168.9 81.0001C170.9 80.6001 172.9 80.0001 174.4 78.4001C174.8 78.0001 175.1 76.9001 175.5 76.4001C175.6 76.3001 175.7 76.1001 175.8 75.9001C175.9 75.7001 176.1 75.4001 176.2 75.2001C176.3 75.1001 176.4 74.9001 176.4 74.7001C177 73.4001 177.4 72.1001 177.4 70.7001C177.5 67.8001 177 65.6001 176 64.0001C175.4 62.9001 174.6 62.2001 173.6 61.7001C173 61.4001 172.5 61.2001 171.8 61.0001C171.5 60.9001 171.2 60.9001 170.9 60.8001C170.6 60.8001 170.3 60.7001 170 60.7001C170 60.7001 170 60.7001 169.9 60.7001H169.8C169.5 60.7001 169.1 60.7001 168.9 60.7001C168.6 60.7001 168.1 60.7001 167.8 60.8001C167.6 60.8001 167.2 60.8001 167 61.0001H166.9C166.8 61.0001 166.8 61.0001 166.7 61.0001C166.5 61.1001 166.3 61.1001 166 61.3001H165.9C165.7 61.4001 165.5 61.4001 165.2 61.6001C165.1 61.7001 164.9 61.7001 164.7 61.9001C164.5 62.0001 164.4 62.1001 164.2 62.3001C164.1 62.4001 163.9 62.5001 163.8 62.7001C163.4 63.1001 162.9 63.4001 162.6 63.9001C162.5 64.0001 162.4 64.1001 162.3 64.3001C162.2 64.4001 162.2 64.4001 162.1 64.5001C160.5 66.7001 159.8 69.8001 159.9 72.8001C159.9 72.9001 159.9 73.0001 159.9 73.2001C160 73.8001 160.2 74.7001 160.2 75.5001Z" fill="#FF7254"/>
<path fill-rule="evenodd" clip-rule="evenodd" d="M159.7 71.4001C161.2 66.9001 161.7 68.7001 163.4 65.1001L163 63.8001L162 64.1001L161.1 65.4001L160 68.1001L159.7 71.4001Z" fill="#383838"/>
<path fill-rule="evenodd" clip-rule="evenodd" d="M169.1 60.5001C169.4 60.9001 168.3 62.9001 168.5 65.0001C168.8 69.0001 174 72.1001 174.2 78.5001C176 77.4001 177.9 72.6001 177.9 71.4001C178.1 68.5001 177.8 65.9001 176.9 64.3001C176.3 63.2001 175.5 62.2001 174.4 61.6001C173.8 61.3001 173 60.9001 172.3 60.8001C172 60.7001 171.4 60.6001 171.1 60.6001C170.9 60.5001 169.4 60.6001 169.1 60.5001Z" fill="#383838"/>
<path d="M172.6 74.1001C173.7 74.1001 174.6 73.2001 174.6 72.1001C174.6 71.0001 173.7 70.1001 172.6 70.1001C171.5 70.1001 170.6 71.0001 170.6 72.1001C170.6 73.2001 171.5 74.1001 172.6 74.1001Z" fill="#FF7254"/>
<path fill-rule="evenodd" clip-rule="evenodd" d="M169.1 60.7001C168.8 60.7001 168.3 60.7001 168 60.7001C167.7 60.7001 167.3 60.8001 167.1 60.8001C167 60.8001 167 60.8001 166.9 60.8001C166.7 60.8001 166.5 60.9001 166.2 61.0001H166.1C164.5 61.6001 163 63.0001 161.9 64.4001C163.9 67.7001 174 69.6001 174 69.7001L174.2 61.9001C172.8 60.9001 170.9 60.8001 170.2 60.7001H170.1C169.8 60.9001 169.4 60.9001 169.1 60.7001Z" fill="#383838"/>
<path d="M167.4 75.5001C167.4 75.5001 166.9 76.6001 165.7 76.9001C164.7 77.2001 163.6 76.4001 163.6 76.4001" stroke="black" stroke-width="0.5571" stroke-miterlimit="10" stroke-linecap="round"/>
<path d="M181.9 88.9001C180.7 88.3001 178.4 87.6001 176.4 87.3001C175.5 87.2001 174.8 86.4001 174.8 85.4001V84.9001H165.5L165.4 85.7001C165.3 86.6001 164.6 87.2001 163.8 87.3001C159 88.1001 154.1 92.8001 153.8 96.3001C153.5 99.3001 155.1 102.2 155.1 102.2L146.4 133.6H180.3L179.4 120.6C180.8 114.8 183.8 106 184.5 100.7C184.6 100.1 186.9 100 186.9 99.5001C187.4 95.2001 185.5 91.0001 181.9 88.9001Z" fill="#79D4E7"/>
<path d="M179.2 120.5C180.6 114.8 183.5 106.1 184.3 100.8C182.3 101.7 180.5 102.9 179.1 104.5C178 105.8 177.1 107.2 175.8 108.4C174.7 109.5 173.3 110.3 171.8 110.7C172 114.3 171.8 117.9 171.5 121.5C171.2 124.4 171.1 127.3 170.6 130.2C172.7 129.9 174.7 129.6 176.7 129.1C177.7 128.9 178.7 128.6 179.7 128.2L179.2 120.5Z" fill="#38BFDB"/>
<path fill-rule="evenodd" clip-rule="evenodd" d="M157.1 94.7001L153.5 89.0001C152.2 87.0001 149.6 86.4001 147.5 87.6001L143.7 89.8001C143.3 90.0001 143.2 90.5001 143.3 90.9001C143.5 91.4001 144 91.6001 144.5 91.4001L148 90.1001L147.7 91.5001C147.6 92.2001 147.6 92.9001 147.9 93.6001C148.5 95.4001 150.4 96.4001 152.2 96.0001L153.7 97.8001L157.1 94.7001Z" fill="#FF7254"/>
<path d="M186.8 99.5001C186.6 102.8 180.7 111.8 176 116.4C174.5 117.9 171.9 118.9 168.1 116.4C162.4 112.7 157 104 154.1 100.1C153.1 98.8001 153.1 97.1001 154.1 95.8001C155.4 94.0001 158 93.8001 159.6 95.3001L170.7 107.7L179.3 91.7001L186.8 99.5001Z" fill="#79D4E7"/>
<path d="M170.6 108.2C170.5 108.2 170.4 108.1 170.3 108.1L159.6 95.9001C159.4 95.7001 159.5 95.5001 159.6 95.3001C159.8 95.1001 160 95.2001 160.2 95.3001L170.5 107L176.4 96.1001C176.5 95.9001 176.8 95.8001 177 95.9001C177.2 96.0001 177.3 96.3001 177.2 96.5001L171 108C170.9 108.1 170.8 108.1 170.6 108.2C170.6 108.2 170.6 108.1 170.6 108.2Z" fill="#9EE0EE"/>
<path d="M172.8 118.6C171.5 118.6 169.8 118.2 167.8 116.9C160.2 111.9 152.8 99.8001 152.5 99.3001L153.2 98.9001C153.3 99.0001 160.8 111.3 168.2 116.2C172.4 119 174.9 117.4 175.8 116.6L176.4 117.2C175.9 117.7 174.7 118.6 172.8 118.6Z" fill="#38BFDB"/>
<path d="M115.4 184L114.3 187.3C113.9 188.7 112.6 189.9 111.2 190.4L107.1 191.8C106.5 192 106.1 192.6 106.1 193.1C106.1 193.9 106.8 194.5 107.5 194.5H117.5C118.8 194.5 120 193.6 120.2 192.3L121.8 185.4L115.4 184Z" fill="white"/>
<path d="M119.4 191.1C118.1 191.1 116.9 192.2 116.9 193.6C116.9 194 117 194.4 117.1 194.7H117.4C118.7 194.7 119.9 193.8 120.1 192.5L120.3 191.4C120.2 191.3 119.8 191.1 119.4 191.1Z" fill="#D1F0F7"/>
<path d="M98.2999 154.2L95.0999 157.1C94.2999 157.8 93.2999 158.2 92.1999 158.1L87.0999 158C86.3999 158 85.8999 158.3 85.4999 159C85.1999 159.8 85.5999 160.8 86.4999 161L95.2999 164C96.5999 164.4 98.1999 164.1 99.0999 163L103.4 158.2L98.2999 154.2Z" fill="white"/>
<path d="M99.6 162.5C99.1 161.6 98.3 161.1 97.3 161.2C96 161.3 94.9 162.4 95 163.8L95.4 164C95.9 164.2 96.4 164.2 96.9 164.2H97C97.2 164.2 97.4 164.1 97.6 164.1C97.8 164 98 164 98.1 163.9C98.5 163.7 98.9 163.4 99.1 163.1L99.6 162.5Z" fill="#D1F0F7"/>
<path d="M160.3 144.6H136.7C136.7 144.6 134.7 151.4 131.9 160.5C131.8 160.8 131.7 161.2 131.6 161.6C128.9 170.2 127.3 177.4 124.9 184.4C124.4 185.9 122.9 186.7 121.3 186.4L116.2 185.1C114.8 184.7 113.9 183.3 114.1 181.9C115.6 174.4 117.5 169.4 118.9 160.5C119.7 155 120.7 149.5 121.8 143.6C122.9 139.9 124.5 137.1 126.5 135C128.7 132.8 131.4 131.3 134.4 130.4C139 129.1 144.4 128.7 150.4 128.7H150.5C153.6 128.7 156.9 128.8 160.2 128.8L160.3 144.6Z" fill="#FFB612"/>
<path d="M180.5 128.6C179.9 137.5 173.6 144.5 163.7 144.5H158.4V128.6H180.5Z" fill="#FFB612"/>
<path d="M162.8 124.1L162.7 124C157.8 120.5 153.3 117.5 148.8 116C145.8 115 142.8 114.6 139.7 115.1C136.9 115.7 133.9 117 130.9 119.3C126.4 123.4 121.8 127.6 118 131.5C111.1 138.5 104.5 144.3 97.4 151.6C96.4 152.6 96.5 154.2 97.6 155.1L103.4 159.9C104.2 160.6 105.3 160 105.6 159.7C106.1 159.1 106.3 158.4 106.8 158C107.4 157.5 108.5 157.6 109.2 157C109.9 156.4 109.8 155.6 110.5 155C111.2 154.4 111.6 154.7 112.7 153.8C113.4 153.3 122.5 144.1 128.5 139.6C128.8 139.4 129.1 139.2 129.4 138.9C137 133.1 142.8 129 142.8 129L161.7 142.6L170.8 129.8C168 127.9 165.4 125.9 162.8 124.1Z" fill="#FFB612"/>
<path d="M142.7 129L154.9 140.9C157.2 143.1 159.1 144.6 162.9 144.6H150L142.7 129Z" fill="#FF9C12"/>
<path d="M195.9 117.7H166.2C163.2 117.7 160.6 120.2 160.6 123.3V171.7C160.6 174.7 163.1 177.3 166.2 177.3H195.9C198.9 177.3 201.5 174.8 201.5 171.7V123.3C201.5 120.2 199.1 117.7 195.9 117.7Z" fill="#4B4B4B"/>
<path d="M210.5 117.7H180.8C177.8 117.7 175.2 120.2 175.2 123.3V171.7C175.2 174.7 177.7 177.3 180.8 177.3H210.5C213.5 177.3 216.1 174.8 216.1 171.7V123.3C216.1 120.2 213.7 117.7 210.5 117.7Z" fill="#383838"/>
<path fill-rule="evenodd" clip-rule="evenodd" d="M130.7 89.2001L129.9 84.2001C129.8 83.6001 130.2 83.1001 130.8 82.9001C131.4 82.8001 132.1 83.2001 132.3 83.8001L133.2 86.9001L130.7 89.2001Z" fill="#F15A37"/>
<path d="M143.1 95.2001H137.7C136.6 95.2001 135.4 94.3001 135 93.2001L130.9 80.7001C130.5 79.6001 131.1 78.7001 132.3 78.7001H137.7C138.8 78.7001 140 79.6001 140.4 80.7001L144.5 93.2001C144.9 94.3001 144.2 95.2001 143.1 95.2001Z" fill="white"/>
<path d="M142 95.2001H136.6C135.5 95.2001 134.3 94.3001 133.9 93.2001L129.8 80.7001C129.4 79.6001 130 78.7001 131.2 78.7001H136.6C137.7 78.7001 138.9 79.6001 139.3 80.7001L143.4 93.2001C143.7 94.3001 143.1 95.2001 142 95.2001Z" fill="#B3B3B3"/>
<path fill-rule="evenodd" clip-rule="evenodd" d="M132 97.2001L130.6 92.6001C129.8 89.7001 130.7 88.0001 132 87.2001L136 84.8001C136.6 84.5001 137.3 84.7001 137.7 85.3001C138 85.8001 137.9 86.5001 137.4 86.8001L135.6 88.0001L138.1 86.3001C138.6 86.0001 139.4 86.1001 139.7 86.7001C140.1 87.2001 139.9 87.9001 139.5 88.2001L136.7 90.1001L138.9 88.6001C139.4 88.3001 140.1 88.4001 140.4 88.9001C140.7 89.4001 140.6 90.0001 140.2 90.3001L136.9 92.8001L137.7 95.8001L132 97.2001Z" fill="#FF7254"/>
<path d="M142.8 102.3L137.6 94.8001L131.6 97.0001C131.6 97.0001 132.5 101.3 135.3 106.9C137.8 105.2 140.3 103.7 142.8 102.3Z" fill="#38BFDB"/>
<path d="M171.7 109.9C171.5 109.9 171.4 109.8 171.3 109.6C171.3 109.6 171 108.7 170.3 108C170.1 107.8 170.1 107.6 170.3 107.4C170.5 107.2 170.7 107.2 170.9 107.4C171.7 108.3 172 109.3 172.1 109.3C172.2 109.5 172 109.8 171.8 109.8C171.7 109.9 171.7 109.9 171.7 109.9Z" fill="#9EE0EE"/>
<path d="M172.5 108.5C172.4 108.5 172.4 108.5 172.3 108.5L170.6 107.8C170.4 107.7 170.3 107.5 170.4 107.3C170.5 107.1 170.7 107 170.9 107.1L172.6 107.8C172.8 107.9 172.9 108.1 172.8 108.3C172.8 108.4 172.7 108.5 172.5 108.5Z" fill="#9EE0EE"/>
<path d="M147.3 106.3C146.8 107.3 146.6 107.8 146.6 107.8L147.6 110C147.6 110 147.8 108 147.3 106.3Z" fill="#38A9DB"/>
<path d="M58.5002 0.600098H0.700195V84.3001H58.4002V0.600098H58.5002Z" fill="#383838"/>
<path d="M24.9002 47.2001C25.6002 45.4001 25.9002 43.5001 25.9002 41.4001C25.9002 37.5001 24.6002 33.8001 22.2002 30.9001C20.3002 28.4001 19.4002 25.2001 20.2002 22.2001C20.4002 21.3001 20.5002 20.4001 20.5002 19.4001C20.5002 12.6001 14.6002 7.3001 7.7002 8.0001C5.0002 8.3001 2.5002 9.6001 0.700195 11.6001V84.1001H30.1002C31.7002 81.2001 32.6002 78.0001 32.8002 74.5001C33.1002 67.8001 30.8002 61.7001 26.7002 57.2001C24.4002 54.7001 23.6002 50.7001 24.9002 47.2001Z" fill="#272727"/>
<path d="M58.5002 56.1001H30.2002V28.9001H58.5002V27.8001H30.2002V0.600098H29.0002V27.8001H0.700195V28.9001H29.0002V56.1001H0.700195V57.2001H29.0002V84.3001H30.2002V57.2001H58.5002V56.1001Z" fill="#111111"/>
<path d="M52.2893 50.2681L48.6597 59.3421" stroke="black" stroke-width="0.5" stroke-miterlimit="10" stroke-linecap="round"/>
<path d="M56.8765 50.4651C57.0815 49.8073 55.3568 48.685 53.0244 47.9584C50.692 47.2318 48.6351 47.1761 48.4301 47.834C48.2252 48.4918 49.9499 49.6141 52.2823 50.3407C54.6147 51.0673 56.6716 51.123 56.8765 50.4651Z" fill="#757575"/>
<path d="M56.8258 64.7864C57.2795 66.4878 58.9809 67.5087 60.6823 67.055C62.3836 66.6012 63.4045 64.8999 62.9508 63.1985C62.8373 62.6314 62.4971 62.1777 62.1568 61.8374C62.0434 61.724 61.8165 61.4971 61.7031 61.3837C61.0225 60.8166 60.0017 60.7031 59.0943 60.93C57.9601 61.2703 57.1661 62.0642 56.9392 63.0851C56.8258 63.3119 56.8258 63.5388 56.8258 63.7656C56.7124 64.1059 56.8258 64.4462 56.8258 64.7864Z" fill="#272727"/>
<path d="M35.6156 62.7448C37.0901 63.0851 38.6781 61.4971 39.3586 59.2286C39.5855 58.5481 39.5855 57.8675 39.5855 57.3004C39.5855 55.8259 38.9049 54.5782 37.9975 54.2379C37.6572 54.1245 37.317 54.1245 37.0901 54.2379C35.9559 54.5782 34.8216 55.9393 34.2545 57.7541C33.5739 60.136 34.141 62.4045 35.6156 62.7448Z" fill="#272727"/>
<path d="M57.8468 55.7124L51.9487 67.7355" stroke="black" stroke-width="0.5" stroke-miterlimit="10" stroke-linecap="round"/>
<path d="M57.8467 62.0642C60.603 62.0642 62.8374 59.8298 62.8374 57.0735C62.8374 54.3172 60.603 52.0828 57.8467 52.0828C55.0904 52.0828 52.856 54.3172 52.856 57.0735C52.856 59.8298 55.0904 62.0642 57.8467 62.0642Z" fill="#4B4B4B"/>
<path d="M42.0807 56.8467C44.7118 56.8467 46.8446 54.7138 46.8446 52.0828C46.8446 49.4518 44.7118 47.319 42.0807 47.319C39.4497 47.319 37.3169 49.4518 37.3169 52.0828C37.3169 54.7138 39.4497 56.8467 42.0807 56.8467Z" fill="#4B4B4B"/>
<path d="M47.2983 64.8999V67.7355" stroke="black" stroke-width="0.5" stroke-miterlimit="10" stroke-linecap="round"/>
<path d="M42.7612 56.8467L44.2358 67.7355" stroke="black" stroke-width="0.5" stroke-miterlimit="10" stroke-linecap="round"/>
<path d="M39.1318 59.5689L43.442 62.0642" stroke="black" stroke-width="0.5" stroke-miterlimit="10" stroke-linecap="round"/>
<path d="M56.8262 64.8999H53.3101" stroke="black" stroke-width="0.5" stroke-miterlimit="10" stroke-linecap="round"/>
<path d="M55.5784 70.1174L52.9696 83.615C52.9696 83.8418 52.7427 83.9553 52.6293 83.9553H42.9882C42.7613 83.9553 42.6479 83.8418 42.6479 83.615L40.3794 70.1174C40.3794 69.8906 40.4928 69.6637 40.7197 69.6637L55.3515 69.5503C55.4649 69.6637 55.5784 69.8906 55.5784 70.1174Z" fill="#757575"/>
<path d="M40.4928 71.5919L55.0112 73.0665L55.3515 70.9114H40.3794L40.4928 71.5919Z" fill="#4B4B4B"/>
<path d="M40.4929 70.9114H55.2382C56.1456 70.9114 56.9395 70.1174 56.9395 69.21C56.9395 68.3026 56.1456 67.5086 55.2382 67.5086H40.4929C39.5855 67.5086 38.7915 68.3026 38.7915 69.21C38.7915 70.2308 39.5855 70.9114 40.4929 70.9114Z" fill="#757575"/>
<path d="M47.2983 64.8999C48.9897 64.8999 50.3608 63.5288 50.3608 61.8374C50.3608 60.1461 48.9897 58.7749 47.2983 58.7749C45.607 58.7749 44.2358 60.1461 44.2358 61.8374C44.2358 63.5288 45.607 64.8999 47.2983 64.8999Z" fill="#4B4B4B"/>
<path d="M0.339844 88.1522H68.2815C69.5292 88.1522 70.4366 87.1314 70.4366 85.9971C70.4366 84.7495 69.4158 83.842 68.2815 83.842H0.339844V88.1522Z" fill="#4B4B4B"/>
</svg>
