<svg width="165" height="165" viewBox="0 0 165 165" fill="none" xmlns="http://www.w3.org/2000/svg">
<path d="M82.7002 164.8C127.988 164.8 164.7 128.087 164.7 82.8C164.7 37.5127 127.988 0.800049 82.7002 0.800049C37.4128 0.800049 0.700195 37.5127 0.700195 82.8C0.700195 128.087 37.4128 164.8 82.7002 164.8Z" fill="#383838"/>
<path d="M48.9001 157.5C59.2001 162.2 70.6001 164.8 82.7001 164.8C93.0001 164.8 102.8 162.9 111.8 159.5C108.9 148.3 105 143.2 99.8001 137.9L99.7001 137.8H57.2001C57.1001 137.9 57.0001 138 56.8001 138.1C56.5001 138.4 56.2001 138.7 55.9001 139.1C55.8001 139.2 55.6001 139.4 55.5001 139.6C55.4001 139.8 55.2002 139.9 55.1002 140.1C54.8002 140.4 54.6001 140.8 54.3001 141.2C54.2001 141.4 54.1001 141.6 53.9001 141.8C52.5001 144 51.3001 146.7 50.4001 149.4C49.8001 151.6 49.2001 154.1 48.9001 157.5Z" fill="#004CBB"/>
<path d="M54.0002 141.7L95.2002 137.8H84.0002H79.9002H57.3002C56.1002 138.8 55.0002 140.2 54.0002 141.7Z" fill="#0034B0"/>
<path fill-rule="evenodd" clip-rule="evenodd" d="M75.6001 19.0001C75.6001 19.0001 47.9001 18.3 51.7001 65.5H98.6001C98.5001 65.5 101.1 17.3001 75.6001 19.0001Z" fill="black"/>
<path d="M93.2002 73.1C102.1 76.2 116 106.1 116 106.1L131.4 83.5L141.8 87.3C141.8 87.3 137.4 106.3 124.9 120C122 123.1 115.7 124.3 111.2 122.5C103.1 119.3 100 108.6 100 108.6L93.3002 84.2V73.1H93.2002Z" fill="#FF9D12"/>
<path d="M114.7 103.5C115.5 105.1 116 106.1 116 106.1L114.2 109.9C114.2 109.9 113.9 106.5 114.7 103.5Z" fill="#EC8A12"/>
<path fill-rule="evenodd" clip-rule="evenodd" d="M108.5 100.5C108.5 98.4 107.9 96.4 106.8 94.8C105.7 93.1 105 91.1 104.6 89.1C103 81 97.2001 74 89.0001 71.2L84.6001 69.7L67.8001 69.6L62.6001 71.7C52.2001 74 45.2001 85.6 48.4001 99.2L54.1001 134.7C54.4001 136.6 56.0001 138.2 57.9001 138.2H98.0001C100 138.2 101.7 136.9 101.9 134.9L104 109.1C106.7 107.2 108.5 104.1 108.5 100.5Z" fill="#FFB512"/>
<path d="M60.0001 95.6001L52.0001 88.5001C51.9001 88.7001 51.8001 88.9001 51.6001 89.1001C51.0001 89.6001 50.4001 90.0001 49.8001 90.4001C49.5001 90.6001 49.2001 90.8001 48.8001 91.0001C48.7001 91.0001 48.6001 91.1001 48.6001 91.1001L48.5001 91.2001C48.5001 91.2001 48.5001 91.3001 48.4001 91.3001C48.2001 91.6001 48.0001 91.7001 47.7001 91.7001C47.6001 94.1001 47.8001 96.6001 48.4001 99.2001L54.1001 134.7C54.4001 136.6 56.0001 138.2 57.9001 138.2H59.1001C62.3001 133.1 72.1001 116.4 72.1001 116.4L60.0001 95.6001Z" fill="#FF9D12"/>
<path d="M49.8003 153.3C53.7003 143.4 66.8003 107.4 66.8003 71.9C66.8003 70.8 65.9003 69.8 64.7003 69.8C63.5003 69.8 62.6003 70.7 62.6003 71.9C62.6003 107.1 49.4003 142.8 45.8003 152.1C47.2003 152.5 48.5003 152.9 49.8003 153.3Z" fill="#008ECC"/>
<path fill-rule="evenodd" clip-rule="evenodd" d="M98.6001 83.6001L104.8 73.8001C107 70.4001 111.5 69.3001 115.1 71.3001L121.6 75.1001C122.3 75.5001 122.5 76.3001 122.3 77.0001C122 77.8001 121.1 78.2001 120.3 77.9001L114.3 75.6001L114.8 78.0001C115 79.2001 114.9 80.4001 114.5 81.5001C113.4 84.5001 110.3 86.3001 107.1 85.7001L104.6 88.7001L98.6001 83.6001Z" fill="#FF7254"/>
<path d="M47.5002 91.7001C47.8002 97.3001 58.1003 112.9 66.1003 120.8C68.7003 123.4 73.2002 125 79.7002 120.8C89.4002 114.4 98.7002 99.5001 103.8 92.8001C105.5 90.6001 105.5 87.6001 103.9 85.3001C101.7 82.2001 97.2002 81.9001 94.5002 84.5001L75.4002 106L60.6003 78.5001L47.5002 91.7001Z" fill="#FFB512"/>
<path d="M75.4001 106.7C75.3001 106.7 75.3001 106.7 75.4001 106.7C75.1001 106.7 74.9001 106.5 74.8001 106.3L61.0001 80.8001C60.8001 80.5001 60.9001 80.0001 61.3001 79.8001C61.6001 79.6001 62.1001 79.7001 62.3001 80.1001L75.6002 104.7L93.3001 84.5001C93.6001 84.2001 94.0001 84.2001 94.3001 84.4001C94.6001 84.7001 94.6001 85.1001 94.4001 85.4001L76.0001 106.4C75.8001 106.6 75.6001 106.7 75.4001 106.7Z" fill="#FFCA55"/>
<path d="M71.6003 124.6C68.4003 124.6 66.3003 123.1 65.3003 122.2L66.3003 121.1C67.8003 122.5 72.1003 125.2 79.4003 120.4C92.2003 112 105.1 90.8 105.3 90.6L106.5 91.3C106 92.2 93.3003 112.9 80.2003 121.5C76.7003 123.8 73.8003 124.6 71.6003 124.6Z" fill="#FF9D12"/>
<path d="M73.5001 109.7C73.4001 109.7 73.4001 109.7 73.3001 109.7C72.9001 109.6 72.7001 109.2 72.8001 108.8C72.8001 108.7 73.3001 107 74.8001 105.5C75.1001 105.2 75.5001 105.2 75.8001 105.5C76.1001 105.8 76.1001 106.2 75.8001 106.5C74.6001 107.7 74.2001 109.2 74.2001 109.2C74.1001 109.5 73.9001 109.7 73.5001 109.7Z" fill="#FFCA55"/>
<path d="M72.1002 107.3C71.8002 107.3 71.6002 107.1 71.4002 106.9C71.2002 106.5 71.4002 106.1 71.8002 106L74.7002 104.8C75.1002 104.6 75.5002 104.8 75.6002 105.2C75.8002 105.6 75.6002 106 75.2002 106.1L72.3002 107.3C72.3002 107.2 72.2002 107.3 72.1002 107.3Z" fill="#FFCA55"/>
<path fill-rule="evenodd" clip-rule="evenodd" d="M68.4001 66.5001L83.6001 66.9001L80.4001 46.7001L67.1001 43.2001L68.4001 66.5001Z" fill="#FF7254"/>
<path fill-rule="evenodd" clip-rule="evenodd" d="M81.5001 53.8L82.8001 61.8L71.6001 53.4L81.5001 53.8Z" fill="#F15A37"/>
<path fill-rule="evenodd" clip-rule="evenodd" d="M84.9001 70.8L83.9001 63.6H67.6001V70.8H84.9001Z" fill="#FFB512"/>
<path fill-rule="evenodd" clip-rule="evenodd" d="M92.4002 45.0001C92.1002 50.8001 89.8002 55.0001 82.8002 56.3001C82.7002 56.3001 82.6002 56.4001 82.5002 56.4001C82.0002 56.5001 78.8002 56.7001 77.8002 56.6001C74.1002 56.2001 70.4002 54.4001 67.3002 51.8001C66.5002 51.1001 65.7002 50.4001 65.0002 49.6001C64.7002 49.3001 64.5002 49.0001 64.3002 48.8001C64.0002 48.4001 63.7002 48.0001 63.4002 47.7001C63.2002 47.4001 63.0002 47.2001 62.9002 46.9001C61.5002 44.7001 60.5002 42.4001 60.2002 40.0001C59.5002 34.8001 59.9002 30.7001 61.3002 27.6001C62.2002 25.6001 63.4002 24.1001 65.1002 23.0001C66.0002 22.4001 67.1002 21.9001 68.3002 21.5001C68.8002 21.3001 69.3002 21.2001 69.9002 21.1001C70.4002 21.0001 70.9002 20.9001 71.5002 20.8001H71.6002C71.7002 20.8001 71.7002 20.8001 71.8002 20.8001C72.3002 20.7001 72.9002 20.7001 73.5002 20.6001C74.2002 20.5001 74.8002 20.5001 75.5002 20.5001C76.0002 20.5001 76.5002 20.5001 76.9002 20.6001C76.9002 20.6001 76.9002 20.6001 77.0002 20.6001C77.1002 20.6001 77.2002 20.6001 77.3002 20.6001C77.5002 20.6001 77.6002 20.7001 77.7002 20.7001C78.2002 20.8001 78.6002 20.9001 79.0002 21.0001C79.1002 21.0001 79.1002 21.1001 79.2002 21.1001C79.6002 21.2001 80.0002 21.3001 80.3002 21.5001C80.6002 21.6001 80.9002 21.7001 81.2002 21.9001C81.5002 22.1001 81.9002 22.2001 82.2002 22.4001C82.5002 22.6001 82.8002 22.7001 83.1002 22.9001C83.9002 23.4001 84.7002 24.1001 85.4002 24.8001C85.6002 25.0001 85.8002 25.2001 86.0002 25.4001C86.1002 25.5001 86.3002 25.7001 86.4002 25.8001C89.7002 29.5001 91.6002 34.7001 92.1002 40.2001C92.1002 40.5001 92.2002 40.7001 92.2002 40.9001C92.5002 42.1001 92.5002 43.6001 92.4002 45.0001Z" fill="#FF7254"/>
<path fill-rule="evenodd" clip-rule="evenodd" d="M71.6002 20.6C71.1002 21.5 67.1002 24.9 66.9002 28.6C66.6002 34.5 66.4002 42.2 62.9002 46.7C61.5002 44.5 60.5002 42.2 60.2002 39.8C59.5002 34.6 59.9002 30.5 61.3002 27.4C62.2002 25.4 63.4002 23.9 65.1002 22.8C66.0002 22.2 67.1002 21.7 68.3002 21.3C68.8002 21.1 69.3002 21 69.9002 20.9C70.5002 20.8 71.0002 20.7 71.6002 20.6Z" fill="black"/>
<path d="M65.3001 43.8C67.3435 43.8 69.0001 42.1435 69.0001 40.1C69.0001 38.0566 67.3435 36.4 65.3001 36.4C63.2566 36.4 61.6001 38.0566 61.6001 40.1C61.6001 42.1435 63.2566 43.8 65.3001 43.8Z" fill="#FF7254"/>
<path fill-rule="evenodd" clip-rule="evenodd" d="M73.6001 20.4001C74.3001 20.4001 75.0001 20.3 75.7001 20.3C76.3001 20.3 76.9001 20.3001 77.4001 20.4001C77.5001 20.4001 77.7001 20.4 77.8001 20.5C78.2001 20.6 78.7001 20.6001 79.1001 20.7001C79.2001 20.7001 79.2001 20.7001 79.3001 20.7001C82.2001 21.5001 84.6001 23.1 86.5001 25.3C83.9001 29.9 66.2001 36.2001 66.2001 36.4001L64.6001 23.1C67.1001 21.1 70.5001 20.7 71.7001 20.5C71.8001 20.5 71.8001 20.5 71.9001 20.5C72.5001 20.5 73.0001 20.5001 73.6001 20.4001Z" fill="black"/>
<path d="M83.9001 48.6C83.8001 48.6 83.6001 48.6 83.5001 48.6C80.8001 48.4 80.1001 46.7 80.1001 46.6L81.0001 46.3C81.0001 46.3 81.5001 47.5 83.5001 47.6C85.4001 47.7 86.0001 46.9 86.0001 46.8L86.8001 47.3C86.8001 47.4 86.0001 48.6 83.9001 48.6Z" fill="black"/>
<path d="M50.5002 149.3C50.3002 149.3 50.1002 149.2 49.9002 149.2H49.2002L42.1002 148.9C40.2002 148.8 38.6002 149.8 37.7002 151.3C42.9002 154.7 48.6002 157.6 54.5002 159.8L54.7002 154.3C54.8002 151.8 53.0002 149.7 50.5002 149.3Z" fill="#008ECC"/>
<path fill-rule="evenodd" clip-rule="evenodd" d="M143.3 74.1001L144.8 65.4001C145 64.4001 144.3 63.4001 143.3 63.2001C142.2 63.0001 141 63.7001 140.7 64.8001L139.1 70.2001L143.3 74.1001Z" fill="#F15A37"/>
<path d="M122.1 84.5H131.4C133.3 84.5 135.4 82.9 136 81L143.1 59.4C143.7 57.5 142.7 55.9 140.8 55.9H131.5C129.6 55.9 127.5 57.5 126.9 59.4L119.8 81C119.1 82.9 120.2 84.5 122.1 84.5Z" fill="white"/>
<path d="M123.8 84.5H133.1C135 84.5 137.1 82.9 137.7 81L144.8 59.4C145.4 57.5 144.4 55.9 142.5 55.9H133.2C131.3 55.9 129.2 57.5 128.6 59.4L121.5 81C120.8 82.9 121.9 84.5 123.8 84.5Z" fill="#ABABAB"/>
<path fill-rule="evenodd" clip-rule="evenodd" d="M141.1 87.9L143.5 80C144.9 74.9 143.4 72 141.1 70.7L134.3 66.5C133.3 65.9 132 66.3001 131.4 67.3001C130.9 68.2 131.1 69.3 131.9 69.9L135 72L130.7 69.1C129.8 68.5 128.5 68.8001 127.9 69.8001C127.3 70.7 127.5 71.8 128.3 72.4L133.1 75.6L129.3 73.1C128.5 72.6 127.3 72.8 126.7 73.7C126.1 74.5 126.3 75.6 127.1 76.1L132.8 80.4L131.5 85.5L141.1 87.9Z" fill="#FF7254"/>
<path d="M122.5 96.5001L131.4 83.5001L141.8 87.3001C141.8 87.3001 140.3 94.6001 135.4 104.3C131.1 101.7 126.9 99.1001 122.5 96.5001Z" fill="#FF9D12"/>
<path d="M142 43.9V49.6C142 50.3 142.7 50.6 143.2 50.1L149.5 43.8H142V43.9Z" fill="#38CE77"/>
<path d="M139.9 45.0001H154.3C156.5 45.0001 158.3 43.2001 158.3 41.0001V26.7001C158.3 24.5001 156.5 22.7001 154.3 22.7001H139.9C137.7 22.7001 135.9 24.5001 135.9 26.7001V41.0001C135.9 43.2001 137.7 45.0001 139.9 45.0001Z" fill="#38CE77"/>
<path d="M153.3 30.4001L146.4 38.3001L142 33.0001" stroke="white" stroke-width="2.0562" stroke-miterlimit="10" stroke-linecap="round" stroke-linejoin="round"/>
</svg>
