<svg width="326" height="326" viewBox="0 0 326 326" fill="none" xmlns="http://www.w3.org/2000/svg">
<path d="M163 326C253.022 326 326 253.022 326 163C326 72.9776 253.022 0 163 0C72.9776 0 0 72.9776 0 163C0 253.022 72.9776 326 163 326Z" fill="#383838"/>
<path d="M95.812 311.489C116.286 320.832 138.947 326 163 326C183.474 326 202.955 322.223 220.845 315.464C215.08 293.201 207.328 283.063 196.991 272.528L196.792 272.329H112.311C112.112 272.528 111.913 272.727 111.516 272.925C110.919 273.522 110.323 274.118 109.727 274.913C109.528 275.112 109.13 275.51 108.932 275.907C108.733 276.305 108.335 276.503 108.136 276.901C107.54 277.497 107.143 278.293 106.546 279.088C106.347 279.485 106.149 279.883 105.751 280.28C102.968 284.653 100.583 290.021 98.7937 295.388C97.601 299.761 96.4084 304.73 95.812 311.489Z" fill="#004CBB"/>
<path d="M105.95 280.082L187.848 272.329H165.584H157.434H112.51C110.124 274.317 107.938 277.1 105.95 280.082Z" fill="#0034B0"/>
<path fill-rule="evenodd" clip-rule="evenodd" d="M148.887 36.1782C148.887 36.1782 93.8245 34.7867 101.378 128.611H194.606C194.407 128.611 199.576 32.7989 148.887 36.1782Z" fill="black"/>
<path d="M183.872 143.719C201.563 149.881 229.194 209.316 229.194 209.316L259.806 164.392L280.479 171.946C280.479 171.946 271.733 209.714 246.885 236.947C241.121 243.109 228.598 245.494 219.652 241.916C203.551 235.555 197.389 214.286 197.389 214.286L184.071 165.783V143.719H183.872Z" fill="#FF9D12"/>
<path d="M226.61 204.148C228.2 207.328 229.194 209.316 229.194 209.316L225.616 216.87C225.616 216.87 225.019 210.111 226.61 204.148Z" fill="#EC8A12"/>
<path fill-rule="evenodd" clip-rule="evenodd" d="M214.285 198.184C214.285 194.01 213.092 190.034 210.906 186.854C208.719 183.475 207.328 179.499 206.533 175.523C203.352 159.422 191.823 145.508 175.523 139.942L166.777 136.96L133.382 136.761L123.045 140.936C102.372 145.508 88.4571 168.566 94.8181 195.6L106.149 266.167C106.745 269.944 109.925 273.125 113.702 273.125H193.413C197.389 273.125 200.768 270.54 201.166 266.565L205.34 215.28C210.707 211.503 214.285 205.341 214.285 198.184Z" fill="#FFB512"/>
<path d="M117.877 188.444L101.974 174.331C101.776 174.729 101.577 175.126 101.179 175.524C99.9866 176.518 98.7939 177.313 97.6013 178.108C97.0049 178.505 96.4086 178.903 95.6135 179.301C95.4147 179.301 95.2159 179.499 95.2159 179.499L95.0171 179.698C95.0171 179.698 95.0171 179.897 94.8183 179.897C94.4208 180.493 94.0232 180.692 93.4269 180.692C93.2281 185.463 93.6257 190.432 94.8183 195.601L106.149 266.168C106.745 269.944 109.926 273.125 113.702 273.125H116.088C122.449 262.987 141.929 229.791 141.929 229.791L117.877 188.444Z" fill="#FF9D12"/>
<path d="M97.6012 303.14C105.354 283.461 131.394 211.9 131.394 141.333C131.394 139.146 129.605 137.159 127.22 137.159C124.834 137.159 123.045 138.948 123.045 141.333C123.045 211.304 96.8061 282.268 89.65 300.755C92.433 301.55 95.0171 302.345 97.6012 303.14Z" fill="#008ECC"/>
<path fill-rule="evenodd" clip-rule="evenodd" d="M194.606 164.591L206.931 145.11C211.304 138.352 220.249 136.165 227.405 140.141L240.326 147.695C241.717 148.49 242.115 150.08 241.717 151.471C241.121 153.062 239.332 153.857 237.742 153.26L225.815 148.688L226.809 153.459C227.206 155.845 227.007 158.23 226.212 160.416C224.026 166.38 217.864 169.958 211.503 168.765L206.533 174.729L194.606 164.591Z" fill="#FF7254"/>
<path d="M93.0294 180.692C93.6258 191.823 114.1 222.833 130.003 238.537C135.171 243.705 144.116 246.886 157.037 238.537C176.318 225.815 194.805 196.197 204.943 182.878C208.322 178.505 208.322 172.542 205.142 167.97C200.768 161.808 191.823 161.211 186.456 166.379L148.489 209.117L119.07 154.453L93.0294 180.692Z" fill="#FFB512"/>
<path d="M148.489 210.509C148.29 210.509 148.29 210.509 148.489 210.509C147.893 210.509 147.495 210.112 147.296 209.714L119.865 159.025C119.467 158.429 119.666 157.435 120.461 157.037C121.057 156.64 122.051 156.838 122.449 157.633L148.887 206.533L184.071 166.38C184.667 165.783 185.462 165.784 186.059 166.181C186.655 166.777 186.655 167.573 186.257 168.169L149.682 209.913C149.284 210.31 148.887 210.509 148.489 210.509Z" fill="#FFCA55"/>
<path d="M140.935 246.091C134.574 246.091 130.4 243.109 128.412 241.32L130.4 239.133C133.382 241.916 141.929 247.283 156.44 237.742C181.884 221.044 207.527 178.903 207.924 178.505L210.31 179.897C209.316 181.686 184.071 222.833 158.03 239.929C151.073 244.5 145.308 246.091 140.935 246.091Z" fill="#FF9D12"/>
<path d="M144.712 216.472C144.513 216.472 144.513 216.472 144.315 216.472C143.52 216.273 143.122 215.478 143.321 214.683C143.321 214.484 144.315 211.105 147.296 208.123C147.893 207.527 148.688 207.527 149.284 208.123C149.88 208.719 149.88 209.515 149.284 210.111C146.899 212.496 146.104 215.478 146.104 215.478C145.905 216.074 145.507 216.472 144.712 216.472Z" fill="#FFCA55"/>
<path d="M141.929 211.702C141.333 211.702 140.935 211.305 140.538 210.907C140.14 210.112 140.538 209.317 141.333 209.118L147.098 206.733C147.893 206.335 148.688 206.733 148.887 207.528C149.284 208.323 148.887 209.118 148.091 209.317L142.327 211.702C142.327 211.503 142.128 211.702 141.929 211.702Z" fill="#FFCA55"/>
<path fill-rule="evenodd" clip-rule="evenodd" d="M134.574 130.6L164.789 131.395L158.428 91.241L131.99 84.2837L134.574 130.6Z" fill="#FF7254"/>
<path fill-rule="evenodd" clip-rule="evenodd" d="M160.615 105.354L163.199 121.257L140.935 104.559L160.615 105.354Z" fill="#F15A37"/>
<path fill-rule="evenodd" clip-rule="evenodd" d="M167.373 139.147L165.385 124.834H132.984V139.147H167.373Z" fill="#FFB512"/>
<path fill-rule="evenodd" clip-rule="evenodd" d="M182.282 87.8614C181.685 99.3906 177.113 107.739 163.199 110.324C163 110.324 162.801 110.522 162.602 110.522C161.609 110.721 155.248 111.119 153.26 110.92C145.905 110.125 138.55 106.547 132.388 101.378C130.798 99.987 129.207 98.5955 127.816 97.0053C127.22 96.4089 126.822 95.8126 126.424 95.415C125.828 94.6199 125.232 93.8248 124.635 93.2284C124.238 92.6321 123.84 92.2345 123.641 91.6382C120.859 87.265 118.871 82.6931 118.274 77.9224C116.883 67.5858 117.678 59.4358 120.461 53.2736C122.25 49.298 124.635 46.3163 128.015 44.1297C129.804 42.937 131.99 41.9431 134.376 41.148C135.37 40.7504 136.363 40.5516 137.556 40.3528C138.55 40.1541 139.544 39.9553 140.737 39.7565H140.935C141.134 39.7565 141.134 39.7565 141.333 39.7565C142.327 39.5577 143.52 39.5577 144.712 39.3589C146.104 39.1602 147.296 39.1602 148.688 39.1602C149.682 39.1602 150.676 39.1602 151.471 39.3589C151.471 39.3589 151.471 39.3589 151.67 39.3589C151.868 39.3589 152.067 39.3589 152.266 39.3589C152.663 39.3589 152.862 39.5577 153.061 39.5577C154.055 39.7565 154.85 39.9553 155.645 40.1541C155.844 40.1541 155.844 40.3528 156.043 40.3528C156.838 40.5516 157.633 40.7504 158.229 41.148C158.826 41.3467 159.422 41.5455 160.018 41.9431C160.615 42.3406 161.41 42.5394 162.006 42.937C162.602 43.3345 163.199 43.5333 163.795 43.9309C165.385 44.9248 166.976 46.3163 168.367 47.7077C168.765 48.1053 169.162 48.5028 169.56 48.9004C169.759 49.0992 170.156 49.4967 170.355 49.6955C176.915 57.0504 180.691 67.387 181.685 78.3199C181.685 78.9162 181.884 79.3138 181.884 79.7114C182.481 82.0967 182.48 85.0784 182.282 87.8614Z" fill="#FF7254"/>
<path fill-rule="evenodd" clip-rule="evenodd" d="M140.935 39.3594C139.942 41.1484 131.99 47.9069 131.593 55.2618C130.996 66.9899 130.599 82.296 123.641 91.2411C120.859 86.8679 118.871 82.296 118.274 77.5252C116.883 67.1887 117.678 59.0387 120.461 52.8765C122.25 48.9008 124.635 45.9191 128.015 43.7325C129.804 42.5399 131.99 41.546 134.376 40.7508C135.37 40.3533 136.363 40.1545 137.556 39.9557C138.749 39.7569 139.743 39.5582 140.935 39.3594Z" fill="black"/>
<path d="M128.412 85.4754C132.474 85.4754 135.767 82.1825 135.767 78.1205C135.767 74.0585 132.474 70.7656 128.412 70.7656C124.35 70.7656 121.057 74.0585 121.057 78.1205C121.057 82.1825 124.35 85.4754 128.412 85.4754Z" fill="#FF7254"/>
<path fill-rule="evenodd" clip-rule="evenodd" d="M144.911 38.961C146.302 38.961 147.694 38.7622 149.085 38.7622C150.278 38.7622 151.471 38.7622 152.465 38.961C152.663 38.961 153.061 38.961 153.26 39.1598C154.055 39.3585 155.049 39.3586 155.844 39.5573C156.043 39.5573 156.043 39.5573 156.241 39.5573C162.006 41.1476 166.777 44.3281 170.554 48.7012C165.385 57.8451 130.201 70.3683 130.201 70.7659L127.021 44.3281C131.99 40.3524 138.749 39.5573 141.134 39.1598C141.333 39.1598 141.333 39.1598 141.532 39.1598C142.724 39.1598 143.718 39.1598 144.911 38.961Z" fill="black"/>
<path d="M165.385 95.0173C165.187 95.0173 164.789 95.0173 164.59 95.0173C159.223 94.6197 157.832 91.2404 157.832 91.0416L159.621 90.4453C159.621 90.4453 160.615 92.8307 164.59 93.0294C168.367 93.2282 169.56 91.638 169.56 91.4392L171.15 92.4331C171.15 92.6319 169.56 95.0173 165.385 95.0173Z" fill="black"/>
<path d="M98.9926 295.189C98.5951 295.189 98.1975 294.99 97.7999 294.99H96.4085L82.2951 294.394C78.5182 294.195 75.3377 296.183 73.5487 299.165C83.8853 305.923 95.2158 311.688 106.944 316.061L107.341 305.128C107.54 300.159 103.962 295.984 98.9926 295.189Z" fill="#008ECC"/>
<path fill-rule="evenodd" clip-rule="evenodd" d="M283.461 145.706L286.443 128.413C286.84 126.425 285.449 124.437 283.461 124.039C281.274 123.642 278.889 125.033 278.293 127.22L275.112 137.954L283.461 145.706Z" fill="#F15A37"/>
<path d="M241.32 166.38H259.806C263.583 166.38 267.757 163.199 268.95 159.422L283.063 116.486C284.256 112.709 282.268 109.528 278.491 109.528H260.005C256.228 109.528 252.054 112.709 250.861 116.486L236.748 159.422C235.356 163.199 237.543 166.38 241.32 166.38Z" fill="white"/>
<path d="M244.699 166.38H263.185C266.962 166.38 271.137 163.199 272.329 159.422L286.443 116.486C287.635 112.709 285.648 109.528 281.871 109.528H263.384C259.607 109.528 255.433 112.709 254.24 116.486L240.127 159.422C238.735 163.199 240.922 166.38 244.699 166.38Z" fill="#ABABAB"/>
<path fill-rule="evenodd" clip-rule="evenodd" d="M279.088 173.138L283.858 157.434C286.641 147.297 283.66 141.532 279.088 138.948L265.571 130.599C263.583 129.406 260.999 130.201 259.806 132.189C258.812 133.978 259.21 136.165 260.8 137.357L266.962 141.532L258.415 135.767C256.626 134.575 254.041 135.171 252.849 137.159C251.656 138.948 252.054 141.134 253.644 142.327L263.185 148.688L255.632 143.718C254.041 142.725 251.656 143.122 250.463 144.911C249.271 146.501 249.668 148.688 251.259 149.682L262.589 158.229L260.005 168.367L279.088 173.138Z" fill="#FF7254"/>
<path d="M242.115 190.233L259.806 164.392L280.479 171.945C280.479 171.945 277.498 186.456 267.757 205.738C259.21 200.57 250.861 195.401 242.115 190.233Z" fill="#FF9D12"/>
</svg>
