<svg xmlns="http://www.w3.org/2000/svg" viewBox="0 0 50 100" width="64px" height="128px"><path style="fill:#154273" d="M0 0h50v100H0z"/><path d="M25.9 77.4H25V75h.9v2.4zm3.9-10.7H29v-2.4h.9v2.4h-.1zm-16.1-4.1c-.1 0-.5 0-.5.1s.2 0 .5.1c.7.1 1 .5 1.5.5.4 0 .9-.3.7-.9 0-.1-.1-.1-.1 0-.1.3-.4.5-.8.5-.5-.2-.6-.3-1.3-.3zM8.9 65c.1.1.9 1.2-.4 1.6-.1 0-.1.1 0 .1.9.4 1.4-.3 1.4-.3.5 1.1-.3 1.7-.3 1.7.1.2.6.5 1.2.7.3-.1.6-.4.8-.8 0 0 .2.5 0 .9 1.9.2 2.6-1.3 4-1.1 0 0 .1 0 .1-.1 0-.9-.6-2.7-2.4-3S12 63.6 12 63.6c.8 0 1.2.3 1.2.3.1-.2-.1-.5-.1-.5.1-.1.1-.4.1-.4-.9 0-1.1-.2-1.1-.2-.1-.5.2-1.2 1.5-.5.3-.3.3-.7.3-.7.1 0 .2-.2.2-.3 0-.2-1-.8-1.3-.8-.1-.3-.5-.8-1.7-.6-.6.1-1-.1-.8-.4 0-.1-.1-.1-.1 0-.1.1-.3.5.2.8.6.3.6.8.6.9 0 .1-.1.1-.2 0-.2-.9-1.5-1.1-2.3-.6 0 .5.6.8.9.8.2 0 .4-.2.4-.4 0-.1.1-.1.1 0 .1.3-.4 1-1.1.6-.7.7-.4 1.7-.4 2 .1.6-.2 1.2-.7.9h-.1c.2.4.7.8 1.3.5zm4.1-3.8c-.4.4-.9.3-1.1-.3.8 0 1.1 0 1.1.3zm22.1 1.5c-.4 0-.7-.2-.8-.5 0-.1-.1-.1-.1 0-.2.6.3.9.7.9.5 0 .8-.3 1.5-.5.3 0 .5 0 .5-.1s-.5-.1-.5-.1c-.8.2-.9.3-1.3.3zm7.1 1.8c0-.1 0-.1 0 0-.6.2-.9-.3-.8-1 .1-.3.4-1.2-.4-2-.7.4-1.2-.3-1.1-.6 0-.1.1-.1.1 0 0 .2.2.4.4.4.3 0 .8-.3.9-.8-.8-.5-2-.3-2.3.6 0 .1-.2.1-.2 0s0-.6.6-.9c.5-.2.3-.6.2-.8h-.1c.2.3-.2.5-.8.4-1.2-.2-1.6.3-1.7.6-.3.1-1.3.6-1.3.8 0 .1.1.2.2.3 0 0 0 .4.3.7 1.3-.8 1.6 0 1.5.5 0 0-.2.2-1.1.2 0 0 0 .3.1.4 0 0-.2.2-.1.5 0 0 .4-.3 1.2-.3 0 0 .5.7-1.3 1.1s-2.4 2.1-2.4 3c0 .1 0 .1.1.1 1.5-.3 2.1 1.2 4 1.1-.2-.4 0-.9 0-.9.2.4.5.7.8.8.7-.2 1.1-.5 1.2-.7 0 0-.7-.6-.2-1.7 0 0 .5.7 1.4.3.1 0 .1-.1 0-.1-1.3-.4-.4-1.5-.4-1.6.7.4 1.2 0 1.2-.4zm-4.1-3.6c-.1.6-.7.7-1 .3 0-.3.3-.3 1-.3zM24.7 50.2c0 .2.1.3.1.4.1.2.1.2 0 .3s-.1.1-.3 0c-.1-.1-.2-.1-.4-.1-.3 0-.4.2-.4.3s.1.3.4.3c.2 0 .3-.1.4-.1.2-.1.2-.1.3 0s0 .6-.1 1c-.5.1-.7.5-.7.7 0 .5.6.9.9 1 .3-.2.9-.5.9-1 0-.2-.2-.6-.7-.7-.1-.4-.1-1-.1-1s.1-.1.3 0c.1.1.2.1.4.1.3 0 .4-.2.4-.3s-.1-.3-.4-.3c-.2 0-.3.1-.4.1-.2.1-.2.1-.3 0s-.1-.1 0-.3c.1-.1.1-.2.1-.4 0-.3-.2-.4-.3-.4.1 0-.1.1-.1.4zm.3 4.1c-.4 0-.7.3-.7.7s.3.7.7.7.7-.3.7-.7-.3-.7-.7-.7zm0 6.4c2.7 0 4.2.5 4.2.5 0-1.3 0-2.1.8-2-.4-1.1 1.4-1.6 1.4-3 0-1-.7-1.1-.9-1.1-.6 0-.5.4-1 .4h-.1c0 .2.1.5.4.5s.3-.3.6-.3c.1 0 .2.1.2.4 0 .6-.4 1.3-.9 1.9-.1-.2-.3-.2-.5-.2-.3 0-.5.3-.5.7 0 .1 0 .2.1.3-.2.1-.3.1-.4.1-.2 0-.5-.1-.5-.6 0-1.1 1.4-2 1.4-3.4 0-.7-.4-1.3-1.3-1.3-1 0-.8.9-1.6.9h-.1c0 .1.1.5.6.5s.6-.8 1-.8c.1 0 .4.1.4.6 0 .4-.2 1.1-.5 1.8-.1-.1-.3-.2-.4-.2-.4 0-.6.3-.6.8 0 .3.1.5.3.7-.2.3-.4.5-.7.5-.6 0-.8-.3-.8-.7s.7-.5.7-1.1c0-.4-.3-.6-.5-.6-.3 0-.4.2-.5.2s-.2-.2-.5-.2-.5.2-.5.6c0 .6.7.8.7 1.1 0 .4-.3.7-.8.7-.3 0-.5-.2-.7-.5.2-.2.3-.4.3-.7 0-.4-.3-.8-.6-.8-.2 0-.3.1-.4.2-.3-.7-.5-1.3-.5-1.8s.2-.6.4-.6c.4 0 .5.8 1 .8.4 0 .6-.5.6-.5h-.1c-.8 0-.7-.9-1.6-.9s-1.3.6-1.3 1.3c0 1.4 1.4 2.3 1.4 3.4 0 .5-.3.6-.5.6-.1 0-.2 0-.4-.1 0-.1.1-.2.1-.3 0-.4-.2-.7-.5-.7-.2 0-.3.1-.4.2-.5-.5-.9-1.2-.9-1.9 0-.3.1-.4.2-.4.2 0 .2.3.6.3.2 0 .4-.3.4-.5h-.1c-.5 0-.4-.4-1-.4-.2 0-.9.1-.9 1.1 0 1.5 1.8 1.9 1.4 3 .8-.1.8.6.8 2-.6 0 .9-.5 3.5-.5zm-4.9 2c-.7.2-1.2.3-1.5.4 0-.3.1-.6.4-.7v-.1c-.6-.4-1 .4-1 .4-.2 0-.6 0-.6.4 0 .9-2.1 1.4-2.6 1.5.9.3 1.2 1.4 1.2 1.4.6-.6 1.4-1.2 1.5-1.2s.2.2.2.3c0 0 0 .1.1 0 .3-.5.2-.6.1-.8 0-.1 0-.5.5-.5V70l-.2.1c-.1 0-1-.8-2-1.5s-1.6-.3-2.8.3c-1.6.8-3.1.1-3.1.1-1.3.9-1.8 3.7-1.8 3.7-.3.1-.7.2-1.1.2-1 0-1.2-.6-1.2-1 0-1.6 2-2.2 2-3.8 0-.4-.2-1.9-2.1-1.9H4.4c-.7 0-.9-.5-1-.7 0-.1-.1 0-.1 0 0 .1-.1.3-.1.7 0 .6.4 1 1.1 1 .3 0 .6-.1.7-.2.1 0 .1 0 .1.1-.3.3-.3 1-.2 1.2H5c.2-.7.8-1.3 1.6-1.3 1 0 1 .9 1 1.1 0 1.3-2.2 2.2-2.2 3.9 0 1.8 1.9 2.1 2.9 1.9-.1 1.8-2.1 2.4-2.1 1.1 0-.1-.1-.1-.1 0-.2.6-.2 1.2.6 1.3.1 0 0 0 0 .1-.8.5-.4 2.4-.3 3 .1.8-.8.7-.8.7s-.1 0 0 .1c.7.9 1.4.3 1.4.3.5.2.2.6-.2.9-.1 0-.1.1 0 .1s.9.1 1.1-.6c.4.4.9.3 1 .2.2-.1.9-.4 1 .5 0 .1 0 0 .1 0 .6-.8 0-1.2-.4-1.3 0 0 .5-.4.9.1 0 0 .1.1.1 0 .1-.9-.7-1-1.2-.6 0-.1-.2-.6.6-.6 0 0 .1 0 0-.1-.6-.6-1.1-.1-1.2.1-.3.3-.9.2-1 .2.2-3.3 3.1-2.1 3.5-3.7 0-.1.1-.1.1 0 .1.4 1.1.4 1.3-.3v-.1c-.8.8-2.7-1.8-.1-3.9 2.2-1.8 4.2-.8 4.9-.2 0 .3-.1.3-.2.4v.1c.2.1.5.1.6-.1.5.3.1.8-.1.9v.1c.4.1.8-.4.8-.6h.1v1.9c0 2.7 3.1 3 6.4 5.3 3.4-2.3 6.4-2.6 6.4-5.3V72h.1c0 .2.4.7.8.6 0 0 .1 0 0-.1-.2-.1-.6-.5-.1-.9.1.2.4.2.6.1.1 0 0-.1 0-.1-.1 0-.3-.1-.2-.4.8-.6 2.7-1.6 4.9.2 2.6 2.1.7 4.7-.2 3.9v.1c.2.8 1.2.7 1.3.3 0 0 0-.1.1 0 .4 1.6 3.3.4 3.5 3.7-.1 0-.7.1-1-.2-.1-.1-.6-.7-1.2-.1v.1c.8 0 .6.5.6.6-.5-.4-1.3-.3-1.2.6 0 .1 0 .1.1 0 .4-.6.9-.2.9-.1-.3.1-1 .5-.4 1.3 0 0 .1.1.1 0 .1-.9.9-.6 1-.5s.7.2 1-.2c.2.7 1 .6 1.1.6s.1 0 0-.1c-.4-.2-.7-.7-.2-.9 0 0 .7.7 1.3-.1v-.1c-.1 0-.9.1-.8-.7 0-.6.5-2.5-.3-3 0 0-.1-.1 0-.1.8-.2.9-.7.6-1.3 0-.1-.1-.1-.1 0-.1 1.3-2.1.7-2.1-1.1 1.1.3 2.9-.1 2.9-1.9 0-1.7-2.2-2.7-2.2-3.9 0-.2 0-1.1 1-1.1.8 0 1.5.6 1.6 1.3h.1c.1-.2.1-.8-.2-1.2 0 0 0-.1.1-.1.1.1.4.2.7.2.7 0 1.1-.4 1.1-1 0-.4-.1-.6-.1-.7s0-.1-.1 0c-.1.2-.3.7-1 .7h-1.7c-1.9 0-2.1 1.5-2.1 1.9 0 1.6 2 2.2 2 3.8 0 .4-.2 1-1.2 1-.4 0-.9-.1-1.1-.2 0 0-.5-2.8-1.8-3.7 0 0-1.6.8-3.1-.1-1.2-.6-1.7-1.1-2.8-.3-1 .7-1.9 1.5-2 1.5l-.2-.1V64c.5 0 .5.4.5.5s-.2.3.1.8h.1c0-.1.1-.3.2-.3s.9.6 1.5 1.2c0 0 .4-1.1 1.2-1.4-.5-.1-2.6-.6-2.6-1.5 0-.3-.3-.4-.6-.4 0 0-.4-.8-1-.4v.1c.3.1.4.4.4.7-.6-.2-3.2-.9-6.4-.9-1.5 0-2.9.2-4 .4v2.1h-.9v-2.2m-5.7 22c-.2-.1-.4-.2-.4-.6v-1.3c-.4-.1-1.4-.5-3.5-.5-1.7 0-2.3.4-2.3.5l-.5 2.5s.7-.6 3.2-.5c3 .2 6.1 2 6.1.1v-1.1c-2.3 0-2.6.7-2.6.9zm18.6-.9v1.1c0 1.9 3.1.1 6.2-.1 2.5-.2 3.2.5 3.2.5l-.5-2.5c0-.1-.6-.5-2.3-.5-2.1 0-3.1.4-3.5.5v1.3c0 .3-.2.4-.4.6 0-.2-.4-.9-2.7-.9zm-8-1.2c4.9 0 9.8.2 10.4 1 0 .1.1 0 .1-.1V81c0-.8-5.1-1.2-10.5-1.2s-10.5.4-10.5 1.2v2.6s0 .1.1.1c.6-.8 5.6-1.1 10.4-1.1zm-4.3-12.1-.5-.1v.1l-.6-.2h.5v-.1l-.4-.4s.2.1.6.2c-.2-.2-.4-.6-.4-.6s.5.3.5.4c-.1-.3-.3-.7-.3-.7l.5.5c0-.2-.1-.7-.1-.7l.4.5v-.6s.2.4.2.5h.1c0-.1.2-.5.2-.5v.6h-.1l-.1.7c.7-.2 1.6-1.4 2.4-1.4s1.1 1 2.7.5c.4.6.5 1.1.7 1.8.6.6 1.4.4 1.4-.2 0-.8-.9-.9-.9-1.8 0-.4.3-.9 1-.9.4 0 .9.2 1.2.2.4 0 .5-.3.5-.4s.1-.1.1 0v.4c0 .5-.8.6-.9.5 0 0-.1 0 0 0 .1.1.1.4 0 .6-.1-.4-.5-.8-.9-.8-.1 0-.4.1-.4.4 0 .5 1 .9 1 1.9s-1 1.3-2 1c0 1 1.5 1.5 1.5.8 0-.1 0 0 0 0 .2.3.1.5-.2.6.2.1.3.6.4.9.1.5.6.2.6.2-.2.5-.7.3-.7.3-.2.2 0 .3.3.4v.1c-.2.1-.5.2-.7-.1-.1.3-.4.3-.5.3-.2 0-.3.2-.3.4-.4-.3-.2-.6 0-.7 0 0-.3-.2-.5.2-.2-.5.2-.7.5-.5 0-.1-.2-.3-.6-.2.1-.2.3-.4.6-.2.2.1.5-.1.5-.1-.6-1.3-1.9-.2-2.2-1.2-.1.2-.6.2-.7-.2.1.1.2.2.5-.2.1-.2.2-.5.2-.7 0-.8-.8-2.1-2-2.1-.8 0-1.6.3-2.2.8l.6.1c0 .6-.6.9-1.1.8l.1-.7c-.1 0-.3.1-.4.3-.1-.4.2-.6.3-.6-.3 0-.4.2-.5.3 0-.1 0-.3.1-.4zm1.7 4.5c-.2.3-.4 0-.7 0-.3 0-.3.2-.3.3-.3-.4 0-.7.2-.7 0 0-.3-.2-.5.1 0-.5.4-.6.7-.3 0-.2-.1-.3-.3-.3.1-.1.2-.1.3-.1.3 0 .3.4.5.4.3 0 .7-.4.7-.4s-.3-.8-.2-1.2c-.1.1-.5.1-.5-.3.1.2.4 0 .5-.2s.9-1.2 1.8-1.2c.2 0 .5.1.7.3-.3.4 0 .8.2.7-1.3.5-1.8.7-1.8 1.7 0 .6.2.9.5.8-.1.1-.2.2-.4.2-.3 0-.3-.1-.5-.1-.1 0-.6.3-.6.5 0 .1.1.2.2.3 0-.2-.4-.2-.5-.5zm3.3-10.3c-.4 0-.6.1-.6.2.2.2.4.2.6-.2zm-1.4 1c.3-.1.6 0 .6 0v.1c-.6.1-.6.3-1 .3-.2 0-.5-.2-.4-.6 0-.1 0-.1.1 0 0 .1.2.3.7.2zm-7.6 12.8c.4.5.8 0 1.3 0 .2 0 .5.1.6.6.5-.8-.1-1.2-.4-1.2.1-.1.6-.4 1 .1h.1c0-.9-.7-1-1.2-.6-.1-.4.2-.6.5-.6 0 0 .1 0 0-.1-.6-.7-1.1.2-1.2.3-.2.3-1.2-.3-1.5-.7 0 0 .8-.8.8-1.6v-.1c.1.1.2.1.3.1.2 0 .5-.1.5-.7 0-.1 0-.1 0 0-.1.1-.2.2-.3.2-.6 0-2-2.2-3.6-2.2-.4 0-1.2.3-1.6.7.2.1.2.3.2.5 0 .3-.2.4-.5.5v.1c.8.3 2.3.9 2.6 1.2.4.3.3 1 .1 1.9-.2.8-.7.7-.9.7.2.3.5.3.7.3.4 0 .6-.3.8-.3.4 0 1.1.5 1.1.9 0 .2-.2.4-.4.6.2 0 .9.1 1-.6zm17.7.6c-.2-.2-.4-.4-.4-.6 0-.4.8-.9 1.1-.9.2 0 .4.3.8.3.2 0 .5-.1.7-.3-.2 0-.7.1-.9-.7-.2-.9-.3-1.5.1-1.9.3-.3 1.8-.8 2.6-1.2v-.1c-.2-.1-.4-.2-.5-.5 0-.2 0-.4.2-.5-.4-.4-1.2-.7-1.6-.7-1.6 0-3 2.2-3.6 2.2-.1 0-.2 0-.3-.2 0 .7.3.7.5.7.1 0 .2 0 .3-.1v.1c0 .8.8 1.6.8 1.6-.4.4-1.3 1-1.5.7-.1-.1-.6-1-1.2-.3v.1c.4 0 .6.2.5.6-.5-.4-1.2-.4-1.2.6 0 0 0 .1.1 0 .3-.5.9-.2 1-.1-.4.1-1 .5-.4 1.2.1-.5.4-.6.6-.6.5 0 .9.5 1.3 0 .1.7.8.6 1 .6zM21.5 66.6c0 .1-.2 0-.3 0 0 .1.2.4.4.4.1 0 .3-.1.3-.1s.9.3 1.4.4c-.2.2-.3.5-.3.8-.4-.2-1.9-1-1.9-1l-.5.6c-.1.1-.5-.2-.4-.3l.4-.5c-.1-.1-.4-.1-.5 0 0-.1.2-.4.7-.3 0-.3-.4-.2-.5-.2.1-.1.4-.4.8-.2l.2-.2-.3-.3.2-.3.2.3 1.7-2.4c0-.1.4-.2.5-.2v.5L21.9 66l.4.1-.3.5-.4-.2-.1.2zm6-.4c0 .2.1.5.4.4 0 .2-.5.5-.7.2-.2.4-.1.7.2.9v.1c-.1.2-.4.2-.6-.2-.3.2-.3.7-.1.9 0 0-.9.5-1.6.2-.5-.2-.9-.6-1.6-.5.1-.9.6-1.2 1.4-1.3.7-.1.8-.4.7-.7-.2-.1-.7.2-.7.2-.1-.1 0-.3 0-.3 0-.1-.1-.2-.1-.2.5 0 .6-.1.6-.1.1-.5-.4-.6-.8-.3-.2-.2-.1-.4-.1-.4s-.1-.1-.1-.2.6-.4.7-.5c0-.2.2-.4.9-.3.1-.2 0-.8-.1-.9 0 0 0-.1.1 0 .2.1.4.6.6.6 0 0 .7-.4.7-.3l.1.8c.1.1.6 0 .9.1.1 0 .1.1 0 .1-.2 0-.7.3-.8.4.2.4 0 1.1 0 1.3z" style="fill:#fff"/></svg>
