<svg width="32" height="32" viewBox="0 0 32 32" xmlns="http://www.w3.org/2000/svg">
<mask id="mask0_3976_27875" style="mask-type:alpha" maskUnits="userSpaceOnUse" x="0" y="0" width="32" height="32">
<rect width="32" height="32"/>
</mask>
<g mask="url(#mask0_3976_27875)">
<path d="M14.667 17.3333H8.00033C7.62255 17.3333 7.30588 17.2055 7.05033 16.95C6.79477 16.6944 6.66699 16.3777 6.66699 16C6.66699 15.6222 6.79477 15.3055 7.05033 15.05C7.30588 14.7944 7.62255 14.6666 8.00033 14.6666H14.667V7.99996C14.667 7.62218 14.7948 7.30551 15.0503 7.04996C15.3059 6.7944 15.6225 6.66663 16.0003 6.66663C16.3781 6.66663 16.6948 6.7944 16.9503 7.04996C17.2059 7.30551 17.3337 7.62218 17.3337 7.99996V14.6666H24.0003C24.3781 14.6666 24.6948 14.7944 24.9503 15.05C25.2059 15.3055 25.3337 15.6222 25.3337 16C25.3337 16.3777 25.2059 16.6944 24.9503 16.95C24.6948 17.2055 24.3781 17.3333 24.0003 17.3333H17.3337V24C17.3337 24.3777 17.2059 24.6944 16.9503 24.95C16.6948 25.2055 16.3781 25.3333 16.0003 25.3333C15.6225 25.3333 15.3059 25.2055 15.0503 24.95C14.7948 24.6944 14.667 24.3777 14.667 24V17.3333Z"/>
</g>
</svg>
