<svg width="28" height="29" viewBox="0 0 28 29"  xmlns="http://www.w3.org/2000/svg">
<path d="M10.9697 5.75838H12.725V7.51363C12.725 7.75601 12.9219 7.95288 13.1643 7.95288H14.9195C15.1619 7.95288 15.3588 7.75601 15.3588 7.51363V5.75838H17.114C17.3564 5.75838 17.5533 5.56151 17.5533 5.31913V3.56388C17.5533 3.32151 17.3564 3.12463 17.114 3.12463H15.3588V1.36938C15.3588 1.12701 15.1619 0.93013 14.9195 0.93013H13.1643C12.9219 0.93013 12.725 1.12701 12.725 1.36938V3.12463H10.9697C10.7274 3.12463 10.5305 3.32151 10.5305 3.56388V5.31913C10.5305 5.56151 10.7274 5.75838 10.9697 5.75838ZM21.9388 8.82963H6.14237C5.9 8.82963 5.70312 9.02651 5.70312 9.26888V28.1365H10.0913V24.626L11.8465 24.1868V28.1356H16.2346V24.6251L17.9899 24.1859V28.1348H22.378V9.26713C22.378 9.02476 22.182 8.82788 21.9388 8.82788V8.82963ZM12.725 11.9018H15.3579V14.5346H12.725V11.9018ZM12.725 16.289H15.3579V18.9219H12.725V16.289ZM8.33687 11.9018H10.9697V14.5346H8.33687V11.9018ZM8.33687 16.289H10.9697V18.9219H8.33687V16.289ZM18.8675 23.31H9.2145V21.5548H18.8675V23.31ZM19.7451 18.9219H17.1123V16.289H19.7451V18.9219ZM19.7451 14.5346H17.1123V11.9018H19.7451V14.5346Z" />
</svg>
