<svg width="32" height="32" viewBox="0 0 32 32" fill="none" xmlns="http://www.w3.org/2000/svg">
<mask id="mask0_392_1155" style="mask-type:alpha" maskUnits="userSpaceOnUse" x="0" y="0" width="32" height="32">
<rect width="32" height="32" fill="currentColor"/>
</mask>
<g mask="url(#mask0_392_1155)">
<path d="M14.523 28.6668C14.0683 28.6668 13.6757 28.5159 13.345 28.2142C13.0141 27.9126 12.8128 27.5413 12.741 27.1002L12.4153 24.6052C12.0582 24.4856 11.692 24.3182 11.3167 24.1028C10.9415 23.8873 10.6061 23.6565 10.3103 23.4105L7.99999 24.3925C7.5811 24.5772 7.16021 24.5951 6.73733 24.4462C6.31421 24.2975 5.98555 24.0275 5.75133 23.6362L4.24866 21.0308C4.01444 20.6395 3.94699 20.2254 4.04633 19.7885C4.14544 19.3518 4.37277 18.9916 4.72833 18.7078L6.72566 17.2078C6.69499 17.0096 6.67321 16.8105 6.66033 16.6105C6.64744 16.4105 6.64099 16.2113 6.64099 16.0128C6.64099 15.8233 6.64744 15.6306 6.66033 15.4348C6.67321 15.2391 6.69499 15.0249 6.72566 14.7925L4.72833 13.2925C4.37277 13.0087 4.14755 12.6463 4.05266 12.2052C3.95777 11.7643 4.02744 11.3481 4.26166 10.9565L5.75133 8.38983C5.98555 8.00694 6.31421 7.73905 6.73733 7.58616C7.16021 7.43305 7.5811 7.44883 7.99999 7.6335L10.2973 8.60283C10.6189 8.34816 10.9621 8.11527 11.327 7.90416C11.6919 7.69305 12.0504 7.52338 12.4027 7.39516L12.741 4.90016C12.8128 4.45905 13.0141 4.08772 13.345 3.78616C13.6757 3.48439 14.0683 3.3335 14.523 3.3335H17.477C17.9317 3.3335 18.3243 3.48439 18.655 3.78616C18.9859 4.08772 19.1872 4.45905 19.259 4.90016L19.5847 7.40783C19.9847 7.55316 20.3465 7.72283 20.6703 7.91683C20.9943 8.11083 21.3213 8.3395 21.6513 8.60283L24.013 7.6335C24.4317 7.44883 24.8525 7.43305 25.2757 7.58616C25.6988 7.73905 26.0273 8.00694 26.2613 8.38983L27.7513 10.9695C27.9855 11.3608 28.053 11.7749 27.9537 12.2118C27.8545 12.6485 27.6272 13.0087 27.2717 13.2925L25.223 14.8308C25.2708 15.0462 25.2969 15.2475 25.3013 15.4348C25.3055 15.6219 25.3077 15.8104 25.3077 16.0002C25.3077 16.1813 25.3033 16.3655 25.2947 16.5528C25.2862 16.7399 25.2555 16.9541 25.2027 17.1952L27.2127 18.7078C27.5682 18.9916 27.7978 19.3518 27.9013 19.7885C28.0047 20.2254 27.9392 20.6395 27.705 21.0308L26.1947 23.6232C25.9607 24.0147 25.63 24.2848 25.2027 24.4335C24.7753 24.5822 24.3522 24.5642 23.9333 24.3795L21.6513 23.3975C21.3213 23.6608 20.9845 23.8937 20.641 24.0962C20.2974 24.2988 19.9453 24.4643 19.5847 24.5925L19.259 27.1002C19.1872 27.5413 18.9859 27.9126 18.655 28.2142C18.3243 28.5159 17.9317 28.6668 17.477 28.6668H14.523ZM14.6667 26.6668H17.2873L17.7667 23.0952C18.4471 22.9174 19.0689 22.6648 19.632 22.3375C20.1953 22.0099 20.7385 21.5889 21.2617 21.0745L24.5743 22.4668L25.8873 20.2002L22.995 18.0208C23.1061 17.6755 23.1817 17.3369 23.2217 17.0052C23.2619 16.6736 23.282 16.3386 23.282 16.0002C23.282 15.6531 23.2619 15.3181 23.2217 14.9952C23.1817 14.6721 23.1061 14.3421 22.995 14.0052L25.9127 11.8002L24.6 9.5335L21.2487 10.9462C20.8024 10.4693 20.2679 10.0479 19.645 9.68216C19.0219 9.31639 18.3915 9.05739 17.754 8.90516L17.3333 5.3335H14.6873L14.246 8.8925C13.5658 9.05316 12.9377 9.29927 12.3617 9.63083C11.7854 9.96261 11.2358 10.3899 10.7127 10.9128L7.39999 9.5335L6.08733 11.8002L8.96666 13.9462C8.85555 14.2626 8.77777 14.5917 8.73333 14.9335C8.68888 15.2753 8.66666 15.6351 8.66666 16.0128C8.66666 16.3599 8.68888 16.7002 8.73333 17.0335C8.77777 17.3668 8.85133 17.6959 8.95399 18.0208L6.08733 20.2002L7.39999 22.4668L10.7 21.0668C11.206 21.5864 11.747 22.0121 12.323 22.3438C12.8992 22.6754 13.536 22.9301 14.2333 23.1078L14.6667 26.6668ZM16.0153 20.0002C17.1247 20.0002 18.0687 19.6108 18.8473 18.8322C19.626 18.0535 20.0153 17.1095 20.0153 16.0002C20.0153 14.8908 19.626 13.9468 18.8473 13.1682C18.0687 12.3895 17.1247 12.0002 16.0153 12.0002C14.8922 12.0002 13.9448 12.3895 13.173 13.1682C12.4012 13.9468 12.0153 14.8908 12.0153 16.0002C12.0153 17.1095 12.4012 18.0535 13.173 18.8322C13.9448 19.6108 14.8922 20.0002 16.0153 20.0002Z" fill="currentColor"/>
</g>
</svg>