<svg width="30" height="31" viewBox="0 0 30 31"  xmlns="http://www.w3.org/2000/svg">
<path d="M26.1386 16.9828C25.1195 16.9828 23.8248 17.4825 23.1573 17.7384C22.6651 17.3784 21.7473 16.9828 20.8745 16.9828C18.9554 16.9828 17.3945 18.5344 17.3945 20.4412C17.3945 21.5765 17.7123 22.3556 18.0198 23.1084C18.4389 24.1359 18.5232 24.3928 18.8064 26.295C19.0876 28.1887 19.3792 30.1472 21.2298 30.1472C22.6792 30.1472 23.1629 28.4081 23.5061 26.8565C23.8501 28.4081 24.3329 30.1472 25.7823 30.1472C27.6329 30.1472 27.9245 28.1887 28.2057 26.295C28.4889 24.3928 28.5723 24.1369 28.9923 23.1084C29.2998 22.3556 29.6176 21.5775 29.6176 20.4412C29.6176 18.5344 28.0567 16.9828 26.1376 16.9828H26.1386ZM27.6873 22.575C27.2186 23.7225 27.1079 24.0937 26.8117 26.0869C26.5436 27.8878 26.3551 28.7362 25.7832 28.7362C25.3557 28.7362 24.9414 26.8209 24.8054 26.1909C24.5354 24.9431 24.3404 24.0412 23.507 24.0412C22.6736 24.0412 22.4786 24.9431 22.2086 26.1909C22.0726 26.82 21.6582 28.7362 21.2307 28.7362C20.6589 28.7362 20.4704 27.8878 20.2023 26.0869C19.9079 24.104 19.7982 23.7309 19.3267 22.575C19.0473 21.8906 18.8064 21.3 18.8064 20.4412C18.8064 19.3594 19.6614 18.48 20.7367 18.4069C22.2245 18.3703 23.8539 19.8122 25.6398 19.7878C25.7964 19.7859 25.8686 19.7315 25.8526 19.665C25.8526 19.665 25.172 19.3397 24.2823 18.8053C24.8542 18.615 25.6417 18.3919 26.1386 18.3919C27.2795 18.3919 28.2076 19.3106 28.2076 20.4394C28.2076 21.2981 27.9667 21.8887 27.6873 22.5731V22.575ZM16.7148 23.6409C16.3895 22.845 15.9854 21.855 15.9845 20.4431C15.5804 21.0919 14.5726 22.7644 13.1101 23.7244C12.0282 22.9012 9.77355 21.1247 9.97699 19.4831C9.99855 19.3115 10.0117 19.1981 10.0229 19.1072C10.7429 19.5478 11.5361 19.7925 12.6929 19.7925C14.8351 19.7925 15.7323 18.96 17.2182 17.5819C17.5154 17.3062 17.8436 17.0015 18.2176 16.6697C18.407 16.5019 18.467 16.2309 18.3676 15.9994L18.1061 15.39C18.1342 15.194 18.182 14.8669 18.2176 14.6681C18.2495 14.49 18.2776 14.2284 18.3011 13.9612C18.3011 13.9594 18.302 13.9575 18.302 13.9556C18.9264 13.3819 19.2742 12.4669 19.2742 11.3437C19.2742 10.994 19.2751 10.0734 18.6976 9.44623C18.8401 7.87685 18.9395 5.44873 18.3273 4.46904C17.5736 3.26342 16.6586 2.67467 14.9129 3.06935C13.7682 2.52467 12.9882 2.18435 10.982 2.67467C9.58793 3.01498 8.06262 3.57092 7.25824 4.49904C6.48199 5.39529 6.53449 7.89467 6.65918 9.48467C6.11449 10.1109 6.11262 11.0015 6.11262 11.3447C6.11262 12.4659 6.45949 13.38 7.08199 13.9537C7.08387 13.965 7.08668 13.9762 7.08855 13.9875C7.11199 14.2453 7.13918 14.4965 7.16918 14.669C7.2048 14.8678 7.25262 15.1959 7.28074 15.3909L7.01918 16.0003C6.9198 16.2328 6.9798 16.5028 7.16918 16.6706C7.54324 17.0025 7.87043 17.3062 8.16762 17.5828C8.36449 17.7656 8.55105 17.9381 8.73105 18.1003C8.70762 18.2794 8.68418 18.4622 8.66074 18.6506C7.47949 18.9956 4.11387 20.0597 3.00293 21.2672C1.65199 22.7362 0.94043 28.2675 0.94043 28.2675H17.7414C17.5839 27.645 17.4892 27.0253 17.4123 26.5031C17.1442 24.704 17.0842 24.5475 16.7148 23.6428V23.6409ZM7.6473 12.3028C7.52168 11.9775 7.4748 11.6212 7.4748 11.3419C7.4748 10.7437 7.62574 10.4203 7.83855 10.32C8.02324 10.2337 8.20137 10.2975 8.3148 10.3612C8.38137 10.6678 8.43199 10.8965 8.45074 10.9772C8.5473 11.3775 8.93168 11.3409 8.93168 11.3409V8.17029C9.90668 8.09998 11.8436 7.81592 13.9857 6.70967L16.4542 8.36717V11.3409C16.4542 11.3409 16.8386 11.3775 16.9351 10.9772C16.9548 10.8965 17.0045 10.6687 17.0711 10.3612C17.1845 10.2975 17.3626 10.2328 17.5473 10.32C17.7601 10.4203 17.9111 10.7437 17.9111 11.3419C17.9111 11.6212 17.8642 11.9775 17.7386 12.3028C15.9423 12.3 14.8567 12.15 14.5136 11.8565C14.0429 11.4525 13.6323 10.8712 12.6929 10.8712C11.7536 10.8712 11.342 11.4534 10.8723 11.8575C10.5301 12.1509 9.44355 12.3009 7.6473 12.3037V12.3028ZM8.26512 16.0734L8.41418 15.7265L10.8695 16.379C10.8882 16.3575 10.9426 16.275 10.8198 16.1775L8.37012 14.7244C8.35512 14.6278 8.34012 14.5359 8.32699 14.4609C8.28949 14.249 8.25387 13.8394 8.22762 13.4728C10.3904 13.4297 11.1704 13.1503 11.6382 12.749C11.7507 12.6525 11.8548 12.5522 11.9551 12.4556C12.2645 12.1556 12.4136 12.0234 12.6948 12.0234C12.9761 12.0234 13.1242 12.1556 13.4336 12.4556C13.5339 12.5531 13.637 12.6534 13.7504 12.75C14.2192 13.1512 14.9992 13.4297 17.1611 13.4737C17.1348 13.8394 17.0992 14.25 17.0617 14.4609C17.0486 14.5359 17.0336 14.6278 17.0186 14.7244L14.5689 16.1775C14.4461 16.275 14.5004 16.3575 14.5192 16.379L16.9745 15.7265L17.1236 16.0734C16.8695 16.3031 16.6379 16.5187 16.4214 16.7203C14.9757 18.0619 14.3776 18.6169 12.6957 18.6169C11.0139 18.6169 10.4157 18.0609 8.96918 16.7194C8.75262 16.5187 8.52012 16.3031 8.26699 16.0734H8.26512Z" />
</svg>
