<svg width="48" height="48" viewBox="0 0 48 48" fill="none" xmlns="http://www.w3.org/2000/svg">
<path d="M23.6745 35.6569C30.0482 35.6569 35.2151 30.4952 35.2151 24.1279C35.2151 17.7606 30.0482 12.5989 23.6745 12.5989C17.3008 12.5989 12.1339 17.7606 12.1339 24.1279C12.1339 30.4952 17.3008 35.6569 23.6745 35.6569Z" fill="#1D336A"/>
<path d="M32.1081 27.9424C32.1081 27.8976 32.0908 27.8546 32.0598 27.8224C32.0287 27.7901 31.9864 27.7712 31.9416 27.7695H31.1402L30.8718 26.9635C30.8605 26.9273 30.8375 26.8958 30.8064 26.8739C30.7754 26.8519 30.738 26.8409 30.7 26.8423C30.6621 26.8438 30.6257 26.8577 30.5964 26.882C30.5671 26.9062 30.5467 26.9394 30.5382 26.9765L30.2743 27.7688H29.4806C29.4451 27.7687 29.4105 27.7794 29.3814 27.7996C29.3522 27.8198 29.33 27.8484 29.3177 27.8817C29.3053 27.9149 29.3035 27.9511 29.3125 27.9854C29.3214 28.0197 29.3407 28.0504 29.3677 28.0734L30.042 28.5896L29.791 29.3923C29.7801 29.4149 29.7744 29.4396 29.7742 29.4646C29.7742 29.4875 29.7787 29.5101 29.7875 29.5312C29.7962 29.5523 29.8091 29.5714 29.8253 29.5876C29.8414 29.6037 29.8606 29.6165 29.8818 29.6252C29.9029 29.6338 29.9256 29.6383 29.9484 29.6382C29.986 29.6381 30.0225 29.6256 30.0523 29.6027L30.7066 29.1013L31.3383 29.5859C31.3625 29.6103 31.3934 29.627 31.4271 29.6338C31.4608 29.6406 31.4957 29.6373 31.5275 29.6242C31.5593 29.6112 31.5865 29.589 31.6057 29.5604C31.6248 29.5319 31.6351 29.4983 31.6351 29.464C31.6351 29.4437 31.6314 29.4235 31.6242 29.4046L31.3712 28.5948L32.0358 28.0818C32.0581 28.0659 32.0762 28.045 32.0888 28.0208C32.1013 27.9966 32.108 27.9697 32.1081 27.9424Z" fill="#F1CC49"/>
<path d="M33.2297 23.7844C33.2297 23.7397 33.2125 23.6967 33.1816 23.6645C33.1507 23.6323 33.1085 23.6133 33.0639 23.6114H32.2624L31.9934 22.8055C31.982 22.7692 31.9591 22.7377 31.928 22.7158C31.897 22.6939 31.8596 22.6828 31.8216 22.6843C31.7837 22.6857 31.7472 22.6997 31.718 22.7239C31.6887 22.7482 31.6683 22.7814 31.6598 22.8184L31.3952 23.6114H30.6022C30.5794 23.6114 30.5568 23.6159 30.5357 23.6246C30.5147 23.6334 30.4955 23.6461 30.4794 23.6623C30.4633 23.6784 30.4505 23.6975 30.4418 23.7186C30.4331 23.7396 30.4286 23.7622 30.4286 23.785C30.4292 23.8099 30.4354 23.8344 30.4465 23.8567C30.4577 23.879 30.4736 23.8986 30.4931 23.914L31.1674 24.4303L30.9164 25.233C30.9058 25.2556 30.9003 25.2803 30.9003 25.3052C30.9001 25.3376 30.909 25.3693 30.926 25.3968C30.943 25.4244 30.9673 25.4466 30.9963 25.461C31.0253 25.4753 31.0577 25.4813 31.0899 25.4782C31.1221 25.4751 31.1527 25.463 31.1784 25.4433L31.8333 24.942L32.4644 25.4266C32.4886 25.4512 32.5195 25.468 32.5533 25.475C32.5871 25.482 32.6222 25.4787 32.6541 25.4656C32.6861 25.4525 32.7134 25.4302 32.7326 25.4015C32.7517 25.3728 32.762 25.3391 32.7619 25.3046C32.7616 25.2843 32.7577 25.2642 32.7503 25.2452L32.4941 24.4374L33.1587 23.9211C33.1804 23.9055 33.1981 23.8849 33.2104 23.8612C33.2227 23.8374 33.2293 23.8111 33.2297 23.7844Z" fill="#F1CC49"/>
<path d="M32.1076 19.7513C32.1076 19.7065 32.0903 19.6634 32.0592 19.6312C32.0282 19.5989 31.9858 19.58 31.9411 19.5783H31.1397L30.8713 18.7724C30.8599 18.7361 30.837 18.7046 30.8059 18.6827C30.7749 18.6608 30.7375 18.6497 30.6995 18.6512C30.6615 18.6526 30.6251 18.6666 30.5959 18.6908C30.5666 18.7151 30.5462 18.7483 30.5377 18.7853L30.2737 19.5777H29.4801C29.445 19.5783 29.411 19.5896 29.3826 19.61C29.3541 19.6304 29.3325 19.6589 29.3206 19.6919C29.3087 19.7248 29.3071 19.7606 29.316 19.7945C29.3249 19.8284 29.3438 19.8587 29.3704 19.8816L30.0447 20.3978L29.7937 21.2005C29.7828 21.2231 29.7771 21.2478 29.7769 21.2728C29.7769 21.2956 29.7814 21.3183 29.7902 21.3394C29.7989 21.3605 29.8118 21.3796 29.828 21.3958C29.8441 21.4119 29.8633 21.4247 29.8845 21.4333C29.9056 21.442 29.9283 21.4465 29.9511 21.4464C29.9887 21.4463 30.0252 21.4338 30.055 21.4109L30.7093 20.9095L31.341 21.3941C31.357 21.4105 31.3762 21.4236 31.3974 21.4325C31.4186 21.4413 31.4413 21.4458 31.4643 21.4457C31.4871 21.4458 31.5097 21.4414 31.5308 21.4327C31.5519 21.424 31.571 21.4112 31.5872 21.3951C31.6033 21.3789 31.6161 21.3598 31.6248 21.3387C31.6335 21.3176 31.6379 21.295 31.6378 21.2721C31.6378 21.2519 31.6341 21.2317 31.6269 21.2128L31.3707 20.4043L32.0353 19.8881C32.0572 19.8725 32.0751 19.852 32.0877 19.8282C32.1002 19.8045 32.107 19.7781 32.1076 19.7513Z" fill="#F1CC49"/>
<path d="M29.1122 16.7591C29.1122 16.7143 29.0949 16.6713 29.0638 16.639C29.0328 16.6068 28.9904 16.5878 28.9457 16.5861H28.1443L27.8752 15.7802C27.8639 15.7439 27.8409 15.7124 27.8099 15.6905C27.7788 15.6686 27.7414 15.6575 27.7035 15.659C27.6655 15.6605 27.6291 15.6744 27.5998 15.6986C27.5706 15.7229 27.5501 15.7561 27.5416 15.7931L27.277 16.5861H26.484C26.4486 16.586 26.4139 16.5967 26.3848 16.6169C26.3556 16.6371 26.3334 16.6657 26.3211 16.6989C26.3088 16.7322 26.307 16.7684 26.3159 16.8027C26.3248 16.837 26.3441 16.8677 26.3711 16.8907L27.0473 17.4043L26.7963 18.207C26.7857 18.2297 26.7802 18.2543 26.7802 18.2793C26.7801 18.3021 26.7845 18.3247 26.7932 18.3458C26.8019 18.3669 26.8147 18.3861 26.8308 18.4022C26.847 18.4184 26.8661 18.4312 26.8872 18.4399C26.9083 18.4485 26.9309 18.453 26.9538 18.4529C26.9913 18.4528 27.0279 18.4403 27.0576 18.4174L27.7113 17.9205L28.343 18.4051C28.3672 18.4295 28.3981 18.4462 28.4318 18.453C28.4655 18.4599 28.5004 18.4565 28.5322 18.4435C28.564 18.4304 28.5912 18.4082 28.6104 18.3797C28.6295 18.3511 28.6398 18.3176 28.6398 18.2832C28.6398 18.2629 28.6361 18.2428 28.6289 18.2238L28.3746 17.4114L29.0393 16.8984C29.0616 16.8827 29.0799 16.8618 29.0926 16.8376C29.1052 16.8133 29.112 16.7864 29.1122 16.7591Z" fill="#F1CC49"/>
<path d="M25.0287 15.6853C25.0286 15.6407 25.0113 15.5979 24.9804 15.5658C24.9495 15.5337 24.9074 15.5148 24.8629 15.513H24.0614L23.7924 14.7077C23.7811 14.6714 23.7582 14.6399 23.7272 14.6179C23.6962 14.5959 23.6588 14.5848 23.6209 14.5862C23.5829 14.5876 23.5465 14.6014 23.5172 14.6256C23.4879 14.6498 23.4673 14.6829 23.4588 14.7199L23.1942 15.513H22.4018C22.3664 15.513 22.3319 15.5238 22.3028 15.544C22.2738 15.5642 22.2517 15.5929 22.2394 15.6261C22.2272 15.6593 22.2254 15.6955 22.2344 15.7297C22.2434 15.7639 22.2626 15.7946 22.2895 15.8175L22.9638 16.3338L22.7128 17.1365C22.7022 17.1591 22.6967 17.1838 22.6967 17.2087C22.6966 17.2411 22.7055 17.2728 22.7224 17.3003C22.7394 17.3279 22.7638 17.3501 22.7927 17.3645C22.8217 17.3788 22.8541 17.3848 22.8863 17.3817C22.9185 17.3786 22.9491 17.3665 22.9748 17.3468L23.6278 16.8474L24.2589 17.332C24.2831 17.3566 24.314 17.3735 24.3478 17.3804C24.3816 17.3874 24.4167 17.3841 24.4486 17.371C24.4806 17.3579 24.5079 17.3356 24.527 17.307C24.5462 17.2783 24.5564 17.2445 24.5564 17.21C24.5561 17.1897 24.5522 17.1696 24.5448 17.1507L24.2905 16.3389L24.9551 15.8227C24.9773 15.8071 24.9954 15.7866 25.0082 15.7627C25.021 15.7388 25.028 15.7123 25.0287 15.6853Z" fill="#F1CC49"/>
<path d="M20.9117 16.7669C20.9116 16.7223 20.8942 16.6794 20.8631 16.6473C20.8321 16.6152 20.7899 16.5963 20.7452 16.5947H19.9438L19.6754 15.79C19.6641 15.7537 19.6412 15.7222 19.6102 15.7002C19.5792 15.6783 19.5418 15.6671 19.5039 15.6685C19.4659 15.6699 19.4295 15.6838 19.4002 15.7079C19.3709 15.7321 19.3504 15.7653 19.3418 15.8023L19.0772 16.5953H18.2835C18.2481 16.5953 18.2136 16.6061 18.1846 16.6263C18.1555 16.6466 18.1334 16.6752 18.1211 16.7084C18.1089 16.7416 18.1071 16.7778 18.1161 16.812C18.1251 16.8463 18.1443 16.8769 18.1713 16.8999L18.8456 17.4161L18.5933 18.2194C18.5828 18.2421 18.5773 18.2667 18.5771 18.2917C18.5771 18.324 18.5861 18.3556 18.6031 18.3831C18.6201 18.4105 18.6445 18.4326 18.6734 18.4469C18.7024 18.4612 18.7347 18.4671 18.7669 18.464C18.799 18.4609 18.8296 18.4488 18.8552 18.4292L19.5095 17.9278L20.1413 18.4124C20.1572 18.4289 20.1764 18.442 20.1976 18.4508C20.2188 18.4597 20.2415 18.4642 20.2645 18.464C20.2873 18.4641 20.3098 18.4597 20.3309 18.451C20.3519 18.4424 20.3711 18.4296 20.3872 18.4136C20.4033 18.3975 20.4161 18.3784 20.4249 18.3574C20.4336 18.3364 20.4381 18.3138 20.4381 18.2911C20.4378 18.2708 20.4341 18.2507 20.4271 18.2317L20.1729 17.42L20.8369 16.907C20.8597 16.8914 20.8784 16.8705 20.8914 16.8461C20.9045 16.8217 20.9114 16.7946 20.9117 16.7669Z" fill="#F1CC49"/>
<path d="M17.9991 19.7617C17.9991 19.7169 17.9818 19.6739 17.9508 19.6416C17.9197 19.6094 17.8774 19.5904 17.8326 19.5887H17.0312L16.7628 18.7828C16.7514 18.7465 16.7285 18.715 16.6974 18.6931C16.6664 18.6712 16.629 18.6601 16.591 18.6616C16.5531 18.6631 16.5166 18.677 16.4874 18.7012C16.4581 18.7255 16.4377 18.7587 16.4292 18.7957L16.1646 19.5887H15.3716C15.3361 19.5886 15.3015 19.5993 15.2724 19.6195C15.2432 19.6397 15.221 19.6683 15.2087 19.7015C15.1963 19.7348 15.1945 19.771 15.2035 19.8053C15.2124 19.8396 15.2317 19.8703 15.2587 19.8933L15.933 20.4095L15.682 21.2109C15.6711 21.2335 15.6654 21.2582 15.6652 21.2832C15.6652 21.306 15.6697 21.3287 15.6785 21.3498C15.6872 21.3709 15.7001 21.39 15.7162 21.4062C15.7324 21.4223 15.7516 21.4351 15.7728 21.4438C15.7939 21.4524 15.8166 21.4569 15.8394 21.4568C15.877 21.4567 15.9135 21.4442 15.9433 21.4213L16.5976 20.9199L17.2293 21.4045C17.2535 21.4289 17.2844 21.4456 17.3181 21.4524C17.3518 21.4592 17.3867 21.4559 17.4185 21.4428C17.4503 21.4298 17.4775 21.4076 17.4967 21.379C17.5158 21.3505 17.5261 21.3169 17.5261 21.2826C17.5261 21.2623 17.5224 21.2421 17.5152 21.2232L17.2609 20.4108L17.9256 19.8978C17.9476 19.8824 17.9657 19.8621 17.9785 19.8385C17.9912 19.8148 17.9983 19.7885 17.9991 19.7617Z" fill="#F1CC49"/>
<path d="M16.916 23.7917C16.9159 23.7472 16.8986 23.7044 16.8677 23.6723C16.8368 23.6402 16.7947 23.6213 16.7502 23.6194H15.9481L15.6791 22.8141C15.6678 22.7779 15.6449 22.7463 15.6139 22.7243C15.5829 22.7024 15.5455 22.6912 15.5076 22.6926C15.4696 22.694 15.4332 22.7079 15.4039 22.7321C15.3746 22.7562 15.354 22.7894 15.3454 22.8264L15.0809 23.6194H14.2891C14.2538 23.6194 14.2192 23.6302 14.1902 23.6505C14.1611 23.6707 14.139 23.6993 14.1268 23.7325C14.1145 23.7657 14.1128 23.8019 14.1217 23.8361C14.1307 23.8704 14.1499 23.901 14.1769 23.924L14.8512 24.4402L14.6002 25.2429C14.5895 25.2655 14.584 25.2902 14.584 25.3152C14.584 25.338 14.5885 25.3606 14.5972 25.3816C14.606 25.4027 14.6188 25.4218 14.6349 25.4379C14.651 25.454 14.6701 25.4668 14.6912 25.4755C14.7122 25.4843 14.7348 25.4888 14.7576 25.4888C14.7955 25.4887 14.8323 25.476 14.8621 25.4526L15.5171 24.9532L16.1482 25.4378C16.1723 25.4624 16.2033 25.4793 16.2371 25.4862C16.2709 25.4932 16.306 25.4899 16.3379 25.4768C16.3698 25.4637 16.3971 25.4414 16.4163 25.4128C16.4355 25.3841 16.4457 25.3503 16.4456 25.3158C16.4455 25.2955 16.4415 25.2754 16.434 25.2565L16.1798 24.4447L16.8444 23.9317C16.8665 23.9156 16.8844 23.8945 16.8968 23.8702C16.9093 23.8459 16.9159 23.819 16.916 23.7917Z" fill="#F1CC49"/>
<path d="M17.9991 27.9526C17.9991 27.9079 17.9818 27.8648 17.9508 27.8326C17.9197 27.8003 17.8774 27.7814 17.8326 27.7797H17.0312L16.7628 26.9738C16.7514 26.9375 16.7285 26.906 16.6974 26.8841C16.6664 26.8622 16.629 26.8511 16.591 26.8526C16.5531 26.854 16.5166 26.868 16.4874 26.8922C16.4581 26.9164 16.4377 26.9496 16.4292 26.9867L16.1646 27.7797H15.3716C15.3361 27.7795 15.3015 27.7903 15.2724 27.8105C15.2432 27.8306 15.221 27.8593 15.2087 27.8925C15.1963 27.9258 15.1945 27.962 15.2035 27.9963C15.2124 28.0306 15.2317 28.0613 15.2587 28.0843L15.933 28.6005L15.682 29.4058C15.6711 29.4283 15.6654 29.453 15.6652 29.4781C15.6652 29.5009 15.6697 29.5235 15.6785 29.5446C15.6872 29.5657 15.7001 29.5849 15.7162 29.601C15.7324 29.6171 15.7516 29.6299 15.7728 29.6386C15.7939 29.6473 15.8166 29.6517 15.8394 29.6516C15.877 29.6515 15.9135 29.6391 15.9433 29.6161L16.5976 29.1148L17.2293 29.5994C17.2535 29.6238 17.2844 29.6404 17.3181 29.6473C17.3518 29.6541 17.3867 29.6508 17.4185 29.6377C17.4503 29.6246 17.4775 29.6024 17.4967 29.5739C17.5158 29.5454 17.5261 29.5118 17.5261 29.4774C17.5261 29.4571 17.5224 29.437 17.5152 29.418L17.2609 28.6056L17.9256 28.0894C17.9477 28.074 17.9658 28.0536 17.9786 28.0298C17.9914 28.006 17.9984 27.9796 17.9991 27.9526Z" fill="#F1CC49"/>
<path d="M20.9558 30.9046C20.9555 30.86 20.9381 30.8171 20.9071 30.7849C20.8761 30.7527 20.834 30.7337 20.7893 30.7317H19.9879L19.7188 29.9225C19.7075 29.8863 19.6845 29.8547 19.6535 29.8328C19.6224 29.8109 19.585 29.7999 19.5471 29.8013C19.5091 29.8028 19.4727 29.8167 19.4434 29.841C19.4142 29.8652 19.3937 29.8984 19.3852 29.9354L19.1207 30.7285H18.3276C18.2816 30.7286 18.2376 30.747 18.2051 30.7795C18.1726 30.812 18.1542 30.8561 18.1541 30.902C18.1543 30.9267 18.1599 30.951 18.1705 30.9733C18.1811 30.9956 18.1964 31.0153 18.2154 31.0311L18.8897 31.5473L18.6386 32.35C18.6283 32.373 18.6228 32.3978 18.6225 32.4229C18.6225 32.4552 18.6315 32.4869 18.6485 32.5143C18.6655 32.5417 18.6899 32.5638 18.7188 32.5781C18.7478 32.5924 18.7801 32.5984 18.8123 32.5952C18.8444 32.5921 18.875 32.58 18.9006 32.5604L19.5549 32.059L20.186 32.5436C20.2101 32.5682 20.241 32.585 20.2748 32.592C20.3085 32.599 20.3435 32.5958 20.3754 32.5828C20.4073 32.5698 20.4346 32.5475 20.4539 32.519C20.4731 32.4904 20.4834 32.4567 20.4835 32.4223C20.4833 32.402 20.4795 32.3819 20.4725 32.3629L20.2183 31.5512L20.8822 31.035C20.9035 31.0202 20.9212 31.0008 20.9339 30.9782C20.9467 30.9556 20.9541 30.9305 20.9558 30.9046Z" fill="#F1CC49"/>
<path d="M25.0729 31.9741C25.0728 31.9295 25.0554 31.8866 25.0244 31.8545C24.9933 31.8224 24.9511 31.8035 24.9064 31.8018H24.1057L23.8366 30.9966C23.8255 30.9602 23.8028 30.9284 23.7718 30.9063C23.7408 30.8842 23.7034 30.873 23.6654 30.8744C23.6274 30.8758 23.5909 30.8898 23.5616 30.9141C23.5324 30.9384 23.512 30.9717 23.5036 31.0088L23.2391 31.8006H22.4454C22.41 31.8005 22.3755 31.8114 22.3464 31.8316C22.3174 31.8518 22.2953 31.8805 22.283 31.9137C22.2708 31.9469 22.269 31.983 22.278 32.0173C22.2869 32.0515 22.3062 32.0822 22.3331 32.1051L23.0074 32.6213L22.7564 33.4241C22.7457 33.4466 22.7402 33.4713 22.7403 33.4963C22.7403 33.5286 22.7493 33.5602 22.7663 33.5877C22.7833 33.6151 22.8077 33.6372 22.8366 33.6515C22.8655 33.6658 22.8979 33.6717 22.93 33.6686C22.9622 33.6655 22.9928 33.6534 23.0184 33.6338L23.6733 33.1324L24.3044 33.617C24.3204 33.6334 24.3396 33.6465 24.3608 33.6553C24.382 33.6642 24.4047 33.6687 24.4277 33.6686C24.4504 33.6687 24.473 33.6643 24.494 33.6556C24.5151 33.647 24.5342 33.6343 24.5504 33.6182C24.5665 33.6021 24.5793 33.583 24.588 33.562C24.5967 33.541 24.6012 33.5184 24.6012 33.4957C24.6013 33.4754 24.5976 33.4553 24.5903 33.4363L24.336 32.6271L25.0007 32.1142C25.023 32.0983 25.0412 32.0773 25.0538 32.0529C25.0664 32.0286 25.0729 32.0015 25.0729 31.9741Z" fill="#F1CC49"/>
<path d="M29.1122 30.8943C29.112 30.8497 29.0946 30.8068 29.0636 30.7747C29.0326 30.7426 28.9903 30.7237 28.9457 30.722H28.1443L27.8752 29.9167C27.8639 29.8805 27.841 29.8489 27.81 29.827C27.779 29.805 27.7417 29.7939 27.7037 29.7953C27.6658 29.7966 27.6293 29.8105 27.6 29.8347C27.5707 29.8589 27.5502 29.892 27.5416 29.929L27.277 30.722H26.484C26.4486 30.7219 26.4139 30.7326 26.3848 30.7528C26.3556 30.773 26.3334 30.8016 26.3211 30.8349C26.3088 30.8681 26.307 30.9043 26.3159 30.9386C26.3248 30.9729 26.3441 31.0036 26.3711 31.0266L27.0454 31.5428L26.7944 32.3455C26.7838 32.3681 26.7782 32.3928 26.7783 32.4178C26.7783 32.4638 26.7965 32.508 26.8291 32.5405C26.8616 32.5731 26.9058 32.5914 26.9518 32.5914C26.9894 32.5913 27.0259 32.5788 27.0557 32.5559L27.71 32.0545L28.3417 32.5391C28.3659 32.5635 28.3968 32.5802 28.4305 32.587C28.4642 32.5938 28.4992 32.5905 28.5309 32.5774C28.5627 32.5644 28.5899 32.5422 28.6091 32.5136C28.6282 32.4851 28.6385 32.4515 28.6386 32.4172C28.6385 32.3969 28.6348 32.3767 28.6276 32.3578L28.3733 31.5454L29.038 31.0324C29.0604 31.0169 29.0788 30.9963 29.0917 30.9723C29.1046 30.9483 29.1116 30.9216 29.1122 30.8943Z" fill="#F1CC49"/>
<path d="M25.3812 23.3687H25.3702V22.4654C25.3697 22.0301 25.1966 21.6129 24.8888 21.3052C24.5811 20.9974 24.1639 20.8243 23.7287 20.8238C23.5128 20.8236 23.299 20.866 23.0995 20.9485C22.9 21.0309 22.7187 21.1519 22.5659 21.3045C22.4132 21.457 22.292 21.6382 22.2093 21.8376C22.1266 22.037 22.084 22.2508 22.0839 22.4666V23.37C21.9111 23.3746 21.747 23.4464 21.6265 23.5702C21.506 23.694 21.4385 23.8599 21.4386 24.0327V26.8829C21.4388 27.0588 21.5088 27.2276 21.6333 27.3519C21.7578 27.4763 21.9266 27.5462 22.1026 27.5462H25.3838C25.5598 27.5462 25.7285 27.4763 25.853 27.3519C25.9775 27.2276 26.0476 27.0588 26.0477 26.8829V24.0321C26.0477 23.9447 26.0303 23.8582 25.9968 23.7776C25.9632 23.6969 25.914 23.6237 25.8521 23.5621C25.7902 23.5004 25.7167 23.4516 25.6359 23.4185C25.5551 23.3853 25.4685 23.3684 25.3812 23.3687ZM24.0519 25.7065V26.2331C24.0519 26.3157 24.0191 26.395 23.9606 26.4534C23.9022 26.5119 23.8229 26.5447 23.7403 26.5447C23.6576 26.5447 23.5783 26.5119 23.5199 26.4534C23.4614 26.395 23.4286 26.3157 23.4286 26.2331V25.7065C23.2899 25.6364 23.1788 25.5216 23.1134 25.3806C23.048 25.2396 23.032 25.0807 23.068 24.9295C23.104 24.7783 23.19 24.6437 23.312 24.5474C23.4339 24.451 23.5848 24.3986 23.7403 24.3986C23.8957 24.3986 24.0466 24.451 24.1686 24.5474C24.2905 24.6437 24.3765 24.7783 24.4125 24.9295C24.4486 25.0807 24.4326 25.2396 24.3671 25.3806C24.3017 25.5216 24.1907 25.6364 24.0519 25.7065ZM24.6669 23.3687H22.7891V22.397C22.7892 22.2737 22.8136 22.1518 22.8608 22.038C22.908 21.9242 22.9772 21.8208 23.0644 21.7337C23.1516 21.6467 23.2551 21.5776 23.3689 21.5306C23.4828 21.4835 23.6048 21.4593 23.728 21.4594C23.9767 21.4594 24.2153 21.5581 24.3912 21.734C24.5671 21.9098 24.6661 22.1482 24.6662 22.397L24.6669 23.3687Z" fill="white"/>
<path d="M21.738 46.6986C17.7023 46.3246 13.8419 44.8703 10.5625 42.4887C7.2831 40.1071 4.70577 36.8861 3.10141 33.1641C3.05091 33.0404 3.051 32.9017 3.10166 32.778C3.15232 32.6542 3.2495 32.5553 3.37232 32.5025C3.49514 32.4496 3.63379 32.4471 3.75846 32.4954C3.88312 32.5437 3.98385 32.6391 4.03899 32.7609C5.57037 36.3151 8.03095 39.3912 11.1621 41.6657C14.2933 43.9403 17.9793 45.3293 21.8329 45.6869C21.9626 45.6999 22.0824 45.7622 22.1676 45.8608C22.2529 45.9595 22.297 46.0871 22.2911 46.2173C22.2851 46.3476 22.2295 46.4706 22.1356 46.5611C22.0418 46.6515 21.9168 46.7026 21.7864 46.7038L21.738 46.6986Z" fill="#5FA7F3"/>
<path d="M26.1063 46.6854C25.98 46.6858 25.8581 46.6391 25.7644 46.5543C25.6707 46.4696 25.612 46.353 25.5998 46.2272C25.5859 46.0933 25.6256 45.9593 25.7102 45.8545C25.7949 45.7498 25.9176 45.6829 26.0515 45.6684C30.2256 45.2442 34.1849 43.6101 37.4432 40.9669C40.7015 38.3237 43.1169 34.7864 44.3927 30.7894C45.6685 26.7925 45.7492 22.51 44.6249 18.4678C43.5005 14.4257 41.2202 10.7999 38.0638 8.03577C38.0134 7.99173 37.9722 7.93819 37.9425 7.87822C37.9129 7.81825 37.8953 7.75301 37.8909 7.68625C37.8865 7.61949 37.8952 7.55251 37.9167 7.48915C37.9382 7.42578 37.9719 7.36726 38.016 7.31694C38.1055 7.21534 38.2316 7.15334 38.3667 7.14451C38.5018 7.13568 38.6348 7.18075 38.7368 7.26984C42.0407 10.1654 44.4275 13.9625 45.6041 18.1952C46.7807 22.4279 46.6959 26.912 45.3603 31.0972C44.0246 35.2824 41.4961 38.9867 38.0851 41.7553C34.6741 44.5239 30.529 46.2365 26.1586 46.6828C26.1412 46.6846 26.1238 46.6855 26.1063 46.6854Z" fill="#5FA7F3"/>
<path d="M23.8497 41.1388C14.5204 41.1388 6.93079 33.5562 6.93079 24.2366C6.93079 23.9927 6.93595 23.7501 6.94627 23.5088C6.95554 23.3762 7.01614 23.2525 7.1152 23.1639C7.21426 23.0753 7.34396 23.0289 7.47674 23.0344C7.60951 23.04 7.73489 23.0971 7.82621 23.1936C7.91754 23.2901 7.96761 23.4185 7.96579 23.5514C7.95611 23.7792 7.9516 24.0069 7.9516 24.2366C7.9516 32.9942 15.0831 40.1167 23.8497 40.1167C32.6163 40.1167 39.7484 32.9942 39.7484 24.2366C39.7491 21.526 39.0558 18.8603 37.7346 16.4934C37.672 16.3755 37.6581 16.2378 37.6958 16.1097C37.7336 15.9817 37.82 15.8735 37.9366 15.8085C38.0531 15.7434 38.1906 15.7266 38.3194 15.7616C38.4482 15.7967 38.5581 15.8808 38.6257 15.9959C40.0316 18.5149 40.7693 21.3519 40.7686 24.2366C40.7686 33.5562 33.1764 41.1388 23.8497 41.1388Z" fill="#5FA7F3"/>
<path d="M23.8504 38.4794C20.6542 38.4911 17.5486 37.4183 15.0412 35.4363C14.9347 35.3526 14.8657 35.23 14.8496 35.0955C14.8334 34.961 14.8714 34.8256 14.9551 34.7191C15.0387 34.6126 15.1613 34.5436 15.2958 34.5275C15.4303 34.5113 15.5657 34.5493 15.6723 34.6329C18.3912 36.7658 21.8359 37.7518 25.2715 37.3806C28.7071 37.0094 31.8618 35.3105 34.0624 32.6462C34.1499 32.5464 34.2728 32.4846 34.405 32.4739C34.5373 32.4632 34.6685 32.5044 34.7709 32.5888C34.8733 32.6733 34.9388 32.7942 34.9535 32.9261C34.9682 33.058 34.9309 33.1904 34.8496 33.2953C33.5133 34.9186 31.8337 36.2254 29.9318 37.1218C28.0299 38.0182 25.953 38.4818 23.8504 38.4794Z" fill="#5FA7F3"/>
<path d="M35.0914 40.2154C33.0011 41.6955 30.639 42.7481 28.1407 43.3129C25.6424 43.8776 23.0572 43.9433 20.5335 43.5063C20.4675 43.495 20.4043 43.4709 20.3477 43.4352C20.291 43.3995 20.2419 43.353 20.2032 43.2984C20.1644 43.2437 20.1369 43.182 20.122 43.1167C20.1072 43.0514 20.1054 42.9838 20.1167 42.9178C20.1279 42.8518 20.1521 42.7886 20.1877 42.732C20.2234 42.6753 20.2699 42.6263 20.3246 42.5876C20.3793 42.5489 20.441 42.5214 20.5063 42.5067C20.5716 42.4919 20.6392 42.4902 20.7052 42.5016C23.1845 42.925 25.7242 42.8394 28.1694 42.25C30.6146 41.6606 32.9143 40.5798 34.9285 39.0732C36.9427 37.5667 38.6292 35.666 39.8853 33.4868C41.1415 31.3076 41.941 28.8956 42.2352 26.3976C42.2509 26.2633 42.3194 26.1407 42.4255 26.0568C42.5316 25.973 42.6667 25.9347 42.8011 25.9505C42.9354 25.9662 43.058 26.0347 43.1418 26.1408C43.2257 26.2469 43.264 26.382 43.2482 26.5164C42.9263 29.2444 42.0337 31.8741 40.6283 34.2343C39.2229 36.5945 37.3364 38.6324 35.0914 40.2154Z" fill="#5FA7F3"/>
<path d="M17.3463 42.4499C17.278 42.4981 17.1989 42.5289 17.116 42.5393C17.033 42.5498 16.9488 42.5397 16.8707 42.5099C13.8323 41.356 11.1297 39.4625 9.00779 37.0007C6.88584 34.5389 5.41153 31.5866 4.7184 28.4113C4.02527 25.2359 4.13522 21.9378 5.03828 18.8157C5.94134 15.6936 7.60899 12.8461 9.89019 10.5311C9.91154 10.509 9.93487 10.4889 9.95988 10.4711C10.064 10.3985 10.1914 10.3674 10.3172 10.3837C10.443 10.4001 10.5582 10.4628 10.6403 10.5597C10.7223 10.6565 10.7653 10.7804 10.7608 10.9072C10.7564 11.034 10.7048 11.1546 10.6161 11.2454C8.45368 13.4397 6.87281 16.1388 6.01673 19.0982C5.16064 22.0576 5.05638 25.1838 5.71338 28.1937C6.37038 31.2036 7.76789 34.0021 9.77933 36.3355C11.7908 38.669 14.3526 40.4639 17.2327 41.5575C17.3192 41.5901 17.3952 41.6457 17.4525 41.7183C17.5098 41.7909 17.5463 41.8778 17.5579 41.9695C17.5696 42.0612 17.5561 42.1544 17.5188 42.2391C17.4815 42.3237 17.4218 42.3966 17.3463 42.4499Z" fill="#5FA7F3"/>
<path d="M42.9033 21.4951C42.8412 21.5395 42.7696 21.5689 42.6942 21.5809C42.5609 21.6031 42.4243 21.5716 42.3142 21.4932C42.2041 21.4148 42.1296 21.296 42.107 21.1628C41.6079 18.2303 40.4108 15.4609 38.6168 13.0881C36.8228 10.7153 34.4845 8.80871 31.7991 7.52918C29.1137 6.24965 26.16 5.63469 23.1871 5.73616C20.2142 5.83764 17.3093 6.65257 14.7174 8.11223C14.6035 8.17602 14.4696 8.19373 14.3431 8.16174C14.2166 8.12974 14.1072 8.05047 14.0374 7.94024C13.9677 7.83001 13.9428 7.69722 13.968 7.5692C13.9931 7.44119 14.0664 7.32769 14.1727 7.25209C14.1867 7.24231 14.2011 7.23327 14.216 7.22499C16.9503 5.68349 20.0154 4.82248 23.1525 4.71467C26.2896 4.60686 29.4066 5.2554 32.2403 6.60555C35.0741 7.95569 37.5414 9.96781 39.434 12.472C41.3265 14.9762 42.5888 17.8991 43.1143 20.9937C43.13 21.0887 43.1185 21.1861 43.0811 21.2748C43.0438 21.3636 42.9821 21.4399 42.9033 21.4951Z" fill="#5FA7F3"/>
<path d="M12.4538 32.4255C12.3703 32.4256 12.288 32.4051 12.2142 32.366C12.1404 32.3268 12.0773 32.2702 12.0305 32.201C10.05 29.2653 9.23477 25.6969 9.74388 22.1924C10.253 18.6879 12.0499 15.499 14.7839 13.2482C14.8355 13.2055 14.895 13.1735 14.959 13.1538C15.023 13.1341 15.0902 13.1272 15.1569 13.1336C15.2235 13.1399 15.2883 13.1593 15.3475 13.1906C15.4066 13.222 15.4591 13.2647 15.5017 13.3163C15.5444 13.3679 15.5765 13.4274 15.5961 13.4914C15.6158 13.5554 15.6227 13.6226 15.6164 13.6893C15.61 13.756 15.5906 13.8207 15.5593 13.8799C15.5279 13.9391 15.4852 13.9915 15.4336 14.0341C12.8953 16.1238 11.2269 19.0845 10.7541 22.3381C10.2812 25.5918 11.0379 28.9048 12.8764 31.6306C12.9143 31.6861 12.9409 31.7485 12.9545 31.8143C12.9681 31.8801 12.9686 31.948 12.9559 32.014C12.9432 32.08 12.9175 32.1428 12.8804 32.1988C12.8433 32.2548 12.7955 32.3029 12.7397 32.3404C12.6551 32.3968 12.5555 32.4264 12.4538 32.4255Z" fill="#5FA7F3"/>
<path d="M36.5498 30.0149C36.4833 30.015 36.4175 30.0016 36.3562 29.9756C36.2945 29.9499 36.2384 29.9123 36.1913 29.8649C36.1441 29.8175 36.1067 29.7612 36.0813 29.6994C36.0559 29.6375 36.0429 29.5713 36.0431 29.5044C36.0434 29.4375 36.0568 29.3713 36.0826 29.3097C36.7515 27.7024 37.0944 25.9781 37.0912 24.2372C37.0912 16.9457 31.1547 11.0144 23.8555 11.0144C22.0454 11.0107 20.254 11.3804 18.5933 12.1004C18.5295 12.1285 18.4605 12.143 18.3907 12.143C18.2733 12.1433 18.1594 12.1031 18.0683 12.0292C17.9771 11.9553 17.9142 11.8522 17.8903 11.7373C17.8663 11.6224 17.8827 11.5028 17.9367 11.3986C17.9908 11.2944 18.0791 11.212 18.1868 11.1654C19.9758 10.3896 21.9055 9.99112 23.8555 9.99487C31.7161 9.99487 38.1114 16.383 38.1114 24.2372C38.1146 26.1124 37.7452 27.9695 37.0247 29.7007C36.9858 29.7944 36.9199 29.8743 36.8352 29.9303C36.7506 29.9863 36.6513 30.0158 36.5498 30.0149Z" fill="#5FA7F3"/>
<path d="M1.77539 24.7477C1.64024 24.7476 1.51068 24.6938 1.41512 24.5982C1.31956 24.5027 1.2658 24.3731 1.26562 24.238C1.26563 11.7972 11.3963 1.67619 23.85 1.67619C27.5634 1.67663 31.2197 2.59027 34.4969 4.33663C34.597 4.39036 34.6762 4.47597 34.7221 4.57987C34.7679 4.68377 34.7778 4.80002 34.7501 4.91016C34.7224 5.0203 34.6587 5.11802 34.5691 5.18783C34.4795 5.25764 34.3691 5.29554 34.2556 5.2955C34.1715 5.29577 34.0888 5.27491 34.0149 5.23484C30.8854 3.56761 27.3939 2.69562 23.8481 2.69572C11.9577 2.69572 2.28386 12.3592 2.28386 24.238C2.28369 24.3729 2.2301 24.5023 2.13482 24.5978C2.03954 24.6933 1.91031 24.7472 1.77539 24.7477Z" fill="#5FA7F3"/>
<path d="M8.83484 18.1299C8.76399 18.1298 8.69392 18.115 8.629 18.0867C8.5057 18.0316 8.40928 17.9299 8.36089 17.8039C8.3125 17.6778 8.3161 17.5377 8.37089 17.4143C9.48342 14.9004 11.1913 12.6953 13.3471 10.9894C15.5028 9.28344 18.0415 8.1281 20.7437 7.62316C23.446 7.11822 26.2306 7.27887 28.8569 8.09122C31.4831 8.90358 33.8721 10.3432 35.8173 12.2857C35.9098 12.3819 35.9608 12.5105 35.9594 12.644C35.9581 12.7774 35.9045 12.9049 35.8101 12.9993C35.7158 13.0936 35.5882 13.1472 35.4548 13.1485C35.3214 13.1499 35.1928 13.0989 35.0966 13.0065C33.2684 11.1812 31.0234 9.82848 28.5553 9.06521C26.0873 8.30194 23.4706 8.15107 20.9312 8.62564C18.3918 9.1002 16.0061 10.1859 13.9803 11.789C11.9545 13.3921 10.3495 15.4643 9.30395 17.8266C9.26356 17.9172 9.19771 17.9941 9.11443 18.0479C9.03115 18.1018 8.93401 18.1302 8.83484 18.1299Z" fill="#5FA7F3"/>
<path d="M36.4763 6.46891C36.7468 6.46891 36.9661 6.24964 36.9661 5.97915C36.9661 5.70867 36.7468 5.4894 36.4763 5.4894C36.2058 5.4894 35.9866 5.70867 35.9866 5.97915C35.9866 6.24964 36.2058 6.46891 36.4763 6.46891Z" fill="#6BA6F1"/>
<path d="M36.9552 14.8344C37.2257 14.8344 37.445 14.6152 37.445 14.3447C37.445 14.0742 37.2257 13.8549 36.9552 13.8549C36.6847 13.8549 36.4655 14.0742 36.4655 14.3447C36.4655 14.6152 36.6847 14.8344 36.9552 14.8344Z" fill="#6BA6F1"/>
<path d="M42.9385 24.2773C43.209 24.2773 43.4282 24.058 43.4282 23.7875C43.4282 23.517 43.209 23.2977 42.9385 23.2977C42.668 23.2977 42.4487 23.517 42.4487 23.7875C42.4487 24.058 42.668 24.2773 42.9385 24.2773Z" fill="#6BA6F1"/>
<path d="M35.6395 31.8085C35.91 31.8085 36.1293 31.5892 36.1293 31.3187C36.1293 31.0483 35.91 30.829 35.6395 30.829C35.3691 30.829 35.1498 31.0483 35.1498 31.3187C35.1498 31.5892 35.3691 31.8085 35.6395 31.8085Z" fill="#6BA6F1"/>
<path d="M24.0341 46.7495C24.3046 46.7495 24.5238 46.5302 24.5238 46.2597C24.5238 45.9892 24.3046 45.77 24.0341 45.77C23.7636 45.77 23.5443 45.9892 23.5443 46.2597C23.5443 46.5302 23.7636 46.7495 24.0341 46.7495Z" fill="#6BA6F1"/>
<path d="M18.6505 43.0435C18.921 43.0435 19.1403 42.8243 19.1403 42.5538C19.1403 42.2833 18.921 42.064 18.6505 42.064C18.38 42.064 18.1608 42.2833 18.1608 42.5538C18.1608 42.8243 18.38 43.0435 18.6505 43.0435Z" fill="#6BA6F1"/>
<path d="M13.7454 33.9594C14.0159 33.9594 14.2351 33.7402 14.2351 33.4697C14.2351 33.1992 14.0159 32.9799 13.7454 32.9799C13.4749 32.9799 13.2556 33.1992 13.2556 33.4697C13.2556 33.7402 13.4749 33.9594 13.7454 33.9594Z" fill="#6BA6F1"/>
<path d="M2.25758 29.4172C2.52807 29.4172 2.74734 29.1979 2.74734 28.9274C2.74734 28.6569 2.52807 28.4376 2.25758 28.4376C1.98709 28.4376 1.76782 28.6569 1.76782 28.9274C1.76782 29.1979 1.98709 29.4172 2.25758 29.4172Z" fill="#6BA6F1"/>
<path d="M7.76234 20.9309C8.03283 20.9309 8.2521 20.7116 8.2521 20.4411C8.2521 20.1707 8.03283 19.9514 7.76234 19.9514C7.49185 19.9514 7.27258 20.1707 7.27258 20.4411C7.27258 20.7116 7.49185 20.9309 7.76234 20.9309Z" fill="#6BA6F1"/>
<path d="M16.6148 12.9222C16.8852 12.9222 17.1045 12.7029 17.1045 12.4324C17.1045 12.1619 16.8852 11.9427 16.6148 11.9427C16.3443 11.9427 16.125 12.1619 16.125 12.4324C16.125 12.7029 16.3443 12.9222 16.6148 12.9222Z" fill="#6BA6F1"/>
<path d="M12.0679 9.45594C12.3384 9.45594 12.5576 9.23667 12.5576 8.96618C12.5576 8.6957 12.3384 8.47643 12.0679 8.47643C11.7974 8.47643 11.5781 8.6957 11.5781 8.96618C11.5781 9.23667 11.7974 9.45594 12.0679 9.45594Z" fill="#6BA6F1"/>
</svg>
