<svg width="261" height="151" viewBox="0 0 261 151" fill="none" xmlns="http://www.w3.org/2000/svg">
<path d="M4.69879 150.071C2.11906 150.071 0 147.952 0 145.373C0.0921332 137.541 1.75053 121.51 12.5301 111.283C34.55 90.3691 41.2757 93.9623 55.4642 76.3649C63.0191 66.9673 63.2034 55.0821 69.0078 44.3946C77.484 28.732 95.3579 25.5994 110.283 29.1926C125.209 32.7858 139.213 41.4464 154.323 44.0261C167.406 46.2373 181.318 43.5654 194.217 48.08C209.05 53.2394 215.592 65.1246 221.12 81.2479C224.713 91.8432 228.767 102.254 241.573 111.744C253.366 120.497 257.697 136.344 259.908 144.359C260.737 147.307 258.526 150.164 255.485 150.164H4.69879V150.071Z" fill="#E0F5F7"/>
<path fill-rule="evenodd" clip-rule="evenodd" d="M124.287 128.328V150.164H86.5127C86.7891 147.123 87.434 143.807 88.4475 140.674C89.3688 137.726 90.6587 134.87 92.225 132.474C92.5014 132.106 92.7778 131.645 93.0542 131.276C93.1463 131.092 93.3306 130.908 93.4227 130.724C93.5148 130.539 93.6991 130.355 93.7912 130.263C94.2519 129.71 94.8047 129.157 95.2654 128.697C95.3575 128.605 95.5418 128.42 95.6339 128.328H124.287V128.328Z" fill="#004CBB"/>
<path d="M120.787 150.072L119.866 129.802L119.773 128.789V128.328H141.056L141.148 128.42C147.229 134.501 151.652 140.398 154.784 150.072H120.787Z" fill="#004CBB"/>
<path d="M92.1328 132.474L136.265 128.328H124.195H119.773H95.5417C94.344 129.434 93.2384 130.816 92.1328 132.474Z" fill="#0034B0"/>
<path fill-rule="evenodd" clip-rule="evenodd" d="M115.258 0.999986C115.258 0.999986 85.5914 0.26292 89.6452 50.107H139.858C139.858 50.107 142.622 -0.750546 115.258 0.999986Z" fill="black"/>
<path d="M134.146 59.0439C143.728 62.3607 158.562 94.4231 158.562 94.4231L175.054 70.2842L186.202 74.3381C186.202 74.3381 181.503 94.6995 168.144 109.349C165.103 112.758 158.285 113.955 153.402 112.021C144.65 108.519 141.333 97.095 141.333 97.095L134.146 70.9291V59.0439Z" fill="#FF9D12"/>
<path d="M157.179 91.5669C158.008 93.3174 158.561 94.423 158.561 94.423L156.626 98.4769C156.626 98.4769 156.35 94.7916 157.179 91.5669Z" fill="#EC8A12"/>
<path fill-rule="evenodd" clip-rule="evenodd" d="M150.546 88.4343C150.546 86.2231 149.901 84.1041 148.703 82.3535C147.505 80.5109 146.768 78.3918 146.308 76.2727C144.557 67.5201 138.292 60.0573 129.539 57.109L124.841 55.4506L106.875 55.2664L101.254 57.5697C90.1063 60.0573 82.6436 72.4031 86.0525 86.9602L92.1333 125.011C92.5018 127.038 94.2523 128.789 96.2793 128.789H139.305C141.517 128.789 143.267 127.407 143.451 125.195L145.755 97.5555C148.703 95.6207 150.546 92.2118 150.546 88.4343Z" fill="#FFB512"/>
<path d="M98.5824 83.0906L90.014 75.5356C89.9219 75.7199 89.7376 75.9963 89.5533 76.1806C89.0005 76.7334 88.2635 77.194 87.6185 77.5626C87.25 77.7468 86.9736 77.9311 86.6051 78.2075C86.5129 78.2996 86.4208 78.2996 86.3287 78.3918C86.2365 78.4839 86.2365 78.4839 86.1444 78.576C86.1444 78.576 86.1444 78.6682 86.0523 78.6682C85.868 78.9446 85.5916 79.0367 85.3152 79.0367C85.2231 81.6164 85.4073 84.2883 86.0523 87.0523L92.1331 125.103C92.5016 127.13 94.2521 128.881 96.2791 128.881H97.5689C100.978 123.445 111.481 105.479 111.481 105.479L98.5824 83.0906Z" fill="#FF9D12"/>
<path d="M103.65 57.7542C103.65 102.255 84.4863 146.939 84.4863 146.939" stroke="#008ECC" stroke-width="5.5818" stroke-miterlimit="10" stroke-linecap="round"/>
<path fill-rule="evenodd" clip-rule="evenodd" d="M139.95 70.2842L146.676 59.781C149.071 56.0957 153.862 54.898 157.64 57.1092L164.642 61.163C165.379 61.5316 165.655 62.4529 165.379 63.19C165.01 64.0192 164.089 64.4798 163.26 64.1113L156.903 61.6237L157.456 64.2034C157.732 65.4933 157.64 66.7832 157.179 67.9809C155.981 71.2056 152.665 73.1404 149.256 72.4954L146.584 75.7201L139.95 70.2842Z" fill="#FF7254"/>
<path d="M85.2236 79.0369C85.5 85.0256 96.556 101.794 105.124 110.178C107.981 112.942 112.771 114.692 119.681 110.178C130.093 103.268 140.043 87.3289 145.479 80.1425C147.229 77.747 147.321 74.5224 145.571 72.1269C143.175 68.8101 138.385 68.4416 135.528 71.2977L115.075 94.2389L99.2279 64.8484L85.2236 79.0369Z" fill="#FFB512"/>
<path d="M134.791 71.7583L115.074 94.2388L100.333 66.8752" stroke="#FFCA55" stroke-width="1.6712" stroke-miterlimit="10" stroke-linecap="round" stroke-linejoin="round"/>
<path d="M104.756 111.007C107.704 113.679 112.771 114.877 119.774 110.27C133.778 101.057 147.69 78.1155 147.69 78.1155" stroke="#FF9D12" stroke-width="1.6712" stroke-miterlimit="10"/>
<path d="M115.074 94.2388C113.6 95.7129 113.14 97.4634 113.14 97.4634" stroke="#FFCA55" stroke-width="1.6712" stroke-miterlimit="10" stroke-linecap="round" stroke-linejoin="round"/>
<path d="M114.614 93.5017L111.481 94.8837" stroke="#FFCA55" stroke-width="1.6712" stroke-miterlimit="10" stroke-linecap="round" stroke-linejoin="round"/>
<path fill-rule="evenodd" clip-rule="evenodd" d="M107.611 52.0417L123.827 52.4102L120.51 30.7589L106.229 26.9814L107.611 52.0417Z" fill="#FF7254"/>
<path fill-rule="evenodd" clip-rule="evenodd" d="M121.708 38.4061L122.998 46.8823L111.021 37.8533L121.708 38.4061Z" fill="#F15A37"/>
<path fill-rule="evenodd" clip-rule="evenodd" d="M125.301 56.5563L124.196 48.8171H106.69V56.5563H125.301Z" fill="#FFB512"/>
<path fill-rule="evenodd" clip-rule="evenodd" d="M133.317 28.9164C132.949 35.1814 130.461 39.6038 122.998 40.9858C122.906 40.9858 122.814 41.0779 122.722 41.0779C122.169 41.1701 118.76 41.4465 117.655 41.2622C113.693 40.8015 109.731 38.8667 106.414 36.1028C105.585 35.3657 104.756 34.6286 104.019 33.7994C103.742 33.523 103.466 33.2466 103.19 32.8781C102.821 32.5096 102.545 32.0489 102.268 31.6804C102.084 31.404 101.9 31.1276 101.715 30.8512C100.241 28.5478 99.1357 25.9681 98.8593 23.3884C98.1223 17.7682 98.4908 13.438 100.057 10.1212C100.978 8.00211 102.36 6.43585 104.203 5.23812C105.217 4.59319 106.322 4.04039 107.612 3.57972C108.165 3.39545 108.718 3.21119 109.363 3.11905C109.915 3.02692 110.468 2.84265 111.113 2.75052H111.205C111.297 2.75052 111.297 2.75052 111.389 2.75052C111.942 2.65839 112.587 2.65839 113.232 2.56625C113.969 2.47412 114.706 2.47412 115.443 2.47412C115.996 2.47412 116.457 2.47412 116.917 2.56625C116.917 2.56625 116.917 2.56625 117.01 2.56625C117.102 2.56625 117.194 2.56625 117.286 2.56625C117.47 2.56625 117.562 2.65839 117.747 2.65839C118.207 2.75052 118.668 2.84265 119.129 2.93479C119.221 2.93479 119.221 3.02692 119.313 3.02692C119.681 3.11905 120.142 3.30332 120.511 3.39545C120.879 3.48759 121.156 3.67185 121.524 3.76399C121.893 3.85612 122.261 4.13252 122.63 4.31679C122.998 4.50105 123.275 4.68532 123.551 4.86958C124.472 5.42238 125.302 6.06732 126.039 6.89652C126.223 7.08078 126.407 7.26505 126.591 7.44932C126.684 7.54145 126.868 7.72572 126.96 7.90998C130.461 11.8717 132.58 17.4918 133.133 23.2962C133.133 23.5726 133.225 23.849 133.225 24.0333C133.409 25.7838 133.409 27.3501 133.317 28.9164Z" fill="#FF7254"/>
<path fill-rule="evenodd" clip-rule="evenodd" d="M111.021 2.84277C110.468 3.76411 106.23 7.44944 106.046 11.4112C105.677 17.7684 105.493 26.0604 101.715 30.8513C100.241 28.5479 99.1357 25.9682 98.8593 23.3885C98.1223 17.7684 98.4908 13.4381 100.057 10.1213C100.978 8.00223 102.36 6.43597 104.203 5.23824C105.217 4.5933 106.322 4.04051 107.612 3.57984C108.165 3.39557 108.718 3.21131 109.363 3.11917C109.823 3.02704 110.468 2.84277 111.021 2.84277Z" fill="black"/>
<path d="M104.295 27.6266C106.483 27.6266 108.256 25.8529 108.256 23.6649C108.256 21.4769 106.483 19.7031 104.295 19.7031C102.107 19.7031 100.333 21.4769 100.333 23.6649C100.333 25.8529 102.107 27.6266 104.295 27.6266Z" fill="#FF7254"/>
<path fill-rule="evenodd" clip-rule="evenodd" d="M113.232 2.56625C113.969 2.56625 114.706 2.47412 115.443 2.47412C116.088 2.47412 116.641 2.47412 117.285 2.56625C117.47 2.56625 117.562 2.65839 117.746 2.65839C118.207 2.75052 118.667 2.84265 119.128 2.93479C119.22 2.93479 119.22 2.93479 119.312 3.02692C122.353 3.85612 124.933 5.60665 127.052 7.90998C124.288 12.793 105.216 19.5188 105.308 19.7952L103.558 5.60665C106.229 3.39545 109.915 3.02692 111.205 2.84265C111.297 2.84265 111.389 2.84265 111.389 2.84265C111.942 2.65839 112.587 2.65839 113.232 2.56625Z" fill="black"/>
<path d="M126.96 31.2196C126.96 31.2196 126.131 32.4174 123.735 32.3252C121.064 32.141 120.511 30.5747 120.511 30.5747" stroke="black" stroke-width="1.1239" stroke-miterlimit="10"/>
<path d="M92.8707 146.11L92.6865 150.164H73.707L73.8913 145.373C73.9834 142.425 76.471 140.213 79.4193 140.306L87.0663 140.582H87.8955C88.0798 140.582 88.3562 140.582 88.5405 140.674C91.0281 141.043 92.9629 143.346 92.8707 146.11Z" fill="#008ECC"/>
<path fill-rule="evenodd" clip-rule="evenodd" d="M187.768 60.1495L189.334 50.844C189.518 49.7384 188.873 48.7249 187.768 48.5407C186.57 48.2643 185.28 49.0935 184.912 50.2912L183.161 56.0956L187.768 60.1495Z" fill="#F15A37"/>
<path d="M165.103 71.2056H175.053C177.08 71.2056 179.292 69.5472 180.029 67.5202L187.676 44.3948C188.321 42.3679 187.215 40.7095 185.188 40.7095H175.238C173.211 40.7095 171 42.3679 170.262 44.3948L162.615 67.5202C161.97 69.5472 163.076 71.2056 165.103 71.2056Z" fill="#004CBB"/>
<path d="M166.946 71.2056H176.896C178.923 71.2056 181.134 69.5472 181.871 67.5202L189.518 44.3948C190.163 42.3679 189.058 40.7095 187.031 40.7095H177.08C175.053 40.7095 172.842 42.3679 172.105 44.3948L164.458 67.5202C163.813 69.5472 164.919 71.2056 166.946 71.2056Z" fill="black"/>
<path fill-rule="evenodd" clip-rule="evenodd" d="M185.464 74.8908L188.044 66.4146C189.518 60.9787 187.859 57.8462 185.556 56.372L178.277 51.8575C177.264 51.2126 175.79 51.6733 175.145 52.7789C174.592 53.7923 174.776 54.9901 175.698 55.5429L179.015 57.754L174.408 54.6215C173.487 53.9766 172.105 54.3451 171.367 55.3586C170.723 56.2799 170.907 57.5698 171.828 58.1226L176.988 61.5315L172.934 58.7675C172.105 58.2147 170.815 58.4911 170.17 59.4124C169.617 60.2416 169.709 61.4394 170.538 61.9922L176.619 66.5988L175.145 72.0347L185.464 74.8908Z" fill="#FF7254"/>
<path d="M165.563 84.1042L175.053 70.2842L186.201 74.338C186.201 74.338 184.543 82.1694 179.291 92.5804C174.777 89.6322 170.262 86.8682 165.563 84.1042Z" fill="#FF9D12"/>
<path d="M186.662 26.7974V32.786C186.662 33.5231 187.399 33.7995 187.86 33.3388L194.401 26.7974H186.662Z" fill="#38CE77"/>
<path d="M184.451 27.9951H199.469C201.772 27.9951 203.707 26.1524 203.707 23.757V8.83139C203.707 6.52806 201.864 4.59326 199.469 4.59326H184.451C182.148 4.59326 180.213 6.43593 180.213 8.83139V23.757C180.305 26.1524 182.148 27.9951 184.451 27.9951Z" fill="#38CE77"/>
<path d="M198.363 12.793L191.269 20.9928L186.662 15.4648" stroke="white" stroke-width="2.3246" stroke-miterlimit="10" stroke-linecap="round" stroke-linejoin="round"/>
</svg>
