<svg width="12" height="13" viewBox="0 0 12 13" fill="none" xmlns="http://www.w3.org/2000/svg">
<path d="M9.75567 6.74355C9.71555 6.83992 9.63905 6.94455 9.52655 7.05705L4.4498 12.1338C4.3533 12.2303 4.25279 12.2987 4.1483 12.3389C4.04379 12.3792 3.92317 12.4033 3.78642 12.4113C3.64967 12.4193 3.52505 12.3952 3.41255 12.3389C3.30005 12.2827 3.19542 12.2144 3.09904 12.1338L2.53242 11.5672C2.43592 11.4707 2.36354 11.3582 2.31529 11.2297C2.26704 11.1012 2.24292 10.9845 2.24292 10.8798C2.24292 10.743 2.26704 10.6224 2.31529 10.5179C2.36367 10.4133 2.43604 10.309 2.53242 10.2044L6.27079 6.38167L2.54479 2.66767C2.45629 2.57917 2.38792 2.47067 2.33967 2.34217C2.29142 2.21367 2.26729 2.09705 2.26729 1.9923C2.26729 1.85555 2.29142 1.73492 2.33967 1.63042C2.38804 1.5258 2.45629 1.42155 2.54479 1.31692L3.11142 0.629548C3.20792 0.533048 3.30842 0.460673 3.41292 0.412423C3.51742 0.364173 3.64204 0.344048 3.78679 0.352048C3.93154 0.360048 4.05617 0.380173 4.16067 0.412423C4.2653 0.444673 4.36954 0.517048 4.47417 0.629548L9.51454 5.7303C9.61904 5.8268 9.69542 5.9233 9.74367 6.0198C9.79204 6.11617 9.81604 6.23692 9.81604 6.38167C9.81604 6.52642 9.79592 6.64705 9.75567 6.74355Z"/>
</svg>
