<svg width="16" height="16" viewBox="0 0 16 16" fill="none" xmlns="http://www.w3.org/2000/svg">
<path d="M8.03602 6.0037L2.94012 1.47927C2.67662 1.24492 2.3691 1.12774 2.01756 1.12774C1.66603 1.12774 1.35365 1.25463 1.08044 1.50842C0.836368 1.77192 0.709475 2.07944 0.69976 2.43097C0.690198 2.78251 0.807225 3.09488 1.0513 3.3681L5.57572 8.464L1.0513 13.5599C0.816939 13.8234 0.69976 14.1309 0.69976 14.4825C0.69976 14.834 0.826653 15.1415 1.08044 15.405C1.34394 15.6588 1.65631 15.7857 2.01756 15.7857C2.37866 15.7857 2.69104 15.6732 2.95469 15.4487L8.03556 10.9243L13.1315 15.4487C13.395 15.6831 13.7073 15.7954 14.0686 15.7857C14.4298 15.776 14.7374 15.6491 14.9911 15.405C15.2352 15.1415 15.3572 14.834 15.3572 14.4825C15.3572 14.1309 15.2352 13.8235 14.9911 13.5599L10.4959 8.464L15.0203 3.3681C15.2546 3.1046 15.3718 2.79222 15.3718 2.43097C15.3718 2.06972 15.2401 1.7622 14.9766 1.50842C14.7228 1.26435 14.4201 1.13745 14.0686 1.12774C13.7171 1.11818 13.4047 1.2352 13.1315 1.47927C11.433 2.98742 9.7345 4.49556 8.03556 6.0037H8.03602Z"/>
</svg>
