<svg width="35" height="35" viewBox="0 0 35 35" xmlns="http://www.w3.org/2000/svg">
<path d="M20.8814 14.3555C23.4156 14.3555 25.0551 13.0561 25.0551 10.6477C25.0551 8.53016 23.327 7.19797 20.3323 7.19797H17.6832C16.5862 7.19797 15.9114 6.69922 15.1053 6.16656C14.3429 5.64375 13.4001 5.33203 12.3851 5.33203C12.3643 5.33203 12.3425 5.33203 12.3217 5.33203H12.325H8.93543C8.9584 5.63281 9.00543 5.90953 9.07434 6.1775L9.06668 6.14359C9.13777 6.40172 9.14871 6.47281 9.22528 6.69266C9.97231 8.26437 11.5265 9.34172 13.3378 9.39094H13.3443H20.7326C22.0659 9.39094 22.5975 9.94 22.5975 10.7898C22.5975 11.6397 22.0878 12.1341 20.6834 12.1341H18.4893V10.9714C18.4915 10.9484 18.4926 10.9211 18.4926 10.8927C18.4926 10.4016 18.0945 10.0045 17.6045 10.0045C17.5859 10.0045 17.5673 10.0056 17.5487 10.0067H17.5509C17.5421 10.0067 17.5323 10.0067 17.5225 10.0067C17.0172 10.0067 16.607 10.4169 16.607 10.9222C16.607 10.9342 16.607 10.9452 16.6081 10.9572V10.955V12.1177H14.2992C12.3906 12.1341 10.5531 13.2311 10.5531 15.4252C10.5531 18.1125 12.9495 19.0017 14.7597 19.0017H16.6901V21.2888H15.977C15.9726 21.2888 15.9661 21.2888 15.9606 21.2888C14.2729 21.2888 12.9057 22.657 12.9057 24.3436C12.9057 24.3491 12.9057 24.3556 12.9057 24.3611V24.36C12.9057 26.3342 14.7104 27.3711 15.9661 27.5745L15.9387 25.4789C15.4782 25.3608 15.1381 24.9605 15.1107 24.4781V24.4748C15.1107 24.465 15.1097 24.453 15.1097 24.4409C15.1097 23.9378 15.5089 23.5266 16.0087 23.5091H16.0109H16.7404L16.8225 30.2881C16.8225 30.2947 16.8225 30.3023 16.8225 30.31C16.8225 31.1106 17.4656 31.7625 18.264 31.7745H18.2651L18.3089 27.8141H18.6053C19.7023 27.8414 21.7039 28.0831 21.7039 30.9345C23.1356 27.2048 21.0892 26.0312 18.835 25.8661H18.3362V23.5244H19.0876C21.6054 23.5244 23.0645 22.027 23.0645 20.1567C23.0645 18.3794 21.6765 16.9203 19.2582 16.8656V19.0597H19.2965C20.4428 19.0597 20.8704 19.5803 20.8704 20.2387C20.8704 20.8972 20.1847 21.2702 19.6148 21.3358H18.3865L18.4631 14.3806L20.8814 14.3555ZM12.5612 7.40687C12.2036 7.40687 11.9137 7.11703 11.9137 6.75937C11.9137 6.40172 12.2036 6.11187 12.5612 6.11187C12.9189 6.11187 13.2087 6.40172 13.2087 6.75937C13.2087 7.11703 12.9189 7.40687 12.5612 7.40687ZM14.5245 16.8241C13.5915 16.8241 12.9178 16.3363 12.9123 15.5575C12.9068 14.7788 13.5434 14.3566 14.4534 14.3566H16.6475L16.6748 16.8252L14.5245 16.8241ZM9.14871 7.62563C7.5584 7.62563 7.02574 7.34562 7.04215 6.69266H7.01481C6.75121 7.50969 7.42059 8.09156 8.39184 8.09156V8.14625C7.06403 8.14625 6.85074 9.10109 7.18543 9.73656H7.21278C7.12528 8.82656 7.52012 8.55203 9.34668 8.55203H12.1215V7.62563H9.14871Z"/>
</svg>
