<svg width="28" height="29" viewBox="0 0 28 29"  xmlns="http://www.w3.org/2000/svg">
<path d="M21.0613 6.63578H7.0202C6.53545 6.63578 6.14258 7.02866 6.14258 7.51341V28.1363H12.7243V24.1874H15.3572V28.1363H21.939V7.51341C21.939 7.02866 21.5461 6.63578 21.0613 6.63578ZM10.97 21.1162H8.33708V18.4833H10.97V21.1162ZM10.97 16.728H8.33708V14.0952H10.97V16.728ZM10.97 12.3399H8.33708V9.70703H10.97V12.3399ZM15.3572 21.1162H12.7243V18.4833H15.3572V21.1162ZM15.3572 16.728H12.7243V14.0952H15.3572V16.728ZM15.3572 12.3399H12.7243V9.70703H15.3572V12.3399ZM19.7453 21.1162H17.1125V18.4833H19.7453V21.1162ZM19.7453 16.728H17.1125V14.0952H19.7453V16.728ZM19.7453 12.3399H17.1125V9.70703H19.7453V12.3399ZM10.7022 5.18503C11.1388 5.18503 11.5133 5.14828 11.9132 5.06866V3.12616H10.5797V3.72816H11.2001V4.55153C11.0216 4.56991 10.9175 4.57603 10.7328 4.57603C10.0442 4.57603 9.47895 4.10878 9.47895 3.16816C9.47895 2.19691 10.0565 1.71128 10.8615 1.71128C11.1808 1.71128 11.4083 1.72353 11.74 1.77253L11.7951 1.14603C11.5125 1.09091 11.2543 1.06641 10.8851 1.06641C9.6557 1.06641 8.70283 1.76116 8.70283 3.24253C8.70283 4.53316 9.51395 5.18503 10.7005 5.18503H10.7022ZM14.603 5.18503C15.0396 5.18503 15.4141 5.14828 15.814 5.06866V3.12616H14.4805V3.72816H15.1008V4.55153C14.9223 4.56991 14.8182 4.57603 14.6336 4.57603C13.945 4.57603 13.3797 4.10878 13.3797 3.16816C13.3797 2.19691 13.9572 1.71128 14.7631 1.71128C15.0825 1.71128 15.31 1.72353 15.6425 1.77253L15.6976 1.14603C15.415 1.09091 15.1568 1.06641 14.7876 1.06641C13.5582 1.06641 12.6053 1.76116 12.6053 3.24253C12.6053 4.53316 13.4165 5.18503 14.603 5.18503ZM19.1556 4.52703H17.2437V4.50253L19.1433 1.70603V1.11016H16.507V1.72441H18.2955V1.74891L16.3967 4.54541V5.14128H19.1565L19.1556 4.52703Z" />
</svg>
