<svg width="30" height="30" viewBox="0 0 30 30"  xmlns="http://www.w3.org/2000/svg">
<path d="M6.49104 21.1977C6.44791 20.7262 6.48541 20.2968 6.58572 19.9049C5.68854 20.309 4.86354 20.7749 4.4126 21.2662C3.06166 22.7352 2.3501 28.2665 2.3501 28.2665H5.9876C5.97729 28.2468 5.96322 28.2318 5.95479 28.2102C5.86572 27.9852 3.88291 22.9124 6.49104 21.1977ZM14.1392 23.7712V23.7037C14.1298 23.7102 14.1204 23.7177 14.111 23.7243C13.0292 22.9011 11.1832 21.1246 11.3867 19.483C11.4982 18.584 11.4063 19.2252 11.7738 16.9265C10.7032 15.8924 9.84447 14.639 9.84447 13.1371C9.08416 12.8999 8.88447 11.9408 8.88447 11.3418C8.88447 10.7427 9.03541 10.4202 9.24822 10.3199C9.43291 10.2337 9.61104 10.2974 9.72447 10.3612C9.79104 10.6677 9.84166 10.8965 9.86041 10.9771C9.95697 11.3774 10.3413 11.3408 10.3413 11.3408V8.17021C11.3163 8.0999 13.2532 7.81584 15.3954 6.70959L17.8638 8.36709V11.3408C17.8638 11.3408 18.2482 11.3774 18.3448 10.9771C18.3645 10.8965 18.4142 10.6686 18.4807 10.3612C18.5942 10.2974 18.7723 10.2327 18.957 10.3199C19.1698 10.4202 19.3207 10.7436 19.3207 11.3418C19.3207 11.9399 19.122 12.8999 18.3607 13.1371C18.3607 14.878 17.1701 16.1905 15.8501 17.3137C15.4835 17.6258 14.7926 17.834 14.1017 17.833C13.602 17.833 13.1023 17.698 12.7254 17.5349C13.0142 17.9727 13.5035 18.5099 14.411 18.7499C15.8942 19.1427 16.9779 18.3205 16.9779 18.3205C16.9779 18.3205 17.111 19.2196 17.1073 19.4558C17.1195 19.5871 17.1138 19.7183 17.0998 19.8515L18.4273 18.6543C18.356 18.1499 18.2651 17.5818 18.1826 17.1018C19.0235 16.0827 19.5401 15.0308 19.7107 13.9536C20.3351 13.3799 20.6829 12.4649 20.6829 11.3418C20.6829 10.9921 20.6838 10.0715 20.1063 9.44428C20.2488 7.8749 20.3482 5.44678 19.736 4.46709C18.9823 3.26146 18.0673 2.67271 16.3217 3.0674C15.177 2.52271 14.397 2.1824 12.3907 2.67271C10.9967 3.01303 9.47135 3.56896 8.66697 4.49709C7.89072 5.39334 7.94322 7.89271 8.06791 9.48271C7.52322 10.109 7.52135 10.9996 7.52135 11.3427C7.52135 12.464 7.86822 13.378 8.49072 13.9518C8.66979 15.133 9.24916 16.2618 10.2354 17.3661C10.1857 17.7458 10.1276 18.1883 10.0695 18.6505C9.83416 18.719 9.52666 18.7987 9.13572 18.9393C8.64354 19.1165 7.76135 19.3837 7.73604 20.744C8.19635 20.6943 8.65572 20.7702 9.09541 20.9727C11.2582 21.9712 12.3054 25.6462 12.3485 25.8018C12.5454 26.5058 11.4438 26.9896 10.7454 27.208C10.1923 27.3815 10.0282 27.1236 9.89791 26.7458C9.76854 26.3699 9.82479 26.1233 10.3123 25.8252C10.4763 25.7249 10.691 25.6105 10.9207 25.5196C10.5148 24.418 9.66354 22.634 8.56385 22.1258C8.17666 21.9468 7.80541 21.9524 7.39479 22.1427C5.7926 22.8833 6.53041 25.8749 6.9326 27.1555C7.1576 27.0608 7.38822 26.9933 7.57291 26.9512C8.11854 26.8265 8.32666 26.9633 8.49354 27.3196C8.71572 27.794 8.65104 28.0227 8.1401 28.2693H15.5126V25.4202C14.7317 25.2796 14.1382 24.5952 14.1382 23.7749L14.1392 23.7712ZM28.4763 22.9968L22.2748 17.4036C22.1745 17.3118 22.0207 17.3118 21.9204 17.4036L15.7188 22.9968C15.611 23.0962 15.5492 23.2358 15.5492 23.3821V23.7702C15.5492 23.9146 15.6663 24.0318 15.8107 24.0318H16.9235V29.6755H27.266V24.0318H28.3826C28.527 24.0318 28.6442 23.9146 28.6442 23.7702V23.3821C28.6442 23.2358 28.5832 23.0962 28.4754 22.9968H28.4763ZM23.9763 27.3252H20.2151V24.5043H23.9763V27.3252Z" />
</svg>
