<svg width="10" height="18" viewBox="0 0 10 18" fill="none" xmlns="http://www.w3.org/2000/svg">
<path d="M8.64847 6.90569C8.47835 7.20177 8.20606 7.50352 7.83159 7.81094C7.57059 8.016 7.13382 8.31191 6.52077 8.69919L5.24382 9.31438C4.90324 9.41673 4.64224 9.62746 4.46082 9.94656C4.31329 10.1856 4.22824 10.4475 4.20565 10.7323C4.17176 10.96 4.21712 11.1707 4.34171 11.3645C4.36447 11.6492 4.44971 11.9111 4.59688 12.1502L2.043 12.2697C1.77053 12.0307 1.56053 11.7402 1.413 11.3985C1.23159 11.034 1.14088 10.6526 1.14088 10.2542C1.11829 9.96941 1.15235 9.69599 1.24306 9.43391C1.33376 9.17183 1.47 8.9441 1.65176 8.75072C2.02606 8.15838 2.53112 7.72594 3.16694 7.45235L4.57994 6.66663C4.99994 6.42757 5.38006 6.14282 5.72029 5.81238C5.83394 5.66434 5.91335 5.49912 5.95853 5.31672C6.00371 5.13433 6.015 4.95211 5.99241 4.77007C5.96982 4.565 5.90171 4.37145 5.78806 4.18941C5.67441 4.00737 5.52688 3.86499 5.34547 3.76228C4.78924 3.47753 4.20476 3.358 3.59206 3.40369C2.99065 3.38102 2.39488 3.42653 1.80476 3.54022C1.18059 3.74528 0.579176 4.00135 0 4.30894V1.4046C0.703765 1.13118 1.43012 0.914784 2.17906 0.755409C2.928 0.596034 3.68276 0.51068 4.44335 0.499347C5.079 0.47668 5.70318 0.550701 6.31588 0.721409C6.92859 0.892118 7.49029 1.15402 8.001 1.50713C8.421 1.8829 8.74447 2.32702 8.97141 2.8395C9.19853 3.35216 9.306 3.89882 9.29488 4.47947C9.30618 5.34506 9.09053 6.15362 8.64794 6.90516L8.64847 6.90569ZM1.566 14.6274C1.65671 14.3653 1.79294 14.1319 1.97471 13.9272C2.15647 13.7225 2.38341 13.5631 2.65553 13.4491C2.92765 13.3351 3.19994 13.278 3.47241 13.278C3.75618 13.2554 4.02847 13.2895 4.28929 13.3806C4.55012 13.4716 4.78271 13.6083 4.98706 13.7907C5.19141 14.0184 5.33894 14.2747 5.42965 14.5594C5.52035 14.8442 5.54312 15.1402 5.49794 15.4477C5.52053 15.7211 5.49212 15.9886 5.41271 16.2504C5.33329 16.5121 5.19141 16.7513 4.98706 16.9681C4.78271 17.1848 4.55576 17.3386 4.30624 17.4292C4.05671 17.5199 3.78441 17.5711 3.48935 17.5828C3.21688 17.6054 2.95024 17.5712 2.68941 17.4802C2.42859 17.3892 2.196 17.2525 1.99165 17.0701C1.78729 16.8537 1.63976 16.6031 1.54906 16.3184C1.45853 16.0336 1.42994 15.743 1.46382 15.4471C1.44124 15.1624 1.47529 14.889 1.566 14.6269V14.6274Z" />
</svg>
