<svg width="200" height="181" viewBox="0 0 200 181" fill="none" xmlns="http://www.w3.org/2000/svg">
<style>:root{--hair-color:black;}@media(prefers-color-scheme:dark){:root{--hair-color: #404040;}}</style>
<path d="M54.8623 5.56177H2.55371V80.962H54.8623V5.56177Z" fill="#E1F6F8"/>
<path d="M24.4662 47.5285C25.0721 45.9221 25.375 44.2153 25.375 42.3077C25.375 38.7937 24.1633 35.4805 22.0426 32.8701C20.3259 30.6613 19.5181 27.7497 20.225 25.039C20.4269 24.2358 20.5279 23.4326 20.5279 22.529C20.5279 16.4046 15.1759 11.5854 8.91499 12.2882C6.39044 12.5894 4.06786 13.7942 2.45215 15.6014V80.8612H29.2123C30.6261 78.2508 31.434 75.3392 31.6359 72.2268C31.9389 66.2028 29.8182 60.6809 26.0819 56.6649C23.9613 54.2553 23.2544 50.6409 24.4662 47.5285Z" fill="#C2EDF1"/>
<path d="M28.708 0.541748V86.7851" stroke="white" stroke-width="1.027" stroke-miterlimit="10"/>
<path d="M0.432617 30.5615H57.5884" stroke="white" stroke-width="1.027" stroke-miterlimit="10"/>
<path d="M0.432617 56.0625H57.5884" stroke="white" stroke-width="1.027" stroke-miterlimit="10"/>
<path d="M114.844 180.459C161.636 180.459 199.568 179.65 199.568 178.651C199.568 177.653 161.636 176.844 114.844 176.844C68.0522 176.844 30.1201 177.653 30.1201 178.651C30.1201 179.65 68.0522 180.459 114.844 180.459Z" fill="#E1F6F8"/>
<path d="M66.6755 109.275H36.6839C33.9573 109.275 31.6348 111.484 31.6348 114.295V157.868C31.6348 160.579 33.8564 162.888 36.6839 162.888H66.5745C69.301 162.888 71.6236 160.68 71.6236 157.868V114.295C71.6236 111.484 69.402 109.275 66.6755 109.275Z" fill="#CBF0F3"/>
<path d="M78.4908 109.275H50.0139C47.2874 109.275 44.9648 111.484 44.9648 114.295V157.868C44.9648 160.579 47.1864 162.888 50.0139 162.888H78.4908C81.2173 162.888 83.5399 160.68 83.5399 157.868V114.295C83.4389 111.484 81.2173 109.275 78.4908 109.275Z" fill="#97E0E7"/>
<path d="M140.594 162.186L141.604 167.406L143.623 177.547C143.724 178.25 144.33 178.752 145.037 178.752H147.158C147.965 178.752 148.672 178.049 148.672 177.246V162.186H140.594Z" fill="#008FCD"/>
<path d="M148.672 162.186H140.594L141.503 166.603L148.672 166.704V162.186Z" fill="#0069D1"/>
<path d="M176.645 162.185H184.723V177.245C184.723 178.048 184.016 178.751 183.208 178.751H181.088C180.381 178.751 179.775 178.249 179.674 177.546L176.645 162.185Z" fill="#004CBC"/>
<path d="M87.6801 162.185H79.6016V177.245C79.6016 178.048 80.3084 178.751 81.1163 178.751H83.2369C83.9438 178.751 84.5497 178.249 84.6507 177.546L87.6801 162.185Z" fill="#004CBC"/>
<path d="M43.5508 162.186V177.246C43.5508 178.049 44.2577 178.752 45.0655 178.752H47.1861C47.893 178.752 48.4989 178.25 48.5999 177.547L50.6195 167.406L51.6293 162.186H43.5508Z" fill="#008FCD"/>
<path d="M51.0234 165.398L51.6293 162.186H43.5508V165.298L51.0234 165.398Z" fill="#0069D1"/>
<path d="M183.713 136.985L192.701 98.1303C194.114 91.5039 188.257 84.2751 182.097 84.2751H101.11C94.9501 84.2751 88.7902 89.1947 87.3765 95.3191L77.7832 136.885H183.713V136.985Z" fill="#CBF0F3"/>
<path d="M174.019 84.2751H90.4059C84.246 84.2751 78.0861 89.1947 76.6724 95.3191L67.0791 136.885H173.009L182.602 95.3191C184.016 89.1947 180.179 84.2751 174.019 84.2751Z" fill="#CBF0F3"/>
<path d="M84.3468 133.371H62.1308C60.4141 133.371 59.0003 132.166 58.5964 130.56L55.264 116.303C54.7591 114.094 56.0719 112.387 58.2935 112.387H78.8938C81.1154 112.387 83.236 114.094 83.7409 116.303L86.9723 130.058C87.3763 131.765 86.0635 133.371 84.3468 133.371Z" fill="white"/>
<path d="M155.842 133.471H41.9346V162.888H155.842V133.471Z" fill="#CBF0F3"/>
<path d="M125.143 93.9136L145.945 82.8696L143.522 96.1224C143.522 96.1224 127.668 104.757 122.316 103.853C116.661 102.849 113.429 82.97 112.823 78.2512C112.722 77.6489 113.126 77.1468 113.631 76.9461L119.387 75.2393L125.143 93.9136Z" fill="#79D4E7"/>
<path d="M114.238 78.5526H113.733C112.925 78.5526 112.319 77.9502 112.117 77.2474L111.107 71.4243C110.905 70.4203 111.309 69.4163 112.117 68.7135L113.733 67.3079L114.742 69.4163L114.238 78.5526Z" fill="#FF7254"/>
<path d="M121.104 79.3558H115.449C114.641 79.3558 113.935 78.7534 113.834 77.9502L113.632 76.8458L111.713 65.5007V65.2999C111.612 64.4967 112.117 63.8943 112.925 63.8943H118.58C119.388 63.8943 120.094 64.4967 120.195 65.1995V65.5007L122.114 76.8458L122.316 77.8498C122.417 78.7534 121.811 79.3558 121.104 79.3558Z" fill="black"/>
<path d="M121.508 77.1471H114.742L112.925 66.304H119.691L121.508 77.1471Z" fill="#38BFDB"/>
<path d="M112.218 68.7137L113.026 68.1113C113.43 67.8101 114.036 67.9105 114.339 68.4125C114.541 68.8141 114.44 69.3161 114.137 69.6173L112.319 71.0229L111.915 69.5169L112.218 68.7137Z" fill="#FF7254"/>
<path d="M112.318 70.8217L113.227 70.1189C113.631 69.8177 114.237 69.9181 114.54 70.4201C114.742 70.8217 114.641 71.3237 114.338 71.6249L112.52 73.0305L112.116 71.5245L112.318 70.8217Z" fill="#FF7254"/>
<path d="M112.52 72.7296L113.429 72.0269C113.833 71.7257 114.439 71.826 114.742 72.328C114.944 72.7296 114.843 73.2316 114.54 73.5328L112.722 74.9384L112.318 73.4324L112.52 72.7296Z" fill="#FF7254"/>
<path d="M122.518 74.9384L122.013 76.4444L121.609 74.2356L119.792 72.7296C119.388 72.4284 119.388 71.826 119.59 71.5248C119.893 71.1232 120.398 71.1232 120.801 71.324L121.811 72.1272C122.417 72.6292 122.619 73.332 122.518 74.0348V74.9384Z" fill="#FF7254"/>
<path d="M144.431 83.8735L132.616 101.343C136.05 99.9375 139.382 98.3311 141.402 97.2267L144.431 83.8735Z" fill="#38BFDB"/>
<path d="M159.78 81.6648H150.49C145.744 81.6648 139.786 86.3836 139.483 89.8976C139.18 92.6084 141.503 95.2188 141.503 95.2188L131.606 123.531H164.325L165.132 111.785C166.546 105.962 167.758 96.8252 168.364 92.4076C168.869 88.5924 167.152 84.7772 163.921 82.8696C162.507 82.1668 161.093 81.6648 159.78 81.6648Z" fill="#79D4E7"/>
<path fill-rule="evenodd" clip-rule="evenodd" d="M152.307 87.2872C155.034 87.6888 158.77 84.978 160.689 83.3716C161.194 82.97 161.295 82.2672 160.992 81.7652C160.588 81.6648 160.184 81.6648 159.78 81.6648H150.49C150.086 81.6648 149.783 81.6648 149.379 81.7652C148.975 82.0664 148.773 82.5684 148.773 82.97C148.672 83.8736 149.379 86.7852 152.307 87.2872Z" fill="#FF7254"/>
<path d="M105.654 169.012L104.645 172.024C104.241 173.329 103.13 174.333 101.817 174.835L98.0807 176.141C97.5758 176.341 97.1719 176.843 97.1719 177.345C97.1719 178.048 97.7778 178.651 98.4846 178.651H107.573C108.785 178.651 109.795 177.847 109.997 176.643L111.41 170.418L105.654 169.012Z" fill="#004CBC"/>
<path d="M109.289 175.438C108.077 175.438 107.067 176.442 107.067 177.647C107.067 178.048 107.168 178.349 107.269 178.651H107.572C108.784 178.651 109.794 177.847 109.996 176.643L110.198 175.639C109.996 175.538 109.693 175.438 109.289 175.438Z" fill="#326FC9"/>
<path d="M89.5983 141.704L86.6698 144.314C85.9629 144.917 85.0541 145.318 84.0443 145.218L79.3991 145.117C78.7932 145.117 78.2883 145.419 77.9853 146.021C77.6824 146.724 78.0863 147.627 78.8942 147.828L86.8718 150.539C88.0835 150.941 89.4973 150.639 90.3051 149.635L94.2434 145.318L89.5983 141.704Z" fill="#004CBC"/>
<path d="M90.3052 149.736L90.7091 149.234C90.3052 148.431 89.4974 147.929 88.5885 148.029C87.3767 148.129 86.3669 149.133 86.4679 150.439V150.539L86.8718 150.639C88.0836 150.941 89.3964 150.639 90.3052 149.736Z" fill="#326FC9"/>
<path d="M146.35 133.471H124.942C124.942 133.471 123.124 139.596 120.599 147.828C120.498 148.129 120.397 148.431 120.297 148.832C117.57 157.567 114.238 164.294 111.612 171.322L104.947 169.816C106.361 161.683 107.371 156.764 108.785 147.828C109.491 142.909 110.4 137.889 111.41 132.568C112.42 129.254 113.834 126.744 115.651 124.837C117.671 122.829 120.095 121.524 122.821 120.72C126.961 119.516 131.909 119.214 137.362 119.214H137.463C140.291 119.214 143.219 119.315 146.249 119.315L146.35 133.471Z" fill="#FFB612"/>
<path d="M164.628 119.114C164.123 127.146 158.367 133.27 149.379 133.27H144.532V119.114H164.628Z" fill="#FFB612"/>
<path d="M147.562 131.664L130.193 119.214C130.193 119.214 125.144 123.13 118.277 128.35C117.974 128.551 117.772 128.752 117.469 128.953C110.098 134.575 101.312 141.704 94.2435 147.025L88.6895 142.306C95.7582 134.977 101.817 128.35 108.583 121.523C112.016 118.009 115.652 114.395 119.691 110.68C122.417 108.572 125.144 107.367 127.668 106.865C130.496 106.363 133.222 106.765 135.949 107.668C140.089 109.074 144.129 111.785 148.572 114.897L148.673 114.997C150.995 116.604 153.318 118.411 155.842 120.118L147.562 131.664Z" fill="#FFB612"/>
<path d="M130.192 119.214L141.502 130.158C143.623 132.166 146.45 133.371 149.379 133.371H137.059L130.192 119.214Z" fill="#FF9C12"/>
<path fill-rule="evenodd" clip-rule="evenodd" d="M155.742 58.2715C155.742 58.2715 169.678 57.3679 167.759 80.5602H144.23C144.129 80.5602 142.918 57.4683 155.742 58.2715Z" style="fill:var(--hair-color)"/>
<path fill-rule="evenodd" clip-rule="evenodd" d="M158.974 81.9662L151.4 82.167L153.016 72.127L159.58 70.3198L158.974 81.9662Z" fill="#FF7254"/>
<path d="M152.31 76.1428L151.805 79.0544C151.805 79.0544 156.652 76.1428 156.753 76.1428H152.31Z" fill="#F25A37"/>
<path fill-rule="evenodd" clip-rule="evenodd" d="M146.351 71.7254C146.654 74.637 147.967 76.645 151.501 77.0466H151.602C151.804 77.0466 153.42 77.147 153.925 77.0466C155.742 76.7454 157.56 76.3438 159.075 74.9382C159.479 74.637 159.782 73.633 160.186 73.2314C160.286 73.131 160.387 72.9302 160.488 72.8298C160.589 72.629 160.791 72.4282 160.892 72.2274C160.993 72.127 161.094 71.9262 161.094 71.8258C161.7 70.7214 162.104 69.5166 162.205 68.3118C162.407 65.7014 162.104 63.6934 161.296 62.1874C160.791 61.1834 160.085 60.4806 159.277 59.9786C158.772 59.6774 158.267 59.4766 157.661 59.2758C157.358 59.1754 157.156 59.1754 156.853 59.075C156.55 59.075 156.348 58.9746 156.045 58.9746C156.045 58.9746 156.045 58.9746 155.944 58.9746H155.843C155.54 58.9746 155.237 58.9746 155.035 58.9746C154.732 58.9746 154.329 58.9746 154.026 58.9746C153.824 58.9746 153.521 58.9746 153.319 59.075H153.218C153.117 59.075 153.117 59.075 153.016 59.075C152.814 59.1754 152.612 59.1754 152.41 59.2758H152.309C152.107 59.3762 151.905 59.3762 151.703 59.4766C151.602 59.577 151.4 59.577 151.198 59.6774C150.996 59.7778 150.895 59.8782 150.693 59.9786C150.592 60.079 150.39 60.1794 150.289 60.2798C149.885 60.581 149.481 60.8822 149.178 61.2838C149.077 61.3842 148.977 61.4846 148.876 61.585C148.775 61.6854 148.775 61.6854 148.674 61.7858C147.159 63.6934 146.351 66.4042 146.25 69.115C146.25 69.2154 146.25 69.3158 146.25 69.5166C146.25 70.2194 146.351 71.0226 146.351 71.7254Z" fill="#FF7254"/>
<path fill-rule="evenodd" clip-rule="evenodd" d="M154.732 58.6733C155.035 59.0749 155.136 60.8821 155.338 62.7897C155.641 65.7013 159.681 69.1149 159.378 74.7373C160.993 73.7333 162.71 69.6169 162.71 68.5125C162.912 65.9021 162.609 63.5929 161.801 62.0869C161.296 61.0829 160.488 60.1793 159.58 59.6773C159.075 59.3761 158.267 59.0749 157.661 58.9745C157.358 58.8741 156.853 58.7737 156.55 58.7737C156.348 58.6733 155.035 58.7737 154.732 58.6733Z" style="fill:var(--hair-color)"/>
<path d="M158.872 70.8214C159.876 70.8214 160.69 70.0123 160.69 69.0142C160.69 68.0161 159.876 67.207 158.872 67.207C157.868 67.207 157.055 68.0161 157.055 69.0142C157.055 70.0123 157.868 70.8214 158.872 70.8214Z" fill="#FF7254"/>
<path fill-rule="evenodd" clip-rule="evenodd" d="M154.733 58.8743C154.43 58.8743 154.026 58.8743 153.723 58.8743C153.42 58.8743 153.117 58.9747 152.915 58.9747C152.814 58.9747 152.814 58.9747 152.713 58.9747C152.511 58.9747 152.309 59.0751 152.107 59.1755H152.006C150.592 59.6775 149.481 60.4807 148.472 61.6855C149.885 63.8943 158.974 66.5046 158.974 66.605L159.378 59.9787C158.065 59.0751 156.348 58.9747 155.742 58.8743H155.641C155.338 58.9747 155.035 58.9747 154.733 58.8743Z" style="fill:var(--hair-color)"/>
<path d="M152.411 71.6248L149.583 71.7252" stroke="black" stroke-width="0.5" stroke-miterlimit="10" stroke-linecap="round"/>
<path d="M158.973 106.263L154.429 106.363C153.015 106.363 151.702 107.166 150.995 108.371L150.49 109.375H152.106L152.207 109.275V109.375H152.914H154.53H155.337H156.953H157.66H162.406C162.103 107.568 160.689 106.162 158.973 106.263Z" fill="#FF7254"/>
<path d="M178.665 109.275H151.702C148.976 109.275 146.653 111.484 146.653 114.295V157.868C146.653 160.579 148.875 162.888 151.702 162.888H178.665C181.391 162.888 183.714 160.68 183.714 157.868V114.295C183.714 111.484 181.492 109.275 178.665 109.275Z" fill="#CBF0F3"/>
<path d="M191.893 109.275H164.931C162.204 109.275 159.882 111.484 159.882 114.295V157.868C159.882 160.579 162.103 162.888 164.931 162.888H191.893C194.62 162.888 196.942 160.68 196.942 157.868V114.295C196.942 111.484 194.721 109.275 191.893 109.275Z" fill="#97E0E7"/>
<path d="M167.354 99.1344L163.719 94.7168L161.497 103.853L166.647 103.452C166.849 102.046 167.152 100.54 167.354 99.1344Z" fill="#38BFDB"/>
<path d="M150.592 109.174L149.986 110.379C149.683 110.881 149.986 111.584 150.592 111.785C151.097 111.985 151.602 111.785 151.905 111.283L153.116 108.973L151.299 108.873L150.592 109.174Z" fill="#FF7254"/>
<path d="M152.815 109.174L152.209 110.379C151.906 110.881 152.209 111.584 152.815 111.785C153.319 111.985 153.824 111.785 154.127 111.283L155.339 108.973L153.521 108.873L152.815 109.174Z" fill="#FF7254"/>
<path d="M155.035 109.174L154.429 110.379C154.126 110.881 154.429 111.584 155.035 111.785C155.54 111.985 156.045 111.785 156.348 111.283L157.56 108.973L155.742 108.873L155.035 109.174Z" fill="#FF7254"/>
<path d="M179.573 102.648L166.648 85.5801L163.012 94.8169L170.687 103.25L159.579 103.451L158.165 109.274H177.049C179.977 109.274 181.391 105.258 179.573 102.648Z" fill="#79D4E7"/>
<path d="M86.3676 54.9585H111.613C115.551 54.9585 118.682 51.8461 118.682 47.9305V23.0314C118.682 19.1158 115.551 16.0034 111.613 16.0034H86.3676C82.4293 16.0034 79.2988 19.1158 79.2988 23.0314V47.9305C79.2988 51.8461 82.4293 54.9585 86.3676 54.9585Z" fill="#01689B"/>
<path d="M86.3676 54.9585H111.613C115.551 54.9585 118.682 51.8461 118.682 47.9305V23.0314C118.682 19.1158 115.551 16.0034 111.613 16.0034H86.3676C82.4293 16.0034 79.2988 19.1158 79.2988 23.0314V47.9305C79.2988 51.8461 82.4293 54.9585 86.3676 54.9585Z" fill="#01689B"/>
<path d="M110.603 53.051V60.7818C110.603 61.6854 109.593 62.087 108.987 61.4846L100.505 53.051H110.603Z" fill="#01689B"/>
<path d="M97.273 24.2363H100.605C101.413 24.2363 102.019 24.8387 101.918 25.6419L101.211 38.0915C101.211 38.7943 100.605 39.3967 99.8985 39.3967H97.9799C97.273 39.3967 96.6671 38.7943 96.6671 38.0915L95.9602 25.6419C95.8592 24.9391 96.4651 24.2363 97.273 24.2363Z" fill="white"/>
<path d="M98.9898 46.3243C100.44 46.3243 101.615 45.1556 101.615 43.7139C101.615 42.2722 100.44 41.1035 98.9898 41.1035C97.5397 41.1035 96.3643 42.2722 96.3643 43.7139C96.3643 45.1556 97.5397 46.3243 98.9898 46.3243Z" fill="white"/>
</svg>
