<svg width="219" height="194" viewBox="0 0 219 194" fill="none" xmlns="http://www.w3.org/2000/svg">
<path d="M125.987 193.541C177.302 193.541 218.974 192.654 218.974 191.546C218.974 190.437 177.302 189.551 125.987 189.551C74.6724 189.551 33 190.437 33 191.546C33 192.654 74.6724 193.541 125.987 193.541Z" fill="black"/>
<path d="M73.1204 114.962H40.2036C37.2112 114.962 34.6621 117.4 34.6621 120.503V168.604C34.6621 171.596 37.1004 174.145 40.2036 174.145H73.0095C76.002 174.145 78.5511 171.707 78.5511 168.604V120.503C78.5511 117.4 76.1128 114.962 73.1204 114.962Z" fill="#4B4B4B"/>
<path d="M86.0878 114.962H54.8335C51.8411 114.962 49.292 117.4 49.292 120.503V168.604C49.292 171.596 51.7303 174.145 54.8335 174.145H86.0878C89.0802 174.145 91.6293 171.707 91.6293 168.604V120.503C91.5185 117.4 89.0802 114.962 86.0878 114.962Z" fill="#383838"/>
<path d="M154.249 173.37L155.357 179.133L157.574 190.327C157.685 191.102 158.35 191.657 159.126 191.657H161.453C162.34 191.657 163.115 190.881 163.115 189.994V173.37H154.249V173.37Z" fill="#4B4B4B"/>
<path d="M163.115 173.37H154.249L155.246 178.246L163.115 178.357V173.37Z" fill="#383838"/>
<path d="M193.815 173.37H202.682V189.994C202.682 190.881 201.906 191.657 201.019 191.657H198.692C197.916 191.657 197.251 191.103 197.14 190.327L193.815 173.37Z" fill="#383838"/>
<path d="M96.1731 173.37H87.3066V189.994C87.3066 190.881 88.0825 191.657 88.9691 191.657H91.2965C92.0724 191.657 92.7373 191.103 92.8482 190.327L96.1731 173.37Z" fill="#383838"/>
<path d="M47.7402 173.37V189.994C47.7402 190.881 48.516 191.657 49.4027 191.657H51.7301C52.506 191.657 53.1709 191.102 53.2818 190.327L55.4984 179.133L56.6067 173.37H47.7402V173.37Z" fill="#4B4B4B"/>
<path d="M55.9417 176.916L56.6067 173.37H47.7402V176.805L55.9417 176.916Z" fill="#383838"/>
<path d="M201.574 145.551L211.438 102.659C212.989 95.3446 206.561 87.3647 199.801 87.3647H110.914C104.154 87.3647 97.3931 92.7955 95.8414 99.5561L85.3125 145.44L201.574 145.551Z" fill="#4B4B4B"/>
<path d="M190.934 87.3647H99.1664C92.4057 87.3647 85.645 92.7955 84.0934 99.5561L73.5645 145.44H189.826L200.355 99.5561C201.906 92.7955 197.695 87.3647 190.934 87.3647Z" fill="#4B4B4B"/>
<path d="M92.516 141.561H68.1333C66.2491 141.561 64.6975 140.231 64.2542 138.458L60.5968 122.72C60.0426 120.282 61.4834 118.398 63.9217 118.398H86.5312C88.9694 118.398 91.2969 120.282 91.851 122.72L95.3976 137.904C95.8409 139.788 94.4002 141.561 92.516 141.561Z" fill="#757575"/>
<path d="M170.984 141.672H45.9668V174.145H170.984V141.672V141.672Z" fill="#4B4B4B"/>
<path d="M137.291 98.0047L160.122 85.8133L157.463 100.443C157.463 100.443 140.062 109.974 134.188 108.977C127.982 107.869 124.435 85.9241 123.77 80.7151C123.659 80.0501 124.103 79.4959 124.657 79.2743L130.974 77.3901L137.291 98.0047Z" fill="#79D4E7"/>
<path d="M125.322 81.0476H124.768C123.882 81.0476 123.217 80.3826 122.995 79.6068L121.887 73.1786C121.665 72.0703 122.108 70.962 122.995 70.1861L124.768 68.6345L125.876 70.962L125.322 81.0476Z" fill="#FF7254"/>
<path d="M132.858 81.9341H126.652C125.765 81.9341 124.989 81.2692 124.879 80.3825L124.657 79.1634L122.551 66.6395V66.4178C122.44 65.5312 122.994 64.8662 123.881 64.8662H130.088C130.974 64.8662 131.75 65.5312 131.861 66.307V66.6395L133.967 79.1634L134.188 80.2717C134.299 81.2692 133.634 81.9341 132.858 81.9341Z" fill="white"/>
<path d="M133.301 79.4958H125.876L123.881 67.5261H131.307L133.301 79.4958Z" fill="#38BFDB"/>
<path d="M123.106 70.1862L123.993 69.5213C124.436 69.1888 125.101 69.2996 125.433 69.8538C125.655 70.2971 125.544 70.8512 125.212 71.1837L123.217 72.7353L122.773 71.0729L123.106 70.1862Z" fill="#FF7254"/>
<path d="M123.216 72.5136L124.213 71.7378C124.657 71.4053 125.322 71.5161 125.654 72.0703C125.876 72.5136 125.765 73.0678 125.432 73.4003L123.437 74.9519L122.994 73.2894L123.216 72.5136Z" fill="#FF7254"/>
<path d="M123.437 74.6193L124.435 73.8435C124.878 73.511 125.543 73.6219 125.876 74.176C126.097 74.6193 125.987 75.1735 125.654 75.506L123.659 77.0576L123.216 75.3952L123.437 74.6193Z" fill="#FF7254"/>
<path d="M134.41 77.0576L133.856 78.7201L133.413 76.2818L131.418 74.6193C130.975 74.2869 130.975 73.6219 131.196 73.2894C131.529 72.8461 132.083 72.8461 132.526 73.0677L133.635 73.9544C134.3 74.5085 134.521 75.2843 134.41 76.0601V77.0576V77.0576Z" fill="#FF7254"/>
<path d="M158.46 86.9216L145.493 106.206C149.261 104.654 152.919 102.881 155.135 101.662L158.46 86.9216Z" fill="#38BFDB"/>
<path d="M175.307 84.4832H165.11C159.901 84.4832 153.362 89.6922 153.03 93.5713C152.697 96.5637 155.246 99.4453 155.246 99.4453L144.385 130.7H180.294L181.181 117.732C182.732 111.304 184.062 101.219 184.727 96.342C185.281 92.1305 183.397 87.9189 179.851 85.8131C178.299 85.0373 176.747 84.4832 175.307 84.4832Z" fill="#79D4E7"/>
<path fill-rule="evenodd" clip-rule="evenodd" d="M167.105 90.6897C170.097 91.133 174.198 88.1406 176.304 86.3673C176.858 85.924 176.969 85.1481 176.636 84.594C176.193 84.4831 175.75 84.4832 175.306 84.4832H165.11C164.667 84.4832 164.334 84.4831 163.891 84.594C163.448 84.9265 163.226 85.4806 163.226 85.924C163.115 86.9214 163.891 90.1355 167.105 90.6897Z" fill="#FF7254"/>
<path d="M115.902 180.906L114.793 184.231C114.35 185.672 113.131 186.78 111.69 187.334L107.589 188.775C107.035 188.997 106.592 189.551 106.592 190.105C106.592 190.881 107.257 191.546 108.033 191.546H118.007C119.337 191.546 120.446 190.659 120.667 189.329L122.219 182.458L115.902 180.906Z" fill="white"/>
<path d="M119.891 187.999C118.561 187.999 117.453 189.107 117.453 190.437C117.453 190.881 117.564 191.213 117.675 191.546H118.007C119.337 191.546 120.446 190.659 120.667 189.329L120.889 188.221C120.667 188.11 120.335 187.999 119.891 187.999Z" fill="#D1F0F7"/>
<path d="M98.2797 150.76L95.0656 153.642C94.2898 154.307 93.2924 154.75 92.1841 154.639L87.0858 154.528C86.4209 154.528 85.8667 154.861 85.5342 155.526C85.2017 156.302 85.645 157.299 86.5317 157.521L95.2873 160.513C96.6173 160.957 98.1689 160.624 99.0556 159.516L103.378 154.75L98.2797 150.76Z" fill="white"/>
<path d="M99.4985 159.072C99.0551 158.186 98.1685 157.631 97.171 157.742C95.8411 157.853 94.7328 158.961 94.8436 160.402L95.2869 160.513C95.7302 160.624 96.2844 160.735 96.8385 160.735C96.8385 160.735 96.8386 160.735 96.9494 160.735C97.171 160.735 97.3927 160.624 97.6144 160.624C97.836 160.513 97.9468 160.513 98.1685 160.402C98.6118 160.181 98.9443 159.959 99.166 159.626L99.4985 159.072Z" fill="#D1F0F7"/>
<path d="M160.567 141.672H137.07C137.07 141.672 135.076 148.432 132.305 157.521C132.194 157.853 132.083 158.186 131.972 158.629C128.98 168.271 125.322 175.697 122.441 183.455L115.126 181.793C116.678 172.815 117.786 167.385 119.338 157.521C120.113 152.09 121.111 146.548 122.219 140.674C123.327 137.017 124.879 134.246 126.874 132.14C129.091 129.924 131.751 128.483 134.743 127.596C139.287 126.266 144.718 125.934 150.703 125.934H150.813C153.917 125.934 157.131 126.045 160.456 126.045L160.567 141.672Z" fill="#FFB612"/>
<path d="M180.627 125.823C180.072 134.689 173.755 141.45 163.891 141.45H158.571V125.823H180.627Z" fill="#FFB612"/>
<path d="M161.896 139.677L142.833 125.934C142.833 125.934 137.291 130.256 129.755 136.019C129.422 136.241 129.2 136.463 128.868 136.684C120.777 142.891 111.135 150.76 103.377 156.634L97.2812 151.425C105.039 143.334 111.689 136.019 119.115 128.483C122.883 124.604 126.873 120.614 131.306 116.513C134.299 114.186 137.291 112.856 140.062 112.302C143.165 111.748 146.158 112.191 149.15 113.188C153.694 114.74 158.127 117.732 163.004 121.168L163.115 121.279C165.664 123.052 168.213 125.047 170.984 126.931L161.896 139.677Z" fill="#FFB612"/>
<path d="M142.833 125.934L155.246 138.014C157.574 140.231 160.677 141.561 163.891 141.561H150.37L142.833 125.934Z" fill="#FF9C12"/>
<path fill-rule="evenodd" clip-rule="evenodd" d="M170.873 58.6598C170.873 58.6598 186.168 57.6623 184.062 83.2642H158.239C158.128 83.2642 156.798 57.7732 170.873 58.6598Z" fill="#383838"/>
<path fill-rule="evenodd" clip-rule="evenodd" d="M174.42 84.8158L166.107 85.0375L167.881 73.9544L175.085 71.9595L174.42 84.8158Z" fill="#FF7254"/>
<path d="M167.105 78.3877L166.551 81.6018C166.551 81.6018 171.871 78.3877 171.982 78.3877H167.105Z" fill="#F25A37"/>
<path fill-rule="evenodd" clip-rule="evenodd" d="M160.566 73.511C160.898 76.7251 162.339 78.9417 166.218 79.385H166.329C166.551 79.385 168.324 79.4958 168.878 79.385C170.873 79.0525 172.868 78.6092 174.531 77.0576C174.974 76.7251 175.306 75.6168 175.75 75.1734C175.861 75.0626 175.971 74.841 176.082 74.7301C176.193 74.5085 176.415 74.2868 176.526 74.0651C176.636 73.9543 176.747 73.7327 176.747 73.6218C177.412 72.4027 177.856 71.0727 177.966 69.7427C178.188 66.8611 177.856 64.6445 176.969 62.9821C176.415 61.8738 175.639 61.0979 174.752 60.5438C174.198 60.2113 173.644 59.9896 172.979 59.768C172.646 59.6572 172.425 59.6572 172.092 59.5463C171.76 59.5463 171.538 59.4355 171.206 59.4355C171.206 59.4355 171.206 59.4355 171.095 59.4355H170.984C170.652 59.4355 170.319 59.4355 170.097 59.4355C169.765 59.4355 169.322 59.4355 168.989 59.4355C168.767 59.4355 168.435 59.4355 168.213 59.5463H168.102C167.992 59.5463 167.992 59.5463 167.881 59.5463C167.659 59.6572 167.437 59.6572 167.216 59.768H167.105C166.883 59.8788 166.662 59.8788 166.44 59.9896C166.329 60.1005 166.107 60.1005 165.886 60.2113C165.664 60.3221 165.553 60.433 165.332 60.5438C165.221 60.6546 164.999 60.7655 164.888 60.8763C164.445 61.2088 164.002 61.5413 163.669 61.9846C163.558 62.0954 163.448 62.2063 163.337 62.3171C163.226 62.4279 163.226 62.4279 163.115 62.5387C161.453 64.6445 160.566 67.637 160.455 70.6294C160.455 70.7402 160.455 70.8511 160.455 71.0727C160.455 71.8485 160.566 72.7352 160.566 73.511Z" fill="#FF7254"/>
<path fill-rule="evenodd" clip-rule="evenodd" d="M169.765 59.103C170.097 59.5464 170.208 61.5413 170.43 63.6471C170.762 66.8612 175.195 70.6294 174.863 76.8359C176.636 75.7276 178.52 71.1836 178.52 69.9644C178.742 67.0828 178.409 64.5337 177.523 62.8713C176.969 61.763 176.082 60.7655 175.085 60.2113C174.53 59.8788 173.644 59.5463 172.979 59.4355C172.646 59.3247 172.092 59.2139 171.76 59.2139C171.538 59.103 170.097 59.2139 169.765 59.103Z" fill="#383838"/>
<path d="M174.309 72.5136C175.418 72.5136 176.304 71.6269 176.304 70.5186C176.304 69.4103 175.418 68.5237 174.309 68.5237C173.201 68.5237 172.314 69.4103 172.314 70.5186C172.314 71.6269 173.201 72.5136 174.309 72.5136Z" fill="#FF7254"/>
<path fill-rule="evenodd" clip-rule="evenodd" d="M169.765 59.3247C169.433 59.3247 168.989 59.3247 168.657 59.3247C168.324 59.3247 167.992 59.4355 167.77 59.4355C167.659 59.4355 167.659 59.4355 167.548 59.4355C167.327 59.4355 167.105 59.5464 166.883 59.6572H166.773C165.221 60.2114 164.002 61.098 162.894 62.428C164.445 64.8662 174.42 67.7478 174.42 67.8587L174.863 60.5438C173.422 59.5464 171.538 59.4355 170.873 59.3247H170.763C170.43 59.4355 170.098 59.4355 169.765 59.3247Z" fill="#383838"/>
<path d="M167.217 73.4001L164.113 73.511" stroke="black" stroke-width="0.5" stroke-miterlimit="10" stroke-linecap="round"/>
<path d="M174.42 111.637L169.433 111.748C167.881 111.748 166.44 112.634 165.665 113.964L165.11 115.073H166.884L166.994 114.962V115.073H167.77H169.544H170.43H172.204H172.979H178.188C177.856 113.078 176.304 111.526 174.42 111.637Z" fill="#FF7254"/>
<path d="M196.032 114.962H166.44C163.448 114.962 160.898 117.4 160.898 120.503V168.604C160.898 171.596 163.337 174.145 166.44 174.145H196.032C199.024 174.145 201.573 171.707 201.573 168.604V120.503C201.573 117.4 199.135 114.962 196.032 114.962Z" fill="#4B4B4B"/>
<path d="M210.551 114.962H180.96C177.967 114.962 175.418 117.4 175.418 120.503V168.604C175.418 171.596 177.856 174.145 180.96 174.145H210.551C213.544 174.145 216.093 171.707 216.093 168.604V120.503C216.093 117.4 213.655 114.962 210.551 114.962Z" fill="#383838"/>
<path d="M183.619 103.768L179.629 98.8914L177.19 108.977L182.843 108.534C183.064 106.982 183.397 105.32 183.619 103.768Z" fill="#38BFDB"/>
<path d="M165.221 114.851L164.556 116.181C164.224 116.735 164.556 117.511 165.221 117.732C165.775 117.954 166.33 117.732 166.662 117.178L167.992 114.629L165.997 114.518L165.221 114.851Z" fill="#FF7254"/>
<path d="M167.66 114.851L166.995 116.181C166.662 116.735 166.995 117.511 167.66 117.732C168.214 117.954 168.768 117.732 169.1 117.178L170.43 114.629L168.436 114.518L167.66 114.851Z" fill="#FF7254"/>
<path d="M170.098 114.851L169.433 116.181C169.101 116.735 169.433 117.511 170.098 117.732C170.652 117.954 171.206 117.732 171.539 117.178L172.869 114.629L170.874 114.518L170.098 114.851Z" fill="#FF7254"/>
<path d="M197.029 107.647L182.843 88.8057L178.853 99.0021L187.276 108.312L175.085 108.534L173.533 114.962H194.259C197.473 114.962 199.024 110.528 197.029 107.647Z" fill="#79D4E7"/>
<path d="M94.7328 55.0023H122.44C126.763 55.0023 130.199 51.5666 130.199 47.2442V19.7581C130.199 15.4358 126.763 12 122.44 12H94.7328C90.4104 12 86.9746 15.4358 86.9746 19.7581V47.2442C86.9746 51.5666 90.4104 55.0023 94.7328 55.0023Z" fill="#E67F78"/>
<path d="M121.332 52.8965V61.4304C121.332 62.4279 120.224 62.8712 119.559 62.2063L110.249 52.8965H121.332Z" fill="#E67F78"/>
<path d="M106.703 21.0881H110.36C111.247 21.0881 111.912 21.7531 111.801 22.6398L111.025 36.3828C111.025 37.1586 110.36 37.8236 109.584 37.8236H107.479C106.703 37.8236 106.038 37.1586 106.038 36.3828L105.262 22.6398C105.151 21.864 105.816 21.0881 106.703 21.0881Z" fill="#050505"/>
<path d="M108.587 45.471C110.138 45.471 111.468 44.141 111.468 42.5894C111.468 41.0377 110.138 39.7078 108.587 39.7078C107.035 39.7078 105.705 41.0377 105.705 42.5894C105.705 44.141 107.035 45.471 108.587 45.471Z" fill="#050505"/>
<path d="M58.4203 0.3479H0.695312V83.9216H58.3044V0.3479H58.4203Z" fill="#383838"/>
<path d="M24.9215 46.8292C25.617 45.0905 25.9648 43.12 25.9648 41.0335C25.9648 37.0925 24.5738 33.4991 22.2555 30.6013C20.4009 28.1671 19.4736 24.9215 20.285 21.9078C20.5168 20.9805 20.6327 20.1691 20.6327 19.1259C20.6327 12.287 14.7211 6.95494 7.88225 7.76633C5.10032 8.11407 2.55023 9.38912 0.811523 11.4756V83.8056H30.2536C31.7604 80.9078 32.6877 77.6622 32.9196 74.1848C33.2673 67.4618 30.949 61.4343 26.7762 56.9137C24.342 54.3636 23.5306 50.3066 24.9215 46.8292Z" fill="#272727"/>
<path d="M29.5586 0V84.9646" stroke="#121212" stroke-width="1.2" stroke-miterlimit="10"/>
<path d="M0 28.051H59" stroke="#121212" stroke-width="1.2" stroke-miterlimit="10"/>
<path d="M0 56.334H59" stroke="#121212" stroke-width="1.2" stroke-miterlimit="10"/>
</svg>
