<svg width="424" height="398" viewBox="0 0 424 398" fill="none" xmlns="http://www.w3.org/2000/svg">
<path d="M199.029 398C258.231 398 306.224 396.413 306.224 394.455C306.224 392.497 258.231 390.91 199.029 390.91C139.828 390.91 91.835 392.497 91.835 394.455C91.835 396.413 139.828 398 199.029 398Z" fill="#E0F5F7"/>
<path fill-rule="evenodd" clip-rule="evenodd" d="M18.4288 226.643L7.7505 226.339C6.48055 226.303 5.46102 227.216 5.37158 228.469C5.28215 229.848 6.31957 231.155 7.71473 231.37L14.4759 232.408L18.4288 226.643Z" fill="#FF7254"/>
<path fill-rule="evenodd" clip-rule="evenodd" d="M20.2155 225.691L13.9194 228.341L4.65414 240.104C3.84924 241.16 4.11754 242.772 5.26228 243.631C6.26393 244.383 7.58754 244.276 8.33878 243.362L12.6673 238.117L7.99893 245.224C7.30135 246.281 7.67697 247.803 8.78594 248.555C9.84125 249.271 11.2006 249.038 11.8446 248.035L15.9764 242.145L13.8657 246.854C13.3828 247.91 13.9015 249.217 15.0284 249.754C16.0837 250.255 17.2642 249.879 17.7292 248.895L24.0969 239.334L24.1684 239.227C25.7782 236.738 26.8335 233.963 27.2807 231.045L27.3344 230.704" fill="#FF7254"/>
<path d="M82.337 123.804L18.0704 223.134C17.3907 224.19 17.6948 225.605 18.7501 226.285L26.9959 231.656C27.9438 232.283 29.2138 232.104 29.965 231.244L89.5453 158.644L82.337 123.804Z" fill="#FFB512"/>
<path d="M114.156 105.521H141.022L136.407 120.882L115.623 119.271L114.156 105.521Z" fill="#FFB512"/>
<path d="M97.0207 106.686H81.6561L88.3457 118.198L88.0238 118.395C82.9619 121.599 79.5992 126.899 78.8301 132.843L78.6333 294.407H155.796L97.0207 106.686Z" fill="#FFB512"/>
<path d="M84.3208 129.495L84.8395 294.407H165.097L121.167 194.737L110.042 117.088L84.3208 129.495Z" fill="#FF9D12"/>
<path fill-rule="evenodd" clip-rule="evenodd" d="M258.432 170.655H251.313C250.096 170.655 249.095 169.67 249.095 168.435C249.095 167.217 250.079 166.215 251.313 166.215H258.432C259.648 166.215 260.65 167.2 260.65 168.435C260.65 169.652 259.648 170.655 258.432 170.655Z" fill="#FF7254"/>
<path fill-rule="evenodd" clip-rule="evenodd" d="M239.903 166.665L246.378 169.136L249.812 166.504C251.404 165.896 253.229 166.307 254.409 167.543L260.634 176.208L250.724 187.613L235.557 181.203L239.903 166.665Z" fill="#FF7254"/>
<path fill-rule="evenodd" clip-rule="evenodd" d="M316.188 36.0391C316.188 36.111 316.188 36.165 316.206 36.2369H316.188V36.0391Z" fill="#004CBB"/>
<path fill-rule="evenodd" clip-rule="evenodd" d="M82.1942 73.2064C78.2412 94.1359 96.4856 107.474 119.023 100.886C133.332 96.6962 142.74 71.989 155.654 69.1781C135.264 57.9882 88.8838 37.7569 82.1942 73.2064Z" fill="#4B4B4B"/>
<path d="M218.274 363.051L232.602 392.306C233.192 393.541 234.462 394.132 235.821 394.078H258.251C260.397 394.006 262.097 393.523 262.097 391.375C262.097 389.799 261.149 388.367 259.7 387.74L247.09 382.136C246.195 381.868 245.462 381.187 245.158 380.292L239.13 363.122L218.274 363.051Z" fill="#FFB512"/>
<path d="M240.99 363.301H216.7C214.929 363.301 213.302 362.388 212.371 360.867L141.397 244.205L128.125 299.116L162.45 362.818C163.273 364.197 162.289 365.951 160.697 365.951C154.812 366.005 143.723 366.005 139.287 365.915C138.178 365.88 137.122 365.378 136.425 364.501L91.7799 307.101C89.9554 304.828 89.1326 301.927 89.4725 299.027L100.544 215.327C100.902 212.337 101.617 209.418 102.637 206.607C103.299 204.817 104.068 203.08 104.962 201.397L158.998 200.001C164.614 204.423 169.157 210.045 172.341 216.437L243.351 359.524C244.192 361.278 242.94 363.301 240.99 363.301Z" fill="#004CBB"/>
<path d="M141.076 365.951L151.021 382.315C151.361 382.887 151.128 383.622 150.538 383.89L140.432 388.473C138.894 389.225 138.268 391.105 139.073 392.627C139.592 393.63 140.629 394.077 141.774 394.077H168.926C170.839 394.077 172.092 392.251 171.251 390.515L159.374 365.933L141.076 365.951Z" fill="#FFB512"/>
<path d="M128.862 244.205L140.202 249.2L141.4 244.205H128.862Z" fill="#0034B0"/>
<path d="M78.4212 151.839C77.3838 157.765 80.0847 163.709 85.2181 166.825L90.2085 169.868L104.947 201.379L159 200L139.021 127.239C137.411 121.349 131.938 117.339 125.821 117.589L95.3598 118.825C89.332 119.075 84.2344 123.408 83.0181 129.316L78.4212 151.839Z" fill="white"/>
<path d="M137.802 150.119L234.229 181.988C237.019 183.098 239.005 182.382 240.185 179.625L242.797 172.033C244.174 168.184 242.671 166.519 239.649 165.463L131.238 116.89L137.802 150.119Z" fill="#FFB512"/>
<path fill-rule="evenodd" clip-rule="evenodd" d="M97.2741 111.289L115.125 111.737L111.422 87.9606L95.7358 83.7354L97.2741 111.289Z" fill="#FF7254"/>
<path fill-rule="evenodd" clip-rule="evenodd" d="M125.532 85.8838C125.174 92.7409 122.419 97.6108 114.192 99.1505C114.102 99.1863 113.977 99.2042 113.87 99.2042C113.297 99.3295 109.577 99.5981 108.325 99.419C103.96 98.9356 99.5781 96.8051 95.9829 93.7435C95.0349 92.9737 94.1406 92.1143 93.3178 91.1833C93.0138 90.861 92.7455 90.5388 92.4593 90.1986C92.1015 89.751 91.7796 89.3034 91.4576 88.8558C91.243 88.5514 91.0462 88.265 90.8674 87.9606C89.2039 85.4004 88.0771 82.6074 87.7193 79.7965C86.9502 73.6197 87.3616 68.8036 88.9893 65.2407C89.9909 62.9311 91.5113 61.1407 93.4967 59.8338C94.5878 59.0997 95.8398 58.491 97.2708 58.0434C97.861 57.8285 98.4871 57.6853 99.1668 57.5421C99.757 57.3989 100.383 57.2735 101.063 57.184C101.099 57.1482 101.152 57.1482 101.188 57.1482H101.224C101.313 57.1482 101.367 57.1482 101.456 57.1124C102.082 57.0587 102.762 56.9692 103.442 56.9334C104.211 56.8796 105.016 56.8438 105.838 56.8796C106.411 56.8796 106.965 56.9155 107.502 56.9692C107.538 56.9692 107.538 56.9692 107.556 56.9692C107.645 56.9692 107.77 57.005 107.86 57.005C108.039 57.005 108.182 57.0587 108.343 57.0587C108.879 57.1482 109.38 57.2377 109.881 57.363C109.934 57.3989 110.024 57.4168 110.095 57.4168C110.543 57.5421 110.99 57.6853 111.437 57.8285C111.795 57.9539 112.152 58.0971 112.528 58.2761C112.922 58.4552 113.333 58.67 113.709 58.867C114.066 59.046 114.388 59.2609 114.746 59.4936C115.73 60.1202 116.642 60.8543 117.501 61.6958C117.733 61.9106 117.948 62.1076 118.144 62.3403C118.288 62.4835 118.449 62.6626 118.592 62.8237C122.455 67.1206 124.762 73.3332 125.353 79.7786C125.389 80.083 125.406 80.3515 125.406 80.6022C125.567 82.4821 125.621 84.2366 125.532 85.8838Z" fill="#FF7254"/>
<path fill-rule="evenodd" clip-rule="evenodd" d="M101.066 57.2188C100.476 58.2572 95.7894 62.2676 95.5747 66.654C95.217 73.6007 94.9487 82.7137 90.8527 87.9775C89.1892 85.4172 87.6867 83.2867 87.329 80.4758C86.5599 74.299 86.4168 68.5877 88.0624 65.0248C89.064 62.7152 91.5145 61.1755 93.4999 59.8685C94.591 59.1345 95.843 58.5257 97.274 58.0781C97.8642 57.8633 98.4903 57.7201 99.1699 57.5768C99.7602 57.4157 100.386 57.3083 101.066 57.2188Z" fill="#4B4B4B"/>
<path d="M93.6049 84.433C95.9955 84.433 97.9335 82.4932 97.9335 80.1003C97.9335 77.7074 95.9955 75.7676 93.6049 75.7676C91.2143 75.7676 89.2764 77.7074 89.2764 80.1003C89.2764 82.4932 91.2143 84.433 93.6049 84.433Z" fill="#FF7254"/>
<path fill-rule="evenodd" clip-rule="evenodd" d="M103.424 56.9671C104.211 56.9134 105.016 56.8955 105.857 56.8955C106.537 56.8955 107.216 56.9492 107.878 57.0208C108.039 57.0387 108.182 57.0745 108.343 57.0924C108.862 57.1641 109.381 57.2536 109.881 57.3789C109.953 57.3968 110.024 57.4147 110.078 57.4326C113.441 58.3099 116.285 60.2435 118.592 62.8396C115.516 68.2465 94.8209 75.6945 94.8924 75.9451L92.8354 60.2435C95.7867 57.8444 99.7755 57.361 101.206 57.1641C101.278 57.1462 101.367 57.1462 101.439 57.1462C102.083 57.0924 102.745 57.0208 103.424 56.9671Z" fill="#4B4B4B"/>
<path d="M119.257 119.273H95.521L94.4836 111.754C94.2511 110.948 94.8592 110.16 95.682 110.16H116.824C117.378 110.16 117.879 110.536 118.022 111.073L119.257 119.273Z" fill="white"/>
<path d="M141.021 151.392L152.093 174.81L146.226 153.451L141.021 151.392Z" fill="#FF9D12"/>
<path d="M159 200.001L102.639 206.607C103.301 204.817 104.07 203.08 104.964 201.397L159 200.001Z" fill="#0034B0"/>
<path d="M252.778 54.515C248.378 54.515 243.978 53.7272 239.882 52.0622C237.342 51.0238 234.176 49.3766 231.546 46.8343C225.841 51.8294 218.096 54.515 210.494 53.405C200.263 51.8831 191.963 44.5247 184.505 36.7724L183.109 35.3221C176.491 28.4113 169.641 21.2677 160.751 18.2419C157.8 17.2393 154.545 16.8992 151.379 17.2035C152.72 19.5668 153.579 21.9301 153.936 24.2755C154.777 29.8794 152.398 35.537 148.159 38.0435C145.726 39.4758 142.471 39.7265 139.645 38.706C137.123 37.7929 135.299 36.0383 134.512 33.7645C133.85 31.8846 133.868 29.6646 134.547 27.355C135.746 23.2908 138.59 20.0144 142.775 17.8481C144.51 16.9529 146.424 16.2725 148.409 15.8607C147.551 14.6612 146.567 13.4437 145.422 12.2263C141.917 8.46647 136.193 3.68616 128.788 2.21805C122.08 0.875261 115.069 2.86258 110.919 7.24901C110.597 7.62499 110.025 7.64289 109.667 7.30272C109.309 6.96255 109.291 6.38963 109.631 6.03155C114.264 1.12591 121.741 -1.02254 129.146 0.463474C137.016 2.03901 143.043 7.06997 146.728 11.0088C148.123 12.5127 149.34 14.0166 150.341 15.5206C154.026 15.0372 157.871 15.3594 161.324 16.5411C170.643 19.71 177.636 27.0148 184.397 34.0689L185.775 35.5191C193.001 43.0387 201.032 50.1823 210.744 51.6146C217.666 52.6351 224.893 50.0928 230.241 45.4557C229.507 44.6142 228.846 43.6832 228.291 42.6806C225.554 37.8466 225.805 31.7772 228.881 27.9458C230.33 26.1554 232.673 24.9738 234.873 24.9559C236.429 24.9021 237.842 25.5288 238.808 26.6567C240.096 28.1964 240.418 30.4702 239.738 33.4243C238.665 38.0793 236.179 42.2688 232.852 45.5989C235.285 47.9085 238.2 49.4303 240.561 50.3792C254.924 56.198 273.061 50.7552 281.844 37.9719C282.13 37.5601 282.684 37.4527 283.096 37.7392C283.507 38.0256 283.596 38.5806 283.328 38.9924C276.585 48.8037 264.619 54.515 252.778 54.515ZM234.981 26.7641C234.963 26.7641 234.945 26.7641 234.927 26.7641C233.264 26.782 231.403 27.713 230.294 29.0916C227.665 32.368 227.486 37.5959 229.865 41.8212C230.366 42.6985 230.938 43.5221 231.582 44.2561C234.712 41.1588 237.038 37.2916 238.021 33.0305C238.576 30.6493 238.379 28.8947 237.467 27.8205C236.734 26.9432 235.714 26.7641 234.981 26.7641ZM149.483 17.49C147.408 17.866 145.405 18.5284 143.616 19.4594C139.878 21.393 137.338 24.3113 136.282 27.8921C135.871 29.2528 135.531 31.2938 136.211 33.2095C136.819 34.9641 138.268 36.3248 140.271 37.0588C142.614 37.9182 145.297 37.7034 147.265 36.5396C150.896 34.3911 152.917 29.4676 152.184 24.562C151.826 22.2345 150.931 19.8533 149.483 17.49Z" fill="#D4F1F4"/>
<path d="M254.497 201.056C250.919 201.056 247.36 199.588 244.802 196.742C240.241 191.675 240.33 184.101 244.999 179.124L322.609 99.5061C323.646 98.4498 325.345 98.4319 326.401 99.4524C327.456 100.491 327.474 102.192 326.454 103.248L248.88 182.83C246.179 185.713 246.126 190.171 248.809 193.143C251.509 196.151 256.106 196.527 259.254 194.02L269.593 185.767C270.755 184.836 272.437 185.032 273.367 186.196C274.297 187.36 274.1 189.043 272.938 189.974L262.599 198.228C260.22 200.125 257.358 201.056 254.497 201.056Z" fill="#FFB512"/>
<path fill-rule="evenodd" clip-rule="evenodd" d="M113.621 89.7485C113.621 89.7485 116.733 85.3442 121.187 89.3009L113.621 89.7485Z" fill="white"/>
<path fill-rule="evenodd" clip-rule="evenodd" d="M422.917 123.086C422.577 122.441 421.772 122.19 421.128 122.549C419.358 123.497 417.301 123.838 415.333 123.39C412.149 122.674 409.162 120.919 406.962 118.162C403.421 113.74 402.777 107.921 404.798 103.016C405.388 101.583 404.136 100.044 402.634 100.33C397.357 101.315 391.723 99.4348 388.128 94.9588C384.532 90.465 383.924 84.5567 386.053 79.6153C386.679 78.1651 385.427 76.6254 383.889 76.8939C378.648 77.8428 373.067 75.9629 369.508 71.5049C365.984 67.1005 365.34 61.3176 367.326 56.4299C367.898 55.0155 366.664 53.4758 365.161 53.7622C359.885 54.7469 354.268 52.867 350.673 48.3911C347.078 43.8972 346.452 37.989 348.58 33.0475C349.206 31.5794 347.954 30.0039 346.38 30.3083C341.104 31.3109 334.271 30.165 331.856 24.9371C330.3 21.5712 329.245 17.5071 329.442 13.6577C329.495 12.5119 329.871 11.4377 330.372 10.4172C330.658 9.84423 330.837 9.16389 330.408 8.7521C329.871 8.2508 329.03 8.2866 328.53 8.82372L325.095 12.5119C325.024 12.5835 324.988 12.6909 324.934 12.7805C301.646 39.6003 300.09 80.0629 323.11 108.763C346.506 137.928 387.233 144.928 418.66 126.863L422.381 124.876C423.024 124.536 423.257 123.73 422.917 123.086Z" fill="#51C6D6"/>
<path d="M345.288 128.297C343.213 128.297 335.469 127.313 304.4 122.138C304.382 122.138 304.346 122.138 304.328 122.121C304.274 122.103 304.221 122.085 304.167 122.049C304.095 121.995 304.024 121.942 303.97 121.87C303.934 121.816 303.899 121.745 303.863 121.673C303.845 121.619 303.827 121.548 303.827 121.476C303.827 121.44 303.827 121.422 303.827 121.387L308.728 79.3126C308.764 79.062 308.925 78.865 309.139 78.7755C309.372 78.686 309.622 78.7218 309.819 78.8829C309.944 78.9903 316.223 84.2899 323.753 92.633C323.753 92.633 323.771 92.633 323.771 92.6509C323.878 92.7225 323.95 92.8121 324.003 92.9195C332.034 101.871 341.425 114.243 346.218 127.456C346.308 127.671 346.254 127.939 346.093 128.136C346.04 128.208 345.95 128.297 345.288 128.297ZM306.975 121.207C321.159 123.553 340.37 126.632 344.644 127.008C342.355 120.993 339.117 115.156 335.522 109.767L306.975 121.207ZM323.467 94.2981L306.26 120.044L334.753 108.621C331.122 103.304 327.169 98.4518 323.467 94.2981ZM309.909 80.727L305.491 118.79L322.537 93.2597C316.849 86.9933 311.912 82.4995 309.909 80.727Z" fill="#004CBB"/>
<path fill-rule="evenodd" clip-rule="evenodd" d="M254.676 187.431C253.8 188.577 252.154 188.792 251.01 187.896L246.502 184.423C245.357 183.546 245.143 181.899 246.037 180.753C246.914 179.607 248.559 179.392 249.704 180.287L254.211 183.778C255.338 184.656 255.553 186.303 254.676 187.431Z" fill="#FF7254"/>
<path fill-rule="evenodd" clip-rule="evenodd" d="M257.607 183.546C256.73 184.692 255.085 184.907 253.94 184.012L248.735 179.984C247.59 179.106 247.376 177.459 248.27 176.313C249.146 175.167 250.792 174.953 251.937 175.848L257.142 179.876C258.269 180.771 258.483 182.401 257.607 183.546Z" fill="#FF7254"/>
<path fill-rule="evenodd" clip-rule="evenodd" d="M260.702 179.411C259.826 180.557 258.18 180.772 257.035 179.877L252.26 176.189C251.115 175.311 250.9 173.664 251.794 172.518C252.671 171.372 254.316 171.158 255.461 172.053L260.237 175.741C261.382 176.618 261.596 178.265 260.702 179.411Z" fill="#FF7254"/>
<path fill-rule="evenodd" clip-rule="evenodd" d="M113.193 99.2923C113.193 99.2923 108.22 99.4356 106.467 98.6836L113.622 103.231L113.193 99.2923Z" fill="#F15A37"/>
<path d="M306.617 124.805C306.439 124.805 306.26 124.733 306.135 124.59L301.878 120.132C301.627 119.863 301.627 119.434 301.895 119.183C302.164 118.932 302.593 118.932 302.843 119.201L307.1 123.659C307.351 123.927 307.351 124.357 307.083 124.608C306.957 124.733 306.778 124.805 306.617 124.805Z" fill="#004CBB"/>
<path d="M122.012 114.708L119.275 168.419L155.674 294.39H218.027L137.644 122.944C136.053 119.56 132.994 117.107 129.345 116.319L122.012 114.708Z" fill="#FFB512"/>
<path d="M152.684 155.044L144.743 152.341L166.511 184.514L152.684 155.044Z" fill="#FF9D12"/>
<path d="M163.296 244.782L152.296 217.156H179.555L192.237 244.227L163.296 244.782ZM154.943 218.947L164.512 242.956L189.464 242.49L178.428 218.947H154.943Z" fill="#FF9D12"/>
<path d="M179.537 216.797H152.099L155.855 225.946L173.312 229.562L183.311 224.871L179.537 216.797Z" fill="#FF9D12"/>
<path d="M173.199 226.708C173.619 226.249 173.517 225.47 172.97 224.97C172.424 224.469 171.64 224.435 171.22 224.895C170.8 225.354 170.902 226.133 171.448 226.633C171.995 227.134 172.778 227.168 173.199 226.708Z" fill="#FFB512"/>
<path d="M211.105 82.9297C211.105 82.9297 213.466 96.268 229.493 89.4825C229.493 89.4825 222.589 75.4997 211.105 82.9297Z" fill="#FF7254"/>
<path d="M229.492 89.6972C229.474 89.6972 229.439 89.6972 229.421 89.6793L211.033 83.1265C210.926 83.0907 210.854 82.9654 210.89 82.84C210.926 82.7326 211.051 82.661 211.176 82.6968L229.564 89.2496C229.671 89.2854 229.743 89.4107 229.707 89.5361C229.671 89.6435 229.582 89.6972 229.492 89.6972Z" fill="black"/>
<path d="M219.584 89.7499C219.513 89.7499 219.459 89.732 219.405 89.6783L215.005 84.5399C214.934 84.4504 214.934 84.3072 215.023 84.2177C215.113 84.1461 215.256 84.1461 215.345 84.2356L219.745 89.374C219.817 89.4635 219.817 89.6067 219.727 89.6962C219.674 89.732 219.638 89.7499 219.584 89.7499Z" fill="black"/>
<path d="M220.566 86.5282C220.477 86.5282 220.387 86.4744 220.352 86.367C220.316 86.2417 220.37 86.1164 220.495 86.0806L224.43 84.7736C224.555 84.7378 224.68 84.7915 224.716 84.9168C224.752 85.0421 224.698 85.1675 224.573 85.2033L220.638 86.5103C220.602 86.5282 220.584 86.5282 220.566 86.5282Z" fill="black"/>
<path d="M215.575 84.6112C215.486 84.6112 215.396 84.5575 215.36 84.45C215.325 84.3247 215.378 84.1994 215.504 84.1636L221.513 82.1584C221.621 82.1225 221.764 82.1763 221.8 82.3016C221.835 82.4269 221.782 82.5522 221.657 82.588L215.647 84.5933C215.629 84.6112 215.611 84.6112 215.575 84.6112Z" fill="black"/>
<path d="M285.263 29.021C285.263 29.021 298.785 29.6834 295.727 12.5137C295.709 12.5316 280.559 16.166 285.263 29.021Z" fill="#FFB512"/>
<path d="M81.3019 61.7275C81.123 61.7275 80.9441 61.6738 80.7832 61.5485L75.5603 57.7529C75.1668 57.4664 75.0773 56.9114 75.3635 56.4996C75.6497 56.1057 76.2042 56.0162 76.6156 56.3027L81.8385 60.0983C82.232 60.3847 82.3214 60.9397 82.0352 61.3515C81.8564 61.6022 81.5881 61.7275 81.3019 61.7275Z" fill="#D4F1F4"/>
<path d="M83.0032 57.9488C82.6276 57.9488 82.2699 57.6981 82.1447 57.3222L80.4454 52.0226C80.3024 51.5571 80.5528 51.0558 81.0178 50.8947C81.4829 50.7515 81.9837 51.0021 82.1447 51.4676L83.8439 56.7671C83.987 57.2326 83.7366 57.734 83.2715 57.8951C83.1821 57.9309 83.0927 57.9488 83.0032 57.9488Z" fill="#D4F1F4"/>
<path d="M42.4183 178.569C42.3289 178.569 42.2395 178.551 42.15 178.533L37.6068 177.101C37.1418 176.958 36.8735 176.457 37.0166 175.973C37.1597 175.508 37.6605 175.239 38.1434 175.382L42.6866 176.815C43.1517 176.958 43.42 177.459 43.2769 177.943C43.1517 178.336 42.8118 178.569 42.4183 178.569Z" fill="#D4F1F4"/>
<path d="M47.0113 173.789C46.5999 173.789 46.2421 173.52 46.1348 173.108L44.9722 168.238C44.8649 167.755 45.1511 167.272 45.634 167.164C46.1169 167.057 46.5999 167.343 46.7072 167.827L47.8698 172.696C47.9771 173.18 47.6909 173.663 47.208 173.771C47.1544 173.789 47.0828 173.789 47.0113 173.789Z" fill="#D4F1F4"/>
<path d="M45.1371 176.294C44.9046 176.294 44.6542 176.204 44.4753 176.007L40.4687 171.692C40.1289 171.334 40.1467 170.761 40.5224 170.421C40.8801 170.081 41.4525 170.099 41.7923 170.475L45.7989 174.79C46.1388 175.148 46.1209 175.721 45.7452 176.061C45.5664 176.222 45.3517 176.294 45.1371 176.294Z" fill="#D4F1F4"/>
<path d="M33.74 162.224C33.5074 162.224 33.2749 162.135 33.096 161.956L14.1899 142.1C13.85 141.742 13.8679 141.169 14.2257 140.829C14.5834 140.489 15.1558 140.507 15.4956 140.865L34.4018 160.72C34.7416 161.078 34.7237 161.651 34.366 161.992C34.1871 162.135 33.9546 162.224 33.74 162.224Z" fill="#D4F1F4"/>
<path d="M192.772 120.973C192.539 120.973 192.307 120.884 192.128 120.705L173.222 100.849C172.882 100.491 172.9 99.9185 173.257 99.5783C173.615 99.2381 174.188 99.256 174.527 99.6141L193.433 119.469C193.773 119.827 193.755 120.4 193.398 120.741C193.219 120.884 192.986 120.973 192.772 120.973Z" fill="#D4F1F4"/>
<path d="M30.8064 301.463C30.5738 301.463 30.3413 301.373 30.1624 301.194L11.2563 281.339C10.9165 280.981 10.9343 280.408 11.2921 280.068C11.6498 279.727 12.2222 279.745 12.562 280.103L31.4682 299.959C31.808 300.317 31.7901 300.89 31.4324 301.23C31.2535 301.373 31.0389 301.463 30.8064 301.463Z" fill="#D4F1F4"/>
<path d="M282.918 334.17C282.686 334.17 282.453 334.08 282.274 333.901L263.368 314.046C263.028 313.688 263.046 313.115 263.404 312.775C263.762 312.434 264.334 312.452 264.674 312.81L283.58 332.666C283.92 333.024 283.902 333.597 283.544 333.937C283.365 334.08 283.133 334.17 282.918 334.17Z" fill="#D4F1F4"/>
<path d="M231.978 214.126C231.746 214.126 231.513 214.036 231.334 213.857L212.428 194.002C212.088 193.644 212.106 193.071 212.464 192.731C212.822 192.39 213.394 192.408 213.734 192.766L232.64 212.622C232.98 212.98 232.962 213.553 232.604 213.893C232.425 214.036 232.193 214.126 231.978 214.126Z" fill="#D4F1F4"/>
<path d="M316.062 194.917C315.83 194.917 315.597 194.827 315.418 194.648L296.512 174.793C296.172 174.435 296.19 173.862 296.548 173.522C296.906 173.182 297.478 173.199 297.818 173.557L316.724 193.413C317.064 193.771 317.046 194.344 316.688 194.684C316.509 194.845 316.295 194.917 316.062 194.917Z" fill="#D4F1F4"/>
<path d="M29.7179 125.7C29.4854 125.7 29.2528 125.61 29.074 125.431L1.17085 96.1229C0.831004 95.7648 0.848891 95.1919 1.20662 94.8517C1.56436 94.5116 2.13673 94.5295 2.47657 94.8876L30.3797 124.178C30.7195 124.536 30.7016 125.109 30.3439 125.449C30.165 125.61 29.9325 125.7 29.7179 125.7Z" fill="#D4F1F4"/>
<path d="M243.445 241.233C243.212 241.233 242.98 241.143 242.801 240.964L214.898 211.674C214.558 211.316 214.576 210.743 214.934 210.403C215.291 210.062 215.864 210.08 216.204 210.438L244.107 239.729C244.447 240.087 244.429 240.66 244.071 241C243.892 241.143 243.66 241.233 243.445 241.233Z" fill="#D4F1F4"/>
</svg>
