<svg width="24" height="24" viewBox="0 0 24 24" fill="none" xmlns="http://www.w3.org/2000/svg">
<path d="M18.75 3H5.25V21.75H18.75V3Z" fill="white"/>
<path d="M23.4 2.625C23.175 1.575 22.35 0.674999 21.375 0.599999C18.3 -5.81145e-07 13.05 0 12 0C10.95 0 5.7 -5.81145e-07 2.625 0.599999C1.5 0.674999 0.675 1.5 0.6 2.625C0 5.7 0 10.95 0 12C0 13.05 0 18.3 0.6 21.375C0.825 22.425 1.65 23.325 2.625 23.4C5.7 24 10.95 24 12 24C13.05 24 18.3 24 21.375 23.4C22.425 23.175 23.325 22.35 23.4 21.375C24 18.3 24 13.05 24 12C24 8.925 24 5.7 23.4 2.625ZM13.275 19.2H10.725V9L13.275 8.85V19.2ZM12.9 7.2C12.675 7.575 12.45 7.65 12 7.65C11.55 7.65 11.175 7.5 10.95 7.2C10.575 6.975 10.5 6.6 10.5 6.15C10.5 5.775 10.65 5.475 10.875 5.1C11.1 4.725 11.475 4.65 11.925 4.65C12.375 4.65 12.75 4.8 12.975 5.1C13.2 5.325 13.35 5.7 13.35 6.15C13.275 6.525 13.125 6.825 12.9 7.2Z" fill="#007BC7"/>
</svg>
