<svg width="24" height="24" viewBox="0 0 24 24" fill="none" xmlns="http://www.w3.org/2000/svg">
<path d="M18.75 3.75098H5.25V20.9987H18.75V3.75098Z" fill="white"/>
<path d="M3.2175 0.278763C0.2925 0.7512 0 1.86105 0 11.9847C0 22.3108 0.2625 23.1882 3.51 23.7132C5.79 24.0956 18.2025 24.0956 20.46 23.7132C23.8275 23.1582 23.97 22.5958 24 11.9847C24 1.36612 23.8275 0.811193 20.46 0.256266C18.3825 -0.103685 5.295 -0.0736904 3.2175 0.278763ZM17.355 6.46544C17.5575 6.66792 17.7075 7.02037 17.7075 7.26034C17.7075 7.87526 11.8275 17.5865 11.355 17.7589C10.71 17.9914 10.155 17.3165 8.1675 13.9495C6.21 10.6049 6.09 10.2524 6.645 9.69752C7.2 9.14259 7.5525 9.25507 9.2775 10.8149L10.92 12.2547L13.0275 9.8475C15.3675 7.20785 16.455 6.12049 16.8 6.12049C16.92 6.11299 17.1525 6.26297 17.355 6.46544Z" fill="#348834"/>
</svg>
