<svg width="24" height="24" viewBox="0 0 24 24" fill="none" xmlns="http://www.w3.org/2000/svg">
<path d="M23.7736 20.699L13.7383 1.11838C13.289 0.143103 12.1657 -0.232006 11.267 0.143103C10.8176 0.368168 10.5181 0.668254 10.2934 1.11838L0.25817 20.699C-0.490728 22.1245 0.48284 24 1.98064 24H21.9762C23.5489 24 24.4476 22.1995 23.7736 20.699Z" fill="#FFB612"/>
<path d="M10.5181 18.2234C10.5181 17.7732 10.6679 17.3231 10.8926 16.948C11.1172 16.5729 11.5666 16.4228 12.0159 16.4228C12.4652 16.4228 12.8397 16.5729 13.1393 16.873C13.4388 17.2481 13.5886 17.7732 13.5137 18.2234C13.5137 18.6735 13.3639 19.1236 13.1393 19.4987C12.8397 19.8738 12.4652 20.0239 12.0159 20.0239C11.5666 20.0239 11.1921 19.8738 10.8926 19.5738C10.593 19.1987 10.4432 18.6735 10.5181 18.2234ZM10.8177 6.51999L13.3639 6.29492L13.1393 12.5967V15.5976L10.8177 15.6726V6.51999Z" fill="black"/>
</svg>
