<svg xmlns="http://www.w3.org/2000/svg" xml:space="preserve" style="fill-rule:evenodd;clip-rule:evenodd;stroke-linejoin:round;stroke-miterlimit:2" viewBox="0 0 40 80"><path d="M160 0h40v80h-40z" style="fill:#738eab" transform="translate(-160)"/><path d="M180.72 61.89h-.7v-1.93h.7v1.93Zm3.14-8.51h-.7v-1.93h.7v1.93Zm-12.9-3.33c-.05 0-.4 0-.4.07s.16.04.4.08c.57.1.78.38 1.18.38.35 0 .72-.24.57-.76-.02-.08-.07-.06-.09 0-.05.23-.33.36-.63.36-.37 0-.44-.13-1.02-.13h-.01Zm-3.82 1.93c.06.08.72.93-.3 1.26-.04.02-.05.06.02.09.74.31 1.1-.27 1.1-.27.38.87-.2 1.34-.2 1.34.08.15.44.42.98.54.2-.12.5-.32.61-.64 0 0 .15.37.02.73 1.52.14 2.05-1.08 3.23-.85.03 0 .05-.02.05-.05 0-.75-.46-2.12-1.91-2.4-1.45-.28-1.06-.87-1.06-.87.6-.03.96.24.96.24.11-.19-.05-.38-.05-.38.06-.07.09-.32.09-.32-.69 0-.86-.15-.86-.15-.1-.41.17-.99 1.2-.37.25-.22.23-.58.23-.58.08-.04.13-.16.13-.2 0-.17-.82-.63-1.03-.68-.05-.25-.37-.6-1.33-.48-.45.06-.78-.06-.63-.32.03-.05-.05-.06-.1-.01-.1.1-.24.4.15.6.44.22.46.66.47.73.01.1-.1.1-.13 0-.2-.74-1.22-.9-1.82-.5.03.4.46.66.7.66.13 0 .32-.14.32-.32 0-.1.04-.08.07-.01.1.26-.3.81-.87.48-.6.59-.36 1.33-.3 1.59.1.48-.13.95-.57.74-.02-.01-.05-.02-.05.03.01.29.4.63.88.37Zm3.26-2.99c-.28.31-.73.24-.84-.27.58-.03.82.02.84.27Zm17.66 1.19c-.3 0-.58-.13-.64-.36-.01-.06-.06-.08-.08 0-.15.52.22.76.57.76.4 0 .61-.28 1.17-.38.25-.04.42 0 .42-.08 0-.07-.36-.07-.42-.07-.58 0-.66.13-1.02.13Zm5.72 1.41c0-.05-.02-.04-.04-.03-.44.22-.68-.25-.57-.74.05-.27.3-1-.3-1.59-.58.34-.97-.21-.87-.48.02-.07.07-.08.07.01 0 .18.19.32.32.32.23 0 .67-.26.7-.66-.6-.4-1.63-.24-1.83.5-.02.1-.13.1-.12 0 0-.06.03-.5.47-.73.4-.2.25-.5.14-.6-.04-.04-.13-.03-.1.01.16.26-.17.38-.62.33-.96-.13-1.27.23-1.33.47-.2.06-1.02.51-1.02.68 0 .05.05.18.13.2 0 0-.02.35.23.58 1.02-.61 1.3-.04 1.2.37 0 0-.18.15-.87.15 0 0 .03.25.09.32 0 0-.16.2-.05.38 0 0 .35-.26.96-.24 0 0 .39.6-1.06.87-1.45.28-1.91 1.65-1.91 2.4 0 .04.02.06.05.05 1.17-.22 1.71 1 3.23.86-.14-.36.02-.74.02-.74.12.32.4.54.61.64.55-.12.9-.38.98-.54 0 0-.58-.47-.2-1.33 0 0 .36.57 1.1.26.07-.03.05-.07.01-.09-1-.32-.35-1.17-.29-1.26.47.28.87-.06.87-.37Zm-3.3-2.87c-.1.51-.55.58-.83.27.02-.25.27-.3.84-.27h-.01Zm-10.72-8.55c0 .13.06.24.1.3.08.13.07.2.03.24-.04.04-.11.06-.24-.03a.53.53 0 0 0-.3-.1c-.22 0-.33.15-.33.27 0 .12.1.26.32.26a.6.6 0 0 0 .3-.1c.14-.08.2-.07.25-.03.04.04-.02.48-.07.84-.36.08-.54.36-.54.53 0 .44.46.69.74.84.28-.14.75-.4.75-.84 0-.17-.18-.46-.54-.53-.05-.35-.11-.8-.07-.84.04-.04.11-.05.24.04.06.04.18.1.3.1.22 0 .33-.15.33-.27 0-.12-.11-.27-.33-.27a.6.6 0 0 0-.3.1c-.13.09-.2.07-.24.03-.04-.04-.06-.11.03-.24.05-.06.1-.17.1-.3 0-.22-.15-.33-.27-.33-.12 0-.26.11-.26.33Zm.26 3.25a.54.54 0 0 0-.61.53.54.54 0 0 0 .61.54.54.54 0 0 0 .47-.54c0-.26-.2-.5-.47-.53Zm0 5.12c2.14 0 3.34.41 3.34.41 0-1.08 0-1.68.62-1.59-.33-.9 1.12-1.26 1.12-2.44 0-.78-.55-.86-.7-.86-.49 0-.42.3-.82.3-.05 0-.1 0-.1.03 0 .14.1.37.3.37.25 0 .25-.26.44-.26.08 0 .2.07.2.33 0 .5-.32 1.06-.72 1.49a.44.44 0 0 0-.36-.2c-.23 0-.43.24-.43.54 0 .1.02.19.06.28-.1.06-.21.1-.33.1-.18 0-.44-.06-.44-.45 0-.85 1.14-1.6 1.14-2.7 0-.51-.34-1.03-1.07-1.03-.77 0-.63.7-1.3.7-.03 0-.06.02-.06.05 0 .05.12.44.47.44.36 0 .47-.64.8-.64.12 0 .3.07.3.5 0 .34-.16.89-.4 1.41a.49.49 0 0 0-.34-.15c-.28 0-.5.28-.5.6 0 .21.09.42.23.55-.17.22-.34.4-.57.4-.47 0-.67-.27-.67-.56 0-.31.57-.42.57-.9 0-.33-.22-.52-.42-.52-.22 0-.33.15-.36.15-.02 0-.13-.15-.36-.15-.2 0-.41.19-.41.52 0 .48.57.6.57.9 0 .29-.21.55-.67.55-.23 0-.4-.17-.57-.39a.75.75 0 0 0 .22-.54c0-.34-.2-.61-.5-.61a.47.47 0 0 0-.33.15 4.02 4.02 0 0 1-.41-1.4c0-.44.18-.51.3-.51.33 0 .44.64.81.64.35 0 .47-.4.47-.44 0-.03-.03-.04-.06-.04-.67 0-.53-.7-1.3-.7-.72 0-1.08.5-1.08 1.03 0 1.08 1.15 1.84 1.15 2.7 0 .38-.27.45-.44.45a.72.72 0 0 1-.33-.11c.04-.1.06-.17.06-.28 0-.3-.2-.54-.44-.54-.14 0-.26.08-.35.2-.39-.43-.72-.98-.72-1.49 0-.25.12-.33.2-.33.19 0 .2.26.45.26.2 0 .3-.23.3-.37 0-.04-.05-.02-.1-.02-.4 0-.34-.31-.82-.31-.16 0-.7.08-.7.86 0 1.18 1.45 1.54 1.11 2.44.62-.09.61.51.63 1.6-.01 0 1.19-.42 3.32-.42Zm-3.9 1.6c-.6.12-1 .24-1.2.3.02-.26.11-.5.34-.54.04-.01.04-.05.01-.07-.52-.34-.79.31-.8.34-.18-.02-.46.04-.46.29 0 .74-1.7 1.15-2.09 1.21.7.27.98 1.15.98 1.15.5-.5 1.1-.95 1.23-.95.13 0 .18.17.19.27 0 .03.03.04.06.01.26-.39.13-.48.1-.6 0-.09.02-.43.4-.39v4.95l-.2.04c-.09.02-.82-.6-1.64-1.17-.83-.58-1.27-.24-2.22.28-1.24.67-2.48.06-2.48.06-1.07.76-1.44 2.97-1.44 2.97-.21.09-.56.18-.9.18-.8 0-.95-.5-.95-.78 0-1.26 1.57-1.8 1.57-3.03 0-.3-.13-1.52-1.64-1.52h-1.36c-.56 0-.7-.41-.78-.56-.03-.07-.09-.03-.06.02.04.1-.07.26-.07.58 0 .5.3.8.85.8.25 0 .49-.07.56-.12.05-.03.08.02.06.05-.24.28-.26.81-.16.93.02.03.05.02.05 0 .14-.53.63-1.03 1.3-1.03.83 0 .82.7.82.86 0 1.01-1.77 1.75-1.77 3.14 0 1.4 1.5 1.7 2.35 1.49-.05 1.4-1.67 1.88-1.71.88 0-.05-.04-.06-.07 0-.2.5-.12.94.5 1.08.05 0 .03.03-.01.06-.62.4-.29 1.94-.26 2.4.05.66-.6.58-.66.56-.02 0-.06 0 0 .06.46.56 1.03.04 1.03.04.43.14.17.5-.13.7-.04.03-.04.06.01.06.07.01.74.07.86-.47.3.35.73.23.82.18.13-.07.76-.3.82.4 0 .05.03.02.05 0 .48-.6-.03-.97-.32-1.01.03-.03.4-.35.75.09.02.03.05.04.05-.03.04-.76-.58-.82-.98-.5-.02-.07-.15-.5.45-.48.01 0 .04-.02.01-.05-.46-.5-.84-.05-.94.07-.2.24-.73.14-.78.14.16-2.63 2.48-1.7 2.8-2.98.02-.06.05-.04.05-.01.09.31.87.35 1.02-.26 0-.04 0-.06-.03-.04-.67.67-2.18-1.42-.12-3.13a3.01 3.01 0 0 1 3.94-.16c.03.2-.1.28-.18.3-.03 0-.04.03.01.06.17.06.4.04.51-.12.38.27.06.6-.1.7-.03.02-.02.04.02.05.34.06.63-.29.64-.5l.06.03v1.5c0 2.13 2.46 2.42 5.15 4.22 2.7-1.8 5.15-2.1 5.15-4.22v-1.5l.05-.03c.02.2.3.56.65.5.03-.01.05-.03 0-.06-.14-.1-.47-.42-.09-.69.11.16.35.18.51.12.05-.02.04-.05.01-.06-.08-.02-.2-.1-.17-.3a3 3 0 0 1 3.93.16c2.07 1.7.55 3.8-.12 3.13-.03-.03-.03 0-.02.04.14.62.93.57 1.01.26.01-.03.04-.05.05.01.32 1.28 2.63.35 2.8 2.98-.05 0-.57.1-.77-.14-.1-.1-.48-.56-.95-.07-.03.03 0 .05.02.05.6-.02.47.4.45.49-.4-.33-1.02-.27-.98.5 0 .05.02.05.05.02a.48.48 0 0 1 .74-.09c-.28.04-.79.4-.32 1 .03.03.05.06.06.02.06-.7.69-.48.81-.41.1.05.53.17.83-.18.12.54.79.48.85.47.05 0 .05-.03.01-.06-.29-.2-.56-.56-.13-.7 0 0 .58.52 1.04-.04.04-.05.02-.07 0-.06-.06.02-.72.1-.67-.56.03-.46.37-2-.25-2.4-.04-.02-.06-.05-.02-.06.62-.14.7-.58.5-1.08-.02-.06-.06-.04-.06 0-.05 1-1.66.52-1.71-.88.86.22 2.34-.08 2.34-1.5 0-1.38-1.77-2.12-1.77-3.13 0-.17 0-.86.82-.86.67 0 1.17.5 1.3 1.03.01.02.04.03.06 0 .1-.13.08-.65-.16-.93-.02-.02 0-.08.06-.05.07.05.3.12.56.12.55 0 .84-.3.84-.8 0-.32-.1-.48-.06-.58.02-.05-.04-.08-.06-.02-.08.16-.23.56-.79.56h-1.35c-1.51 0-1.65 1.22-1.65 1.52 0 1.24 1.58 1.77 1.58 3.03 0 .3-.15.78-.96.78-.34 0-.69-.1-.9-.18 0 0-.36-2.2-1.43-2.97 0 0-1.25.6-2.49-.06-.94-.52-1.39-.86-2.22-.28-.83.57-1.55 1.19-1.64 1.17l-.2-.04v-4.95c.38-.04.4.3.39.4-.02.1-.14.2.11.6.03.02.05 0 .06-.02 0-.1.06-.27.19-.27s.72.44 1.22.95c0 0 .3-.88.99-1.15-.4-.06-2.09-.47-2.09-1.21 0-.25-.28-.3-.46-.3-.01-.02-.3-.67-.8-.33-.03.02-.03.06 0 .07.24.05.33.28.34.54-.5-.15-2.6-.74-5.1-.74-1.21 0-2.32.14-3.21.3v1.71h-.7v-1.57m-4.6 17.58c-.19-.07-.31-.2-.31-.44v-1.06c-.3-.1-1.14-.43-2.8-.43-1.4 0-1.82.31-1.85.43l-.37 2.02s.56-.51 2.57-.38c2.42.15 4.92 1.58 4.92.05v-.9c-1.89.01-2.17.62-2.17.71h.01Zm14.87-.7v.9c0 1.52 2.5.1 4.92-.06 2-.12 2.56.39 2.56.39l-.36-2.03c-.02-.12-.46-.43-1.84-.43-1.67 0-2.5.32-2.81.43v1.06c0 .24-.12.36-.3.44 0-.09-.28-.7-2.17-.7Zm-6.36-.92c3.9 0 7.85.2 8.36.8.04.04.06 0 .06-.04v-2.07c0-.6-4.08-.95-8.42-.95-4.35 0-8.43.35-8.43.95v2.07c0 .03.02.08.06.04.53-.59 4.49-.8 8.37-.8Zm-3.47-9.72-.39-.1-.03.04-.46-.2h.41c.04 0 .04-.02.02-.04l-.35-.34.45.16c.03.01.04 0 .02-.03l-.3-.44.44.3c.02.01.04 0 .03-.03l-.2-.52.4.39c.01.01.03 0 .03-.02l-.12-.52.3.43c.02.03.04.02.04 0v-.48l.2.44c0 .03.02.03.04-.01l.15-.37.02.5-.07.01-.08.6c.59-.14 1.32-1.15 1.88-1.15.68 0 .92.78 2.15.38.31.47.42.87.54 1.42.48.45 1.15.3 1.15-.18 0-.64-.7-.76-.7-1.43 0-.3.2-.73.78-.73.3 0 .74.13 1 .13.3 0 .36-.21.4-.31.02-.06.1-.05.1 0 0 .07.03.16.03.3 0 .43-.61.48-.69.43-.03-.03-.05 0-.03.03.1.07.07.33-.04.49h-.03c-.06-.3-.42-.68-.74-.68-.1 0-.34.06-.34.33 0 .38.76.73.76 1.52 0 .81-.8 1.01-1.62.8.02.78 1.18 1.24 1.2.68 0-.04.03-.01.04 0 .16.24.1.42-.13.52.2.08.24.5.3.74.08.37.47.16.49.15.02-.01.03 0 .02.03-.15.37-.54.23-.54.23-.2.14.04.27.22.33.03 0 .03.02.01.04-.13.04-.42.14-.57-.1-.1.25-.32.24-.4.24-.15 0-.24.15-.21.36 0 .02-.01.02-.03.02-.35-.24-.15-.52 0-.59-.03-.01-.28-.12-.38.17 0 .02-.02.02-.03 0-.15-.42.18-.54.42-.43-.01-.06-.14-.27-.46-.2-.02.01-.03 0-.02-.02.06-.13.21-.31.5-.13.16.1.41-.04.44-.05-.52-1.03-1.52-.17-1.75-.98-.01-.01-.03-.03-.04.02-.06.17-.5.18-.58-.15 0-.03 0-.04.02-.02.07.06.2.12.39-.14.12-.17.13-.4.13-.56 0-.62-.62-1.68-1.6-1.68-.61 0-1.28.24-1.77.6l.45.1a.7.7 0 0 1-.9.62l.08-.52a.7.7 0 0 0-.34.22h-.03c-.08-.31.17-.46.24-.5-.16 0-.3.07-.39.2h-.02c.03-.06-.01-.21.1-.32h-.01Zm1.37 3.58c-.18.22-.33 0-.56 0-.22 0-.26.2-.26.26 0 .02 0 .02-.01.01-.25-.33.03-.52.19-.54-.02-.03-.26-.19-.42.04l-.02-.01c0-.42.32-.45.54-.26.04-.16-.06-.27-.24-.28-.02 0-.02-.01-.01-.02.07-.08.14-.11.21-.11.24 0 .27.3.42.3.22 0 .55-.31.58-.34a2.68 2.68 0 0 1-.19-.96c0-.02 0-.02-.01-.01-.12.06-.39.06-.39-.28 0-.02.01-.03.03 0 .12.16.32-.03.41-.14.1-.12.68-.96 1.44-.96.17 0 .39.1.56.22-.26.32 0 .62.2.58.02 0 .02.02 0 .03-1 .37-1.45.53-1.45 1.37 0 .44.15.7.4.63.02-.01.03 0 .01.01-.1.12-.2.16-.29.16-.2 0-.24-.12-.36-.12-.1 0-.48.23-.48.41 0 .07.04.17.17.25v.02c-.11 0-.4.02-.47-.26Zm2.65-8.2c-.31-.02-.52.05-.5.15.15.16.35.15.5-.15Zm-1.16.78c.22-.06.46-.04.5-.03.03.01.03.07-.01.07-.47.06-.5.28-.79.28-.19 0-.4-.2-.33-.5.01-.03.04-.03.05 0 .03.14.22.27.58.18Zm-6.03 10.28c.3.4.6.03 1.01.03.2 0 .44.06.48.46 0 .03.02.03.04 0 .44-.6-.06-.93-.35-.98.06-.06.49-.32.77.07.01.02.05.02.05-.02 0-.76-.57-.81-.99-.48-.08-.3.15-.5.43-.5.04 0 .05-.02.04-.03-.52-.55-.9.14-.98.25-.2.27-.93-.24-1.22-.55 0 0 .64-.67.64-1.29l-.01-.1c0-.02 0-.03.02-.02.07.04.15.06.24.06.15 0 .43-.05.43-.57 0-.04-.02-.04-.04-.01-.08.1-.16.13-.22.13-.52 0-1.6-1.73-2.88-1.73-.34 0-.97.24-1.28.59.15.09.18.28.17.41-.03.22-.2.33-.38.38-.03 0-.03.03 0 .05.65.25 1.82.69 2.09.92.31.27.26.78.07 1.5-.17.67-.55.59-.7.56-.02 0-.02.01-.01.03.17.2.37.28.54.28.34 0 .47-.21.64-.21.28 0 .9.41.9.73 0 .18-.14.35-.32.46v.02c.14.03.71.08.82-.44Zm14.1.44c.02 0 .03-.01.02-.02-.18-.12-.32-.28-.32-.46 0-.32.6-.73.9-.73.18 0 .3.2.63.2a.7.7 0 0 0 .55-.27c.01-.02 0-.04-.02-.03-.14.03-.52.11-.7-.57-.18-.7-.24-1.22.08-1.5.26-.22 1.44-.66 2.08-.91.04-.02.04-.04 0-.05-.17-.05-.35-.16-.37-.38-.02-.13.01-.32.17-.41a2.13 2.13 0 0 0-1.3-.59c-1.27 0-2.35 1.73-2.87 1.73-.07 0-.15-.02-.23-.13-.01-.03-.03-.03-.03.01 0 .52.28.57.43.57a.5.5 0 0 0 .24-.06c.01-.01.02 0 .02.01v.11c0 .62.63 1.3.63 1.3-.29.3-1.01.8-1.22.54-.09-.12-.47-.8-.98-.25-.01.02 0 .04.03.04.3 0 .52.19.44.49-.42-.33-.99-.28-.99.48 0 .04.03.04.05.02.27-.4.7-.13.76-.07-.29.04-.78.38-.35.98.01.03.03.03.04 0 .05-.39.29-.46.48-.46.4 0 .7.37 1-.03.13.52.7.47.84.44h-.01Zm-10.32-9.97c-.04.05-.18 0-.22-.03-.01 0-.02 0-.01.01.03.07.16.29.35.29.09 0 .22-.05.25-.11 0 0 .75.25 1.12.34-.15.2-.23.43-.26.67-.3-.18-1.5-.82-1.5-.82l-.36.51c-.07.08-.36-.13-.3-.21l.28-.4c-.1-.1-.32-.04-.38-.01-.01 0-.02 0-.01-.02.04-.08.18-.31.53-.2 0-.22-.32-.15-.41-.13 0 0-.02 0 0 0 .08-.1.34-.3.63-.13l.13-.18-.26-.27.16-.22.19.24 1.38-1.9c.03-.05.31-.13.41-.15 0 .1.02.39 0 .44l-1.37 1.91.29.1-.16.22-.34-.16-.14.2v.01Zm4.86-.31c0 .17.1.43.33.35h.02c-.03.2-.39.37-.54.15-.14.3-.1.58.2.74v.04a.4.4 0 0 1-.6-.15c-.25.19-.21.59-.06.72 0 0-.69.41-1.31.12-.42-.2-.76-.45-1.3-.4.08-.76.46-.95 1.14-1.06.56-.09.62-.35.55-.54-.19-.05-.53.12-.53.12-.06-.1.02-.2.02-.2-.03-.05-.04-.18-.04-.18.38 0 .45-.09.45-.09.07-.4-.33-.44-.65-.22-.14-.13-.12-.3-.12-.3a.18.18 0 0 1-.07-.12c0-.1.46-.35.58-.38.03-.14.19-.32.68-.28.05-.12-.04-.6-.1-.72-.01-.04.01-.05.05-.03.17.1.34.5.46.51 0 0 .54-.28.56-.27.03.02.1.63.1.63.08.08.5 0 .69.08.05.02.05.05 0 .06-.14.02-.58.22-.65.34.26.37.14.92.14 1.08Z" style="fill:#fff;fill-rule:nonzero" transform="translate(-160)"/></svg>
