<svg width="220" height="200" viewBox="0 0 220 200" fill="none" xmlns="http://www.w3.org/2000/svg">
<path d="M59.9134 5.5578H2.33447V89.0361H59.9134V5.5578Z" fill="#E1F6F8"/>
<path d="M26.4552 52.0211C27.1221 50.2426 27.4556 48.3529 27.4556 46.241C27.4556 42.3505 26.1217 38.6823 23.7874 35.7923C21.8978 33.3468 21.0085 30.1233 21.7866 27.1221C22.0089 26.2329 22.1201 25.3436 22.1201 24.3432C22.1201 17.5627 16.2288 12.2272 9.33714 13.0053C6.55824 13.3387 4.00164 14.6726 2.22314 16.6734V88.9249H31.6795C33.2357 86.0349 34.125 82.8114 34.3473 79.3655C34.6808 72.6961 32.3465 66.5826 28.2337 62.1363C25.8994 59.4686 25.1213 55.4669 26.4552 52.0211Z" fill="#C2EDF1"/>
<path d="M31.124 0V95.4832" stroke="white" stroke-width="1.027" stroke-miterlimit="10"/>
<path d="M0 33.2357H62.9144" stroke="white" stroke-width="1.027" stroke-miterlimit="10"/>
<path d="M0 61.4694H62.9144" stroke="white" stroke-width="1.027" stroke-miterlimit="10"/>
<path d="M125.94 199.192C177.446 199.192 219.2 198.296 219.2 197.191C219.2 196.086 177.446 195.19 125.94 195.19C74.4336 195.19 32.6797 196.086 32.6797 197.191C32.6797 198.296 74.4336 199.192 125.94 199.192Z" fill="#E1F6F8"/>
<path d="M72.9184 120.382H39.905C36.9038 120.382 34.3472 122.828 34.3472 125.94V174.182C34.3472 177.183 36.7926 179.74 39.905 179.74H72.8072C75.8084 179.74 78.365 177.294 78.365 174.182V125.94C78.365 122.828 75.9196 120.382 72.9184 120.382Z" fill="#CBF0F3"/>
<path d="M85.9239 120.382H54.5778C51.5766 120.382 49.02 122.828 49.02 125.94V174.182C49.02 177.183 51.4655 179.74 54.5778 179.74H85.9239C88.9251 179.74 91.4817 177.294 91.4817 174.182V125.94C91.3705 122.828 88.9251 120.382 85.9239 120.382Z" fill="#97E0E7"/>
<path d="M154.285 178.961L155.396 184.742L157.619 195.968C157.731 196.746 158.397 197.302 159.176 197.302H161.51C162.399 197.302 163.177 196.524 163.177 195.635V178.961H154.285Z" fill="#008FCD"/>
<path d="M163.177 178.961H154.285L155.285 183.852L163.177 183.963V178.961Z" fill="#0069D1"/>
<path d="M193.967 178.961H202.86V195.635C202.86 196.524 202.082 197.302 201.192 197.302H198.858C198.08 197.302 197.413 196.746 197.302 195.968L193.967 178.961Z" fill="#004CBC"/>
<path d="M96.039 178.961H87.1465V195.635C87.1465 196.524 87.9246 197.302 88.8138 197.302H91.1481C91.9262 197.302 92.5931 196.746 92.7043 195.968L96.039 178.961Z" fill="#004CBC"/>
<path d="M47.4634 178.961V195.635C47.4634 196.524 48.2415 197.302 49.1307 197.302H51.465C52.2431 197.302 52.91 196.746 53.0212 195.968L55.2443 184.742L56.3559 178.961H47.4634Z" fill="#008FCD"/>
<path d="M55.6889 182.518L56.3559 178.961H47.4634V182.407L55.6889 182.518Z" fill="#0069D1"/>
<path d="M201.748 151.061L211.641 108.044C213.197 100.708 206.75 92.7043 199.97 92.7043H110.823C104.042 92.7043 97.2615 98.1509 95.7053 104.931L85.1455 150.95H201.748V151.061Z" fill="#CBF0F3"/>
<path d="M191.077 92.7043H99.0399C92.2593 92.7043 85.4788 98.1509 83.9226 104.931L73.3628 150.95H189.966L200.525 104.931C202.082 98.1509 197.858 92.7043 191.077 92.7043Z" fill="#CBF0F3"/>
<path d="M92.3704 147.06H67.916C66.0264 147.06 64.4702 145.726 64.0255 143.947L60.3574 128.163C59.8016 125.718 61.2466 123.828 63.6921 123.828H86.3679C88.8134 123.828 91.1477 125.718 91.7034 128.163L95.2604 143.391C95.7051 145.281 94.26 147.06 92.3704 147.06Z" fill="white"/>
<path d="M171.069 147.171H45.6851V179.74H171.069V147.171Z" fill="#CBF0F3"/>
<path d="M137.278 103.375L160.176 91.1481L157.508 105.821C157.508 105.821 140.057 115.38 134.166 114.38C127.941 113.268 124.384 91.2592 123.717 86.0349C123.606 85.3679 124.05 84.8122 124.606 84.5898L130.942 82.7002L137.278 103.375Z" fill="#79D4E7"/>
<path d="M125.273 86.3683H124.717C123.828 86.3683 123.161 85.7014 122.939 84.9233L121.827 78.4762C121.605 77.3647 122.049 76.2531 122.939 75.475L124.717 73.9188L125.829 76.2531L125.273 86.3683Z" fill="#FF7254"/>
<path d="M132.832 87.2576H126.607C125.718 87.2576 124.94 86.5907 124.828 85.7015L124.606 84.4787L122.494 71.9181V71.6958C122.383 70.8065 122.939 70.1396 123.828 70.1396H130.053C130.942 70.1396 131.72 70.8065 131.831 71.5846V71.9181L133.943 84.4787L134.165 85.5903C134.277 86.5907 133.61 87.2576 132.832 87.2576Z" fill="black"/>
<path d="M133.276 84.8122H125.829L123.828 72.8073H131.276L133.276 84.8122Z" fill="#38BFDB"/>
<path d="M123.05 75.4751L123.94 74.8081C124.384 74.4747 125.051 74.5858 125.385 75.1416C125.607 75.5862 125.496 76.142 125.162 76.4755L123.161 78.0317L122.717 76.3643L123.05 75.4751Z" fill="#FF7254"/>
<path d="M123.161 77.8094L124.162 77.0313C124.606 76.6978 125.273 76.809 125.607 77.3647C125.829 77.8094 125.718 78.3651 125.384 78.6986L123.384 80.2548L122.939 78.5875L123.161 77.8094Z" fill="#FF7254"/>
<path d="M123.383 79.9214L124.384 79.1433C124.828 78.8098 125.495 78.9209 125.829 79.4767C126.051 79.9213 125.94 80.4771 125.607 80.8106L123.606 82.3668L123.161 80.6994L123.383 79.9214Z" fill="#FF7254"/>
<path d="M134.388 82.3668L133.832 84.0341L133.388 81.5887L131.387 79.9213C130.942 79.5879 130.942 78.9209 131.165 78.5875C131.498 78.1428 132.054 78.1428 132.498 78.3651L133.61 79.2544C134.277 79.8102 134.499 80.5883 134.388 81.3664V82.3668Z" fill="#FF7254"/>
<path d="M158.509 92.2596L145.504 111.601C149.283 110.045 152.951 108.266 155.174 107.043L158.509 92.2596Z" fill="#38BFDB"/>
<path d="M175.405 89.8142H165.178C159.954 89.8142 153.396 95.0385 153.062 98.929C152.729 101.93 155.285 104.82 155.285 104.82L144.392 136.166H180.407L181.296 123.161C182.852 116.714 184.186 106.599 184.853 101.708C185.409 97.484 183.519 93.26 179.962 91.1481C178.406 90.37 176.85 89.8142 175.405 89.8142Z" fill="#79D4E7"/>
<path fill-rule="evenodd" clip-rule="evenodd" d="M167.179 96.039C170.18 96.4836 174.293 93.4824 176.405 91.7039C176.961 91.2592 177.072 90.4812 176.738 89.9254C176.294 89.8142 175.849 89.8142 175.404 89.8142H165.178C164.733 89.8142 164.4 89.8142 163.955 89.9254C163.511 90.2588 163.288 90.8146 163.288 91.2592C163.177 92.2596 163.955 95.4832 167.179 96.039Z" fill="#FF7254"/>
<path d="M115.825 186.52L114.713 189.855C114.269 191.3 113.046 192.411 111.601 192.967L107.488 194.412C106.932 194.634 106.488 195.19 106.488 195.746C106.488 196.524 107.155 197.191 107.933 197.191H117.937C119.271 197.191 120.382 196.302 120.605 194.968L122.161 188.076L115.825 186.52Z" fill="#004CBC"/>
<path d="M119.826 193.634C118.492 193.634 117.381 194.746 117.381 196.08C117.381 196.524 117.492 196.858 117.603 197.191H117.937C119.271 197.191 120.382 196.302 120.604 194.968L120.827 193.856C120.604 193.745 120.271 193.634 119.826 193.634Z" fill="#326FC9"/>
<path d="M98.151 156.286L94.9275 159.176C94.1494 159.843 93.149 160.287 92.0374 160.176L86.9242 160.065C86.2573 160.065 85.7015 160.398 85.368 161.065C85.0346 161.843 85.4792 162.844 86.3685 163.066L95.1498 166.067C96.4837 166.512 98.0399 166.178 98.9291 165.067L103.264 160.287L98.151 156.286Z" fill="#004CBC"/>
<path d="M98.9294 165.178L99.374 164.622C98.9294 163.733 98.0401 163.177 97.0397 163.288C95.7058 163.4 94.5943 164.511 94.7054 165.956V166.067L95.15 166.178C96.4839 166.512 97.929 166.178 98.9294 165.178Z" fill="#326FC9"/>
<path d="M160.621 147.171H137.056C137.056 147.171 135.055 153.951 132.276 163.066C132.165 163.4 132.054 163.733 131.943 164.178C128.941 173.848 125.273 181.296 122.383 189.077L115.047 187.409C116.603 178.406 117.715 172.959 119.271 163.066C120.049 157.619 121.049 152.062 122.161 146.17C123.272 142.502 124.829 139.723 126.829 137.611C129.053 135.388 131.72 133.943 134.722 133.054C139.279 131.72 144.726 131.387 150.728 131.387H150.839C153.952 131.387 157.175 131.498 160.51 131.498L160.621 147.171Z" fill="#FFB612"/>
<path d="M180.74 131.275C180.184 140.168 173.849 146.948 163.956 146.948H158.62V131.275H180.74Z" fill="#FFB612"/>
<path d="M161.955 145.17L142.836 131.387C142.836 131.387 137.278 135.722 129.72 141.502C129.386 141.724 129.164 141.946 128.83 142.169C120.716 148.393 111.045 156.286 103.264 162.177L97.1509 156.952C104.932 148.838 111.601 141.502 119.049 133.943C122.828 130.053 126.83 126.051 131.276 121.938C134.277 119.604 137.278 118.27 140.057 117.714C143.17 117.159 146.171 117.603 149.172 118.604C153.729 120.16 158.176 123.161 163.066 126.607L163.178 126.718C165.734 128.496 168.291 130.497 171.07 132.387L161.955 145.17Z" fill="#FFB612"/>
<path d="M142.835 131.387L155.285 143.503C157.619 145.726 160.732 147.06 163.955 147.06H150.394L142.835 131.387Z" fill="#FF9C12"/>
<path fill-rule="evenodd" clip-rule="evenodd" d="M170.959 63.9148C170.959 63.9148 186.298 62.9144 184.186 88.5914H158.287C158.176 88.5914 156.842 63.0255 170.959 63.9148Z" fill="black"/>
<path fill-rule="evenodd" clip-rule="evenodd" d="M174.515 90.1476L166.179 90.3699L167.957 79.2543L175.182 77.2535L174.515 90.1476Z" fill="#FF7254"/>
<path d="M167.179 83.7006L166.624 86.9241C166.624 86.9241 171.959 83.7006 172.07 83.7006H167.179Z" fill="#F25A37"/>
<path fill-rule="evenodd" clip-rule="evenodd" d="M160.621 78.8096C160.954 82.0332 162.399 84.2563 166.29 84.7009H166.401C166.623 84.7009 168.402 84.8121 168.958 84.7009C170.958 84.3675 172.959 83.9228 174.627 82.3666C175.071 82.0332 175.405 80.9216 175.849 80.477C175.96 80.3658 176.072 80.1435 176.183 80.0323C176.294 79.81 176.516 79.5877 176.627 79.3654C176.739 79.2543 176.85 79.0319 176.85 78.9208C177.517 77.6981 177.961 76.3642 178.072 75.0303C178.295 72.1403 177.961 69.9171 177.072 68.2498C176.516 67.1382 175.738 66.3602 174.849 65.8044C174.293 65.4709 173.737 65.2486 173.07 65.0263C172.737 64.9151 172.515 64.9151 172.181 64.804C171.848 64.804 171.625 64.6928 171.292 64.6928C171.292 64.6928 171.292 64.6928 171.181 64.6928H171.07C170.736 64.6928 170.403 64.6928 170.18 64.6928C169.847 64.6928 169.402 64.6928 169.069 64.6928C168.846 64.6928 168.513 64.6928 168.291 64.804H168.18C168.068 64.804 168.068 64.804 167.957 64.804C167.735 64.9151 167.513 64.9151 167.29 65.0263H167.179C166.957 65.1374 166.735 65.1374 166.512 65.2486C166.401 65.3597 166.179 65.3597 165.956 65.4709C165.734 65.5821 165.623 65.6932 165.401 65.8044C165.289 65.9155 165.067 66.0267 164.956 66.1378C164.511 66.4713 164.067 66.8048 163.733 67.2494C163.622 67.3605 163.511 67.4717 163.4 67.5829C163.289 67.694 163.289 67.694 163.178 67.8052C161.51 69.9171 160.621 72.9184 160.51 75.9196C160.51 76.0307 160.51 76.1419 160.51 76.3642C160.51 77.1423 160.621 78.0315 160.621 78.8096Z" fill="#FF7254"/>
<path fill-rule="evenodd" clip-rule="evenodd" d="M169.847 64.3594C170.18 64.804 170.291 66.8048 170.514 68.9168C170.847 72.1403 175.293 75.9196 174.96 82.1444C176.738 81.0328 178.628 76.4754 178.628 75.2527C178.85 72.3626 178.517 69.806 177.628 68.1387C177.072 67.0271 176.183 66.0267 175.182 65.4709C174.626 65.1375 173.737 64.804 173.07 64.6928C172.737 64.5817 172.181 64.4705 171.847 64.4705C171.625 64.3594 170.18 64.4705 169.847 64.3594Z" fill="black"/>
<path d="M174.404 77.8093C175.509 77.8093 176.405 76.9135 176.405 75.8085C176.405 74.7035 175.509 73.8077 174.404 73.8077C173.299 73.8077 172.403 74.7035 172.403 75.8085C172.403 76.9135 173.299 77.8093 174.404 77.8093Z" fill="#FF7254"/>
<path fill-rule="evenodd" clip-rule="evenodd" d="M169.847 64.5817C169.513 64.5817 169.069 64.5817 168.735 64.5817C168.402 64.5817 168.068 64.6929 167.846 64.6929C167.735 64.6929 167.735 64.6929 167.624 64.6929C167.401 64.6929 167.179 64.804 166.957 64.9152H166.846C165.289 65.471 164.067 66.3602 162.955 67.6941C164.511 70.1395 174.515 73.0296 174.515 73.1407L174.96 65.8045C173.515 64.804 171.625 64.6929 170.958 64.5817H170.847C170.514 64.6929 170.18 64.6929 169.847 64.5817Z" fill="black"/>
<path d="M167.291 78.6985L164.178 78.8097" stroke="black" stroke-width="0.5" stroke-miterlimit="10" stroke-linecap="round"/>
<path d="M174.515 117.047L169.513 117.159C167.957 117.159 166.512 118.048 165.734 119.382L165.178 120.493H166.957L167.068 120.382V120.493H167.846H169.624H170.514H172.292H173.07H178.295C177.961 118.493 176.405 116.936 174.515 117.047Z" fill="#FF7254"/>
<path d="M196.191 120.382H166.512C163.511 120.382 160.954 122.828 160.954 125.94V174.182C160.954 177.183 163.4 179.74 166.512 179.74H196.191C199.192 179.74 201.748 177.294 201.748 174.182V125.94C201.748 122.828 199.303 120.382 196.191 120.382Z" fill="#CBF0F3"/>
<path d="M210.752 120.382H181.073C178.072 120.382 175.516 122.828 175.516 125.94V174.182C175.516 177.183 177.961 179.74 181.073 179.74H210.752C213.753 179.74 216.31 177.294 216.31 174.182V125.94C216.31 122.828 213.865 120.382 210.752 120.382Z" fill="#97E0E7"/>
<path d="M183.741 109.155L179.739 104.265L177.294 114.38L182.963 113.935C183.185 112.379 183.519 110.712 183.741 109.155Z" fill="#38BFDB"/>
<path d="M165.289 120.271L164.622 121.605C164.289 122.161 164.622 122.939 165.289 123.161C165.845 123.383 166.401 123.161 166.734 122.605L168.068 120.049L166.067 119.938L165.289 120.271Z" fill="#FF7254"/>
<path d="M167.735 120.271L167.068 121.605C166.734 122.161 167.068 122.939 167.735 123.161C168.291 123.383 168.846 123.161 169.18 122.605L170.514 120.049L168.513 119.938L167.735 120.271Z" fill="#FF7254"/>
<path d="M170.18 120.271L169.513 121.605C169.179 122.161 169.513 122.939 170.18 123.161C170.735 123.383 171.291 123.161 171.625 122.605L172.958 120.049L170.958 119.938L170.18 120.271Z" fill="#FF7254"/>
<path d="M197.191 113.046L182.963 94.1492L178.961 104.376L187.409 113.713L175.182 113.935L173.626 120.382H194.412C197.636 120.382 199.192 115.936 197.191 113.046Z" fill="#79D4E7"/>
<path d="M94.5939 60.2466H122.383C126.718 60.2466 130.164 56.8008 130.164 52.4657V24.899C130.164 20.5639 126.718 17.118 122.383 17.118H94.5939C90.2588 17.118 86.813 20.5639 86.813 24.899V52.4657C86.813 56.8008 90.2588 60.2466 94.5939 60.2466Z" fill="#D52B1E"/>
<path d="M94.5939 60.2466H122.383C126.718 60.2466 130.164 56.8008 130.164 52.4657V24.899C130.164 20.5639 126.718 17.118 122.383 17.118H94.5939C90.2588 17.118 86.813 20.5639 86.813 24.899V52.4657C86.813 56.8008 90.2588 60.2466 94.5939 60.2466Z" fill="#D52B1E"/>
<path d="M121.271 58.1347V66.6937C121.271 67.6941 120.16 68.1388 119.493 67.4718L110.156 58.1347H121.271Z" fill="#D52B1E"/>
<path d="M106.598 26.2329H110.266C111.156 26.2329 111.823 26.8998 111.711 27.7891L110.933 41.5725C110.933 42.3506 110.266 43.0175 109.488 43.0175H107.376C106.598 43.0175 105.931 42.3506 105.931 41.5725L105.153 27.7891C105.042 27.011 105.709 26.2329 106.598 26.2329Z" fill="#FAFAFA"/>
<path d="M108.488 50.6872C110.084 50.6872 111.378 49.3933 111.378 47.7972C111.378 46.201 110.084 44.9071 108.488 44.9071C106.892 44.9071 105.598 46.201 105.598 47.7972C105.598 49.3933 106.892 50.6872 108.488 50.6872Z" fill="#FAFAFA"/>
</svg>
