<svg xmlns="http://www.w3.org/2000/svg" width="330" height="332" fill="none"><path fill="#E6E6E6" d="M165 331.84c91.07 0 164.9-74.25 164.9-165.84C329.9 74.4 256.08.16 165 .16 73.93.16.1 74.4.1 166c0 91.6 73.83 165.84 164.9 165.84Z"/><path fill="#004CBB" d="M97.03 317.08A162.2 162.2 0 0 0 165 331.84c20.71 0 40.42-3.84 58.52-10.72-5.83-22.65-13.67-32.96-24.13-43.68l-.2-.2h-85.47c-.2.2-.4.4-.8.6-.6.6-1.21 1.22-1.82 2.02-.2.2-.6.61-.8 1.01-.2.41-.6.61-.8 1.02-.6.6-1.01 1.41-1.61 2.22-.2.4-.4.81-.8 1.21a71.59 71.59 0 0 0-7.05 15.38 88.86 88.86 0 0 0-3.01 16.38Z"/><path fill="#0034B0" d="m107.28 285.12 82.86-7.88h-76.22c-2.41 2.02-4.63 4.85-6.64 7.88Z"/><path fill="#000" fill-rule="evenodd" d="M150.72 36.97s-55.7-1.42-48.06 94.04h94.32c-.2 0 5.02-97.48-46.26-94.04Z" clip-rule="evenodd"/><path fill="#FF9D12" d="M186.12 146.38c17.9 6.27 45.85 66.74 45.85 66.74l30.97-45.7 20.91 7.68s-8.85 38.43-33.98 66.14c-5.84 6.26-18.5 8.7-27.56 5.05-16.28-6.47-22.52-28.11-22.52-28.11l-13.47-49.35v-22.45h-.2Z"/><path fill="#EC8A12" d="m229.35 207.87 2.62 5.25-3.62 7.69s-.6-6.88 1-12.94Z"/><path fill="#FFB512" fill-rule="evenodd" d="M216.88 201.8c0-4.25-1.2-8.3-3.41-11.53a33.46 33.46 0 0 1-4.43-11.53 48.06 48.06 0 0 0-31.37-36.2l-8.85-3.03-33.78-.2-10.46 4.24c-20.92 4.65-35 28.11-28.56 55.62l11.46 71.8c.6 3.84 3.83 7.07 7.65 7.07h80.64c4.02 0 7.44-2.63 7.84-6.67l4.22-52.18a21.2 21.2 0 0 0 9.05-17.4Z" clip-rule="evenodd"/><path fill="#FF9D12" d="m119.35 191.89-16.09-14.36c-.2.4-.4.8-.8 1.21-1.21 1.01-2.42 1.82-3.62 2.63-.6.4-1.21.81-2.01 1.21-.2 0-.4.2-.4.2l-.2.2s0 .21-.2.21c-.41.6-.81.81-1.42.81-.2 4.85.2 9.91 1.41 15.17l11.46 71.8c.6 3.84 3.83 7.07 7.65 7.07h2.4c6.44-10.31 26.15-44.09 26.15-44.09l-24.33-42.06Z"/><path fill="#008ECC" d="M98.84 308.58c7.84-20.02 34.19-92.83 34.19-164.62a4.26 4.26 0 0 0-4.23-4.25 4.14 4.14 0 0 0-4.22 4.25c0 71.19-26.55 143.39-33.79 162.2 2.82.8 5.43 1.61 8.05 2.42Z"/><path fill="#FF7254" fill-rule="evenodd" d="m196.97 167.62 12.47-19.82a15.55 15.55 0 0 1 20.72-5.06l13.07 7.69c1.4.8 1.8 2.42 1.4 3.84a3.12 3.12 0 0 1-4.02 1.82l-12.06-4.65 1 4.85c.4 2.43.2 4.86-.6 7.08a13.2 13.2 0 0 1-14.88 8.5l-5.03 6.06-12.07-10.31Z" clip-rule="evenodd"/><path fill="#FFB512" d="M94.21 184c.6 11.33 21.32 42.88 37.4 58.85 5.24 5.26 14.29 8.5 27.36 0 19.5-12.94 38.2-43.07 48.46-56.63a12.8 12.8 0 0 0 .2-15.16c-4.42-6.27-13.47-6.88-18.9-1.62l-38.41 43.48-29.76-55.62L94.2 184Z"/><path fill="#FFCA55" d="M150.32 214.34c-.2 0-.2 0 0 0-.6 0-1-.4-1.2-.81l-27.76-51.57c-.4-.61-.2-1.62.6-2.03.6-.4 1.61-.2 2.01.6l26.75 49.76 35.6-40.85c.6-.6 1.4-.6 2-.2.61.6.61 1.41.2 2.02l-37 42.47c-.4.4-.8.6-1.2.6Z"/><path fill="#FF9D12" d="M142.68 250.54a18.66 18.66 0 0 1-12.67-4.85l2-2.23c3.03 2.83 11.67 8.3 26.35-1.42 25.74-16.98 51.69-59.86 52.09-60.26l2.41 1.41c-1 1.82-26.54 43.69-52.89 61.08-7.04 4.65-12.87 6.27-17.3 6.27Z"/><path fill="#FFCA55" d="M146.5 220.4h-.4c-.8-.2-1.21-1-1-1.82 0-.2 1-3.64 4.01-6.67.6-.6 1.41-.6 2.01 0 .6.6.6 1.41 0 2.02a13.59 13.59 0 0 0-3.21 5.46c-.2.6-.6 1.01-1.41 1.01Z"/><path fill="#FFCA55" d="M143.68 215.55c-.6 0-1-.4-1.4-.8-.4-.82 0-1.63.8-1.83l5.83-2.43c.8-.4 1.61 0 1.81.81.4.81 0 1.62-.8 1.82l-5.83 2.43c0-.2-.2 0-.4 0Z"/><path fill="#FF7254" fill-rule="evenodd" d="m136.24 133.03 30.57.81L160.37 93l-26.74-7.08 2.61 47.12Z" clip-rule="evenodd"/><path fill="#F15A37" fill-rule="evenodd" d="m162.59 107.35 2.61 16.18-22.52-16.99 19.9.8Z" clip-rule="evenodd"/><path fill="#FFB512" fill-rule="evenodd" d="m169.43 141.73-2.02-14.56h-32.78v14.56h34.8Z" clip-rule="evenodd"/><path fill="#FF7254" fill-rule="evenodd" d="M184.5 89.55c-.6 11.73-5.22 20.23-19.3 22.86-.2 0-.4.2-.6.2-1 .2-7.44.6-9.45.4-7.44-.8-14.89-4.45-21.12-9.7a48.3 48.3 0 0 1-4.63-4.46c-.6-.6-1-1.2-1.4-1.61-.6-.81-1.21-1.62-1.81-2.23-.4-.6-.8-1.01-1-1.62-2.82-4.45-4.83-9.1-5.44-13.95-1.4-10.52-.6-18.81 2.21-25.08 1.81-4.04 4.23-7.08 7.64-9.3a27.14 27.14 0 0 1 6.44-3.04 15 15 0 0 1 3.22-.8c1-.2 2-.41 3.22-.61H143.08c1-.2 2.21-.2 3.42-.4 1.4-.2 2.61-.2 4.02-.2 1 0 2.01 0 2.82.2h.8c.4 0 .6.2.8.2 1.01.2 1.81.4 2.62.6.2 0 .2.2.4.2.8.2 1.61.4 2.21.81.6.2 1.21.4 1.81.81.6.4 1.41.6 2.01 1.01.6.4 1.21.61 1.81 1.01a27.46 27.46 0 0 1 4.63 3.85l1.2 1.21.81.81c6.64 7.48 10.46 18 11.46 29.12 0 .61.2 1.01.2 1.42.6 2.43.6 5.46.4 8.3Z" clip-rule="evenodd"/><path fill="#000" fill-rule="evenodd" d="M142.68 40.2c-1 1.82-9.05 8.7-9.46 16.18-.6 11.94-1 27.5-8.04 36.6-2.81-4.44-4.83-9.1-5.43-13.95-1.4-10.51-.6-18.8 2.21-25.07 1.81-4.05 4.23-7.08 7.64-9.3a27.14 27.14 0 0 1 6.44-3.04 15 15 0 0 1 3.22-.81c1.2-.2 2.21-.4 3.42-.6Z" clip-rule="evenodd"/><path fill="#FF7254" d="M130 87.12a7.46 7.46 0 0 0 7.45-7.48 7.46 7.46 0 0 0-7.44-7.48 7.46 7.46 0 0 0-7.44 7.48 7.46 7.46 0 0 0 7.44 7.48Z"/><path fill="#000" fill-rule="evenodd" d="M146.7 39.8c1.4 0 2.81-.2 4.22-.2 1.2 0 2.42 0 3.42.2.2 0 .6 0 .8.2.81.2 1.82.2 2.62.4h.4a29.11 29.11 0 0 1 14.48 9.3c-5.23 9.31-40.82 22.05-40.82 22.46l-3.22-26.9c5.03-4.05 11.87-4.85 14.28-5.26h.4c1.2 0 2.21 0 3.42-.2Z" clip-rule="evenodd"/><path fill="#000" d="M167.41 96.83h-.8c-5.43-.4-6.84-3.84-6.84-4.04l1.81-.61s1 2.43 5.03 2.63c3.82.2 5.02-1.42 5.02-1.62l1.61 1.01c0 .2-1.6 2.63-5.83 2.63Z"/><path fill="#008ECC" d="M100.24 300.5c-.4 0-.8-.2-1.2-.2h-1.41l-14.28-.62a9.64 9.64 0 0 0-8.85 4.86 171.5 171.5 0 0 0 33.79 17.19l.4-11.12a9.85 9.85 0 0 0-8.45-10.12Z"/><path fill="#F15A37" fill-rule="evenodd" d="m286.87 148.4 3.02-17.6c.4-2.01-1.01-4.04-3.02-4.44a4.67 4.67 0 0 0-5.23 3.24l-3.22 10.92 8.45 7.88Z" clip-rule="evenodd"/><path fill="#fff" d="M244.23 169.44h18.7c3.83 0 8.05-3.24 9.26-7.08l14.28-43.69c1.2-3.84-.8-7.07-4.63-7.07h-18.7c-3.82 0-8.05 3.23-9.25 7.07l-14.28 43.69c-1.4 3.84.8 7.08 4.62 7.08Z"/><path fill="#ABABAB" d="M247.65 169.44h18.7c3.83 0 8.05-3.24 9.26-7.08l14.28-43.69c1.2-3.84-.8-7.07-4.63-7.07h-18.7c-3.82 0-8.05 3.23-9.25 7.07l-14.28 43.69c-1.4 3.84.8 7.08 4.62 7.08Z"/><path fill="#FF7254" fill-rule="evenodd" d="m282.44 176.31 4.83-15.97c2.82-10.32-.2-16.18-4.82-18.81l-13.68-8.5c-2.01-1.21-4.63-.4-5.83 1.62-1 1.82-.6 4.05 1 5.26l6.24 4.25-8.65-5.87a4.04 4.04 0 0 0-5.63 1.42 3.82 3.82 0 0 0 .8 5.26l9.66 6.47-7.65-5.06a3.9 3.9 0 0 0-5.22 1.22 3.34 3.34 0 0 0 .8 4.85l11.46 8.7-2.61 10.31 19.3 4.85Z" clip-rule="evenodd"/><path fill="#FF9D12" d="m245.04 193.7 17.9-26.28 20.91 7.68s-3.02 14.77-12.87 34.38c-8.65-5.26-17.1-10.51-25.94-15.77Z"/></svg>
