<svg width="570" height="326" viewBox="0 0 570 326" fill="none" xmlns="http://www.w3.org/2000/svg">
<path d="M11.1417 325.799C5.50537 325.799 0.875488 321.169 0.875488 315.532C1.07679 298.422 4.70017 263.396 28.2522 241.052C76.3627 195.357 91.0575 203.208 122.058 164.759C138.564 144.227 138.967 118.259 151.649 94.9086C170.168 60.6877 209.22 53.8435 241.831 61.6942C274.441 69.5449 305.039 88.467 338.052 94.1034C366.636 98.9346 397.032 93.0969 425.214 102.961C457.623 114.233 471.916 140.201 483.993 175.428C491.844 198.578 500.701 221.324 528.682 242.058C554.448 261.182 563.909 295.805 568.74 313.318C570.552 319.76 565.721 326 559.078 326H11.1417V325.799Z" fill="#E0F5F7"/>
<path fill-rule="evenodd" clip-rule="evenodd" d="M272.425 278.292V325.999H189.892C190.496 319.357 191.905 312.11 194.119 305.266C196.132 298.824 198.951 292.584 202.373 287.35C202.977 286.545 203.58 285.538 204.184 284.733C204.386 284.33 204.788 283.928 204.99 283.525C205.191 283.123 205.593 282.72 205.795 282.519C206.801 281.311 208.009 280.103 209.016 279.097C209.217 278.895 209.619 278.493 209.821 278.292H272.425Z" fill="#004CBB"/>
<path d="M264.78 325.798L262.767 281.512L262.565 279.298V278.292H309.066L309.267 278.493C322.553 291.779 332.215 304.662 339.059 325.798H264.78Z" fill="#004CBB"/>
<path d="M202.175 287.35L298.597 278.292H272.227H262.565H209.623C207.006 280.707 204.59 283.727 202.175 287.35Z" fill="#0034B0"/>
<path fill-rule="evenodd" clip-rule="evenodd" d="M252.702 0.0965171C252.702 0.0965171 187.884 -1.51388 196.741 107.389H306.449C306.449 107.389 312.488 -3.72817 252.702 0.0965171Z" fill="black"/>
<path d="M293.968 126.915C314.903 134.162 347.313 204.214 347.313 204.214L383.345 151.474L407.702 160.331C407.702 160.331 397.436 204.818 368.248 236.824C361.605 244.272 346.709 246.889 336.04 242.662C316.916 235.013 309.67 210.052 309.67 210.052L293.968 152.883V126.915Z" fill="#FF9D12"/>
<path d="M344.292 197.974C346.103 201.799 347.311 204.214 347.311 204.214L343.084 213.071C343.084 213.071 342.48 205.019 344.292 197.974Z" fill="#EC8A12"/>
<path fill-rule="evenodd" clip-rule="evenodd" d="M329.798 191.13C329.798 186.299 328.389 181.669 325.772 177.844C323.155 173.818 321.545 169.188 320.538 164.558C316.714 145.435 303.025 129.13 283.902 122.688L273.636 119.065L234.382 118.662L222.103 123.695C197.746 129.13 181.441 156.104 188.889 187.909L202.174 271.046C202.98 275.474 206.804 279.299 211.233 279.299H305.24C310.071 279.299 313.895 276.279 314.298 271.448L319.33 211.058C325.772 206.831 329.798 199.383 329.798 191.13Z" fill="#FFB512"/>
<path d="M216.265 179.455L197.544 162.948C197.343 163.351 196.94 163.955 196.538 164.357C195.33 165.565 193.72 166.571 192.311 167.377C191.505 167.779 190.901 168.182 190.096 168.786C189.895 168.987 189.694 168.987 189.492 169.188C189.291 169.39 189.291 169.39 189.09 169.591C189.09 169.591 189.09 169.792 188.888 169.792C188.486 170.396 187.882 170.597 187.278 170.597C187.077 176.234 187.479 182.072 188.888 188.11L202.174 271.247C202.979 275.676 206.804 279.5 211.233 279.5H214.051C221.499 267.624 244.447 228.37 244.447 228.37L216.265 179.455Z" fill="#FF9D12"/>
<path d="M227.338 124.097C227.338 221.324 185.467 318.954 185.467 318.954" stroke="#008ECC" stroke-width="5.5818" stroke-miterlimit="10" stroke-linecap="round"/>
<path fill-rule="evenodd" clip-rule="evenodd" d="M306.646 151.473L321.341 128.525C326.575 120.473 337.043 117.857 345.296 122.688L360.595 131.545C362.205 132.35 362.809 134.363 362.205 135.973C361.4 137.785 359.387 138.792 357.575 137.986L343.686 132.551L344.893 138.188C345.497 141.006 345.296 143.824 344.289 146.441C341.673 153.486 334.426 157.714 326.978 156.305L321.14 163.35L306.646 151.473Z" fill="#FF7254"/>
<path d="M187.076 170.597C187.68 183.681 211.836 220.318 230.557 238.636C236.797 244.675 247.265 248.499 262.362 238.636C285.109 223.538 306.849 188.714 318.726 173.012C322.551 167.779 322.752 160.733 318.927 155.499C313.693 148.252 303.226 147.447 296.986 153.688L252.297 203.811L217.674 139.597L187.076 170.597Z" fill="#FFB512"/>
<path d="M295.374 154.694L252.296 203.811L220.088 144.025" stroke="#FFCA55" stroke-width="1.6712" stroke-miterlimit="10" stroke-linecap="round" stroke-linejoin="round"/>
<path d="M229.753 240.448C236.195 246.286 247.266 248.902 262.565 238.837C293.163 218.708 323.559 168.584 323.559 168.584" stroke="#FF9D12" stroke-width="1.6712" stroke-miterlimit="10"/>
<path d="M252.301 203.812C249.08 207.032 248.073 210.857 248.073 210.857" stroke="#FFCA55" stroke-width="1.6712" stroke-miterlimit="10" stroke-linecap="round" stroke-linejoin="round"/>
<path d="M251.29 202.2L244.446 205.22" stroke="#FFCA55" stroke-width="1.6712" stroke-miterlimit="10" stroke-linecap="round" stroke-linejoin="round"/>
<path fill-rule="evenodd" clip-rule="evenodd" d="M235.995 111.616L271.423 112.421L264.176 65.1155L232.975 56.8622L235.995 111.616Z" fill="#FF7254"/>
<path fill-rule="evenodd" clip-rule="evenodd" d="M266.79 81.8245L269.608 100.344L243.439 80.6167L266.79 81.8245Z" fill="#F15A37"/>
<path fill-rule="evenodd" clip-rule="evenodd" d="M274.645 121.48L272.229 104.571H233.982V121.48H274.645Z" fill="#FFB512"/>
<path fill-rule="evenodd" clip-rule="evenodd" d="M292.157 61.0909C291.351 74.7793 285.916 84.4417 269.611 87.4611C269.41 87.4611 269.208 87.6624 269.007 87.6624C267.799 87.8637 260.351 88.4676 257.936 88.065C249.28 87.0585 240.624 82.8313 233.377 76.7923C231.565 75.1819 229.754 73.5715 228.143 71.7598C227.54 71.1559 226.936 70.552 226.332 69.7468C225.527 68.9416 224.923 67.9351 224.319 67.1299C223.916 66.526 223.514 65.9221 223.111 65.3182C219.89 60.2858 217.475 54.6494 216.871 49.013C215.26 36.7337 216.065 27.2727 219.488 20.0259C221.501 15.396 224.52 11.9739 228.546 9.35706C230.76 7.94797 233.176 6.74017 235.994 5.73367C237.202 5.33108 238.41 4.92848 239.819 4.72718C241.027 4.52588 242.234 4.12328 243.643 3.92198H243.845C244.046 3.92198 244.046 3.92198 244.247 3.92198C245.455 3.72068 246.864 3.72068 248.273 3.51938C249.884 3.31808 251.494 3.31808 253.104 3.31808C254.312 3.31808 255.319 3.31808 256.325 3.51938C256.325 3.51938 256.325 3.51938 256.527 3.51938C256.728 3.51938 256.929 3.51938 257.13 3.51938C257.533 3.51938 257.734 3.72068 258.137 3.72068C259.143 3.92198 260.15 4.12328 261.156 4.32458C261.358 4.32458 261.358 4.52588 261.559 4.52588C262.364 4.72718 263.371 5.12978 264.176 5.33108C264.981 5.53238 265.585 5.93497 266.39 6.13627C267.195 6.33757 268.001 6.94147 268.806 7.34407C269.611 7.74667 270.215 8.14926 270.819 8.55186C272.832 9.75966 274.644 11.1688 276.254 12.9804C276.656 13.383 277.059 13.7856 277.462 14.1882C277.663 14.3895 278.066 14.7921 278.267 15.1947C285.916 23.8506 290.546 36.1298 291.754 48.8117C291.754 49.4156 291.955 50.0195 291.955 50.4221C292.358 54.2468 292.358 57.6689 292.157 61.0909Z" fill="#FF7254"/>
<path fill-rule="evenodd" clip-rule="evenodd" d="M243.442 4.12247C242.234 6.13546 232.975 14.1874 232.572 22.8433C231.767 36.7329 231.364 54.8499 223.111 65.3174C219.89 60.2849 217.475 54.6486 216.871 49.0122C215.26 36.7329 216.065 27.2719 219.488 20.0251C221.501 15.3952 224.52 11.9731 228.546 9.35625C230.76 7.94715 233.176 6.73936 235.994 5.73286C237.202 5.33026 238.41 4.92766 239.819 4.72636C240.825 4.52507 242.234 4.12247 243.442 4.12247Z" fill="black"/>
<path d="M228.744 58.2716C233.524 58.2716 237.4 54.3963 237.4 49.6158C237.4 44.8353 233.524 40.9599 228.744 40.9599C223.963 40.9599 220.088 44.8353 220.088 49.6158C220.088 54.3963 223.963 58.2716 228.744 58.2716Z" fill="#FF7254"/>
<path fill-rule="evenodd" clip-rule="evenodd" d="M248.274 3.51938C249.884 3.51938 251.495 3.31808 253.105 3.31808C254.514 3.31808 255.722 3.31808 257.131 3.51938C257.534 3.51938 257.735 3.72068 258.138 3.72068C259.144 3.92198 260.151 4.12328 261.157 4.32458C261.359 4.32458 261.359 4.32458 261.56 4.52588C268.203 6.33757 273.839 10.1623 278.469 15.1947C272.43 25.8636 230.761 40.5584 230.962 41.1623L227.138 10.1623C232.975 5.33108 241.027 4.52588 243.846 4.12328C244.047 4.12328 244.248 4.12328 244.248 4.12328C245.456 3.72068 246.865 3.72068 248.274 3.51938Z" fill="black"/>
<path d="M278.269 66.1229C278.269 66.1229 276.457 68.7398 271.224 68.5385C265.386 68.1359 264.178 64.7138 264.178 64.7138" stroke="black" stroke-width="1.1239" stroke-miterlimit="10"/>
<path d="M203.786 317.143L203.383 326H161.916L162.318 315.532C162.519 309.091 167.954 304.26 174.396 304.461L191.104 305.065H192.916C193.318 305.065 193.922 305.065 194.325 305.266C199.76 306.071 203.987 311.104 203.786 317.143Z" fill="#008ECC"/>
<path fill-rule="evenodd" clip-rule="evenodd" d="M411.122 129.33L414.544 108.999C414.947 106.583 413.538 104.369 411.122 103.966C408.505 103.362 405.687 105.174 404.882 107.791L401.057 120.473L411.122 129.33Z" fill="#F15A37"/>
<path d="M361.604 153.487H383.344C387.773 153.487 392.604 149.863 394.214 145.435L410.922 94.9088C412.331 90.4802 409.915 86.8569 405.487 86.8569H383.747C379.318 86.8569 374.487 90.4802 372.876 94.9088L356.169 145.435C354.759 149.863 357.175 153.487 361.604 153.487Z" fill="#004CBB"/>
<path d="M365.628 153.487H387.368C391.796 153.487 396.628 149.863 398.238 145.435L414.946 94.9088C416.355 90.4802 413.939 86.8569 409.511 86.8569H387.77C383.342 86.8569 378.511 90.4802 376.9 94.9088L360.193 145.435C358.783 149.863 361.199 153.487 365.628 153.487Z" fill="black"/>
<path fill-rule="evenodd" clip-rule="evenodd" d="M406.088 161.538L411.724 143.019C414.945 131.142 411.321 124.298 406.289 121.077L390.386 111.213C388.172 109.804 384.951 110.811 383.542 113.226C382.334 115.441 382.737 118.058 384.75 119.265L391.997 124.097L381.932 117.252C379.919 115.843 376.899 116.648 375.289 118.863C373.88 120.876 374.282 123.694 376.295 124.902L387.568 132.35L378.711 126.311C376.899 125.103 374.081 125.707 372.672 127.72C371.464 129.532 371.665 132.149 373.477 133.356L386.763 143.421L383.542 155.298L406.088 161.538Z" fill="#FF7254"/>
<path d="M362.607 181.668L383.341 151.473L407.698 160.33C407.698 160.33 404.075 177.441 392.601 200.188C382.737 193.746 372.874 187.707 362.607 181.668Z" fill="#FF9D12"/>
</svg>
