<svg width="221" height="198" viewBox="0 0 221 198" fill="none" xmlns="http://www.w3.org/2000/svg">
<path d="M111.27 62.8375H139.627C144.05 62.8375 147.566 59.3213 147.566 54.8978V26.7683C147.566 22.3447 144.05 18.8286 139.627 18.8286H111.27C106.847 18.8286 103.331 22.3447 103.331 26.7683V54.8978C103.331 59.3213 106.847 62.8375 111.27 62.8375Z" fill="#004CBB"/>
<path d="M111.27 62.8375H139.627C144.05 62.8375 147.566 59.3213 147.566 54.8978V26.7683C147.566 22.3447 144.05 18.8286 139.627 18.8286H111.27C106.847 18.8286 103.331 22.3447 103.331 26.7683V54.8978C103.331 59.3213 106.847 62.8375 111.27 62.8375Z" fill="#004CBB"/>
<path d="M140.307 18.942C139.513 20.1896 138.946 21.7776 138.946 23.479C138.946 28.016 142.689 31.759 147.226 31.759C147.339 31.759 147.453 31.759 147.566 31.759V26.8817C147.566 22.5716 144.39 19.2822 140.307 18.942Z" fill="black"/>
<path d="M133.388 60.6824V69.4162C133.388 70.437 132.254 70.8907 131.574 70.2102L122.046 60.6824H133.388Z" fill="#004CBB"/>
<path d="M124.088 55.0112C123.861 55.0112 123.747 54.8977 123.747 54.6709L123.294 52.0621C123.294 51.8352 123.067 51.6084 122.84 51.6084C121.932 51.3815 121.025 51.0413 120.231 50.5876C120.118 50.5876 120.004 50.4741 119.891 50.4741C119.777 50.4741 119.664 50.4741 119.551 50.5876L117.282 52.1755H117.169C117.055 52.1755 116.942 52.1755 116.942 52.0621L115.127 50.2473C115.014 50.1339 115.014 49.907 115.127 49.7936L116.601 47.6385C116.715 47.4117 116.715 47.1848 116.601 46.958C116.148 46.164 115.694 45.2566 115.467 44.3492C115.354 44.1223 115.24 43.8955 115.014 43.8955L112.405 43.4418C112.178 43.4418 112.064 43.2149 112.064 43.1015V40.4927C112.064 40.2659 112.178 40.1525 112.405 40.1525L115.014 39.6988C115.24 39.6988 115.467 39.4719 115.467 39.2451C115.694 38.3377 116.034 37.4302 116.488 36.6363C116.601 36.4094 116.601 36.1826 116.488 35.9557L115.014 33.8006C114.9 33.6872 114.9 33.4604 115.014 33.347L116.828 31.5321C116.942 31.4187 116.942 31.4187 117.055 31.4187H117.169L117.282 31.5321L119.437 33.0067C119.551 33.1201 119.664 33.1201 119.777 33.1201C119.891 33.1201 120.004 33.1201 120.118 33.0067C120.912 32.553 121.819 32.0993 122.726 31.8724C122.953 31.759 123.18 31.6456 123.18 31.4187L123.634 28.8099C123.634 28.5831 123.861 28.4697 123.974 28.4697H126.583C126.81 28.4697 126.923 28.5831 126.923 28.8099L127.377 31.4187C127.377 31.6456 127.604 31.8724 127.831 31.8724C128.738 32.0993 129.645 32.4395 130.553 33.0067C130.666 33.0067 130.78 33.1201 130.893 33.1201C131.006 33.1201 131.12 33.1201 131.233 33.0067L133.388 31.4187H133.502C133.615 31.4187 133.729 31.4187 133.729 31.5321L135.543 33.347C135.657 33.4604 135.657 33.6872 135.543 33.8006L134.069 35.9557C133.956 36.1826 133.956 36.4094 134.069 36.6363C134.523 37.4302 134.863 38.3377 135.203 39.2451C135.317 39.4719 135.43 39.6988 135.657 39.6988L138.266 40.1525C138.493 40.1525 138.606 40.3793 138.606 40.4927V43.3284H138.493C138.379 43.4418 138.379 43.4418 138.266 43.4418L135.657 43.8955C135.43 43.8955 135.203 44.1223 135.203 44.3492C134.976 45.2566 134.636 46.164 134.069 46.958C133.956 47.1848 133.956 47.4117 134.069 47.6385L135.543 49.7936C135.657 49.907 135.657 50.1339 135.543 50.2473L133.729 52.0621C133.729 52.0621 133.615 52.1755 133.502 52.1755H133.388L133.275 52.0621L131.12 50.5876C131.006 50.4741 130.893 50.4741 130.78 50.4741C130.666 50.4741 130.553 50.4741 130.439 50.5876C129.645 51.0413 128.738 51.495 127.831 51.7218C127.604 51.8352 127.377 51.9487 127.377 52.1755L126.923 54.7843C126.923 55.0111 126.696 55.1246 126.583 55.1246H124.088V55.0112ZM125.449 37.2034C122.953 37.2034 121.025 39.2451 121.025 41.627C121.025 44.0089 123.067 46.0506 125.449 46.0506C127.831 46.0506 129.872 44.0089 129.872 41.627C129.872 39.2451 127.944 37.2034 125.449 37.2034Z" fill="#FAFAFA"/>
<path d="M145.638 28.016C150.211 28.016 153.918 24.3089 153.918 19.736C153.918 15.163 150.211 11.4559 145.638 11.4559C141.066 11.4559 137.358 15.163 137.358 19.736C137.358 24.3089 141.066 28.016 145.638 28.016Z" fill="#FF7254"/>
<path d="M144.844 24.1595V18.0346L143.37 19.6225L142.009 18.2614L145.185 15.0855H147.226V24.1595H144.844Z" fill="#FAFAFA"/>
<path d="M125.448 197.7C177.964 197.7 220.612 196.793 220.612 195.658C220.612 194.524 177.964 193.617 125.448 193.617C72.9325 193.617 30.2847 194.524 30.2847 195.658C30.2847 196.793 72.9325 197.7 125.448 197.7Z" fill="#E0F5F7"/>
<path d="M71.3444 117.282H37.6571C34.5946 117.282 31.9858 119.777 31.9858 122.953V172.179C31.9858 175.242 34.4812 177.851 37.6571 177.851H71.2309C74.2934 177.851 76.9022 175.355 76.9022 172.179V122.953C76.9022 119.777 74.4068 117.282 71.3444 117.282Z" fill="#CAEFF2"/>
<path d="M84.6152 117.282H52.6293C49.5668 117.282 46.958 119.777 46.958 122.953V172.179C46.958 175.242 49.4534 177.851 52.6293 177.851H84.6152C87.6776 177.851 90.2864 175.355 90.2864 172.179V122.953C90.173 119.777 87.6776 117.282 84.6152 117.282Z" fill="#96DFE6"/>
<path d="M154.372 177.057L155.506 182.955L157.774 194.411C157.888 195.205 158.568 195.772 159.362 195.772H161.744C162.652 195.772 163.446 194.978 163.446 194.07V177.057H154.372Z" fill="#96DFE6"/>
<path d="M163.446 177.057H154.372L155.392 182.047L163.446 182.161V177.057Z" fill="#38BEDA"/>
<path d="M194.865 177.057H203.939V194.07C203.939 194.978 203.145 195.772 202.237 195.772H199.855C199.061 195.772 198.381 195.205 198.268 194.411L194.865 177.057Z" fill="#96DFE6"/>
<path d="M94.9368 177.057H85.8628V194.07C85.8628 194.978 86.6568 195.772 87.5642 195.772H89.9461C90.7401 195.772 91.4206 195.205 91.5341 194.411L94.9368 177.057Z" fill="#96DFE6"/>
<path d="M45.3701 177.057V194.07C45.3701 194.978 46.1641 195.772 47.0715 195.772H49.4534C50.2474 195.772 50.9279 195.205 51.0414 194.411L53.3099 182.955L54.4441 177.057H45.3701Z" fill="#96DFE6"/>
<path d="M53.7636 180.686L54.4441 177.057H45.3701V180.573L53.7636 180.686Z" fill="#38BEDA"/>
<path d="M202.804 148.587L212.899 104.691C214.487 97.2054 207.908 89.0388 200.989 89.0388H110.023C103.104 89.0388 96.1846 94.5966 94.5967 101.516L83.8213 148.474L202.804 148.587Z" fill="#CAEFF2"/>
<path d="M191.916 89.0388H97.9995C91.0806 89.0388 84.1617 94.5966 82.5737 101.516L71.7983 148.474H190.781L201.557 101.516C203.145 94.5966 198.835 89.0388 191.916 89.0388Z" fill="#CAEFF2"/>
<path d="M91.1937 144.504H66.2402C64.312 144.504 62.724 143.143 62.2703 141.328L58.5273 125.221C57.9602 122.726 59.4347 120.798 61.93 120.798H85.0688C87.5641 120.798 89.946 122.726 90.5132 125.221L94.1428 140.761C94.5965 142.689 93.122 144.504 91.1937 144.504Z" fill="white"/>
<path d="M171.499 144.617H43.5552V177.851H171.499V144.617Z" fill="#CAEFF2"/>
<path d="M160.383 87.6777C155.052 89.4925 146.886 107.187 146.886 107.187L137.698 93.8026L131.573 96.0711C131.573 96.0711 134.182 107.3 141.555 115.467C143.256 117.282 146.999 117.962 149.721 116.941C154.485 115.013 156.413 108.661 156.413 108.661L160.383 94.2563V87.6777Z" fill="#FF9D12"/>
<path fill-rule="evenodd" clip-rule="evenodd" d="M170.932 58.6408C170.932 58.6408 186.584 57.62 184.429 83.8212H158.001C157.888 83.8212 156.527 57.7334 170.932 58.6408Z" fill="black"/>
<path fill-rule="evenodd" clip-rule="evenodd" d="M175.242 85.9763L166.735 86.2031L168.096 74.1801L174.901 72.1384L175.242 85.9763Z" fill="#FF7254"/>
<path d="M167.189 82.4601C168.89 81.3259 172.747 78.4902 172.86 78.4902L167.643 78.7171L167.189 82.4601Z" fill="#F15A37"/>
<path fill-rule="evenodd" clip-rule="evenodd" d="M160.723 74.2935C161.29 77.5828 162.878 79.7379 166.848 79.9647H166.962C167.189 79.9647 169.003 79.9647 169.57 79.8513C171.612 79.3976 173.654 78.8305 175.242 77.1291C175.695 76.7888 175.922 75.6546 176.376 75.0875C176.489 74.974 176.603 74.7472 176.716 74.6338C176.83 74.4069 177.057 74.1801 177.17 73.9532C177.283 73.8398 177.397 73.6129 177.397 73.4995C177.964 72.2518 178.418 70.8907 178.418 69.4162C178.531 66.4672 178.077 64.1987 177.057 62.6107C176.376 61.4764 175.582 60.7959 174.675 60.2288C174.107 59.8885 173.54 59.7751 172.86 59.5482C172.52 59.4348 172.293 59.4348 171.952 59.3214C171.612 59.3214 171.385 59.2079 171.045 59.2079C171.045 59.2079 171.045 59.2079 170.932 59.2079H170.818C170.478 59.2079 170.138 59.2079 169.911 59.2079C169.57 59.2079 169.117 59.2079 168.776 59.3214C168.55 59.3214 168.209 59.3214 167.983 59.4348H167.869C167.756 59.4348 167.756 59.4348 167.642 59.4348C167.415 59.5482 167.189 59.5482 166.962 59.6616H166.848C166.621 59.7751 166.395 59.7751 166.168 59.8885C166.054 60.0019 165.827 60.0019 165.601 60.1153C165.374 60.2288 165.26 60.3422 165.033 60.4556C164.92 60.569 164.693 60.6825 164.58 60.7959C164.126 61.1362 163.672 61.4764 163.446 62.0436C163.332 62.157 163.219 62.2704 163.105 62.3838C162.992 62.4973 162.992 62.4973 162.878 62.6107C161.29 64.8792 160.496 67.9417 160.61 71.0042C160.61 71.1176 160.61 71.231 160.61 71.4578C160.496 72.5921 160.723 73.4995 160.723 74.2935Z" fill="#FF7254"/>
<path fill-rule="evenodd" clip-rule="evenodd" d="M160.27 70.2102C161.744 65.5598 162.311 67.3746 164.013 63.8584L163.672 62.4973L162.651 62.8376L161.744 64.1987L160.61 66.9209L160.27 70.2102Z" fill="black"/>
<path fill-rule="evenodd" clip-rule="evenodd" d="M169.798 59.0945C170.138 59.5482 169.004 61.4765 169.23 63.6315C169.571 67.7149 174.902 70.8908 175.015 77.356C176.83 76.2217 178.758 71.3445 178.758 70.0968C178.985 67.1477 178.645 64.539 177.737 62.8376C177.17 61.7033 176.263 60.6825 175.242 60.1154C174.675 59.7751 173.767 59.4348 173.087 59.3214C172.747 59.208 172.18 59.0945 171.839 59.0945C171.612 59.0945 170.138 59.208 169.798 59.0945Z" fill="black"/>
<path d="M173.314 72.819C174.448 72.819 175.355 71.9116 175.355 70.7773C175.355 69.6431 174.448 68.7357 173.314 68.7357C172.179 68.7357 171.272 69.6431 171.272 70.7773C171.272 71.9116 172.179 72.819 173.314 72.819Z" fill="#FF7254"/>
<path fill-rule="evenodd" clip-rule="evenodd" d="M169.797 59.3214C169.457 59.3214 169.003 59.3214 168.663 59.3214C168.323 59.3214 167.983 59.4348 167.756 59.4348C167.642 59.4348 167.642 59.4348 167.529 59.4348C167.302 59.4348 167.075 59.5483 166.848 59.6617H166.735C165.147 60.2288 163.559 61.7033 162.425 63.0644C164.466 66.3538 174.788 68.3954 174.788 68.5089L175.015 60.5691C173.54 59.5483 171.612 59.4348 170.932 59.3214H170.818C170.478 59.4348 170.138 59.4348 169.797 59.3214Z" fill="black"/>
<path d="M168.096 74.2935C168.096 74.2935 167.642 75.4277 166.395 75.768C165.374 75.9948 164.353 75.3143 164.353 75.3143" stroke="black" stroke-width="0.5" stroke-miterlimit="10" stroke-linecap="round"/>
<path d="M182.842 87.9046C181.594 87.3374 179.212 86.5434 177.17 86.2032C176.263 86.0897 175.469 85.2958 175.469 84.275V83.7078H166.055L165.941 84.5018C165.828 85.4092 165.147 85.9763 164.24 86.2032C159.363 86.9972 154.372 91.761 154.032 95.3906C153.691 98.4531 155.279 101.402 155.279 101.402L146.319 133.388H180.914L180.006 120.117C181.481 114.219 184.543 105.259 185.224 99.8142C185.337 99.2471 187.606 99.1336 187.719 98.6799C188.4 94.3698 186.471 90.0596 182.842 87.9046Z" fill="#FFB512"/>
<path d="M180.119 120.117C181.48 114.219 184.543 105.485 185.337 100.041C183.295 100.948 181.48 102.196 180.006 103.897C178.871 105.145 177.964 106.62 176.716 107.867C175.582 109.002 174.221 109.796 172.633 110.249C172.86 113.879 172.633 117.622 172.293 121.252C172.066 124.201 171.952 127.15 171.385 130.099C173.427 129.872 175.582 129.418 177.624 128.964C178.644 128.738 179.665 128.397 180.686 128.057L180.119 120.117Z" fill="#FF9D12"/>
<path fill-rule="evenodd" clip-rule="evenodd" d="M157.661 93.916L153.918 88.1313C152.671 86.0897 149.948 85.4091 147.907 86.6568L144.05 88.9253C143.71 89.1521 143.483 89.6058 143.71 90.0595C143.937 90.5132 144.391 90.7401 144.958 90.6267L148.474 89.2656L148.247 90.7401C148.134 91.4206 148.134 92.2146 148.36 92.8952C149.041 94.71 150.856 95.7308 152.784 95.3905L154.259 97.2053L157.661 93.916Z" fill="#FF7254"/>
<path d="M187.832 98.6799C187.605 101.969 181.594 111.27 176.83 115.921C175.242 117.508 172.633 118.416 168.777 115.921C162.992 112.064 157.548 103.33 154.485 99.3604C153.465 98.1128 153.465 96.298 154.485 94.9369C155.846 93.1221 158.455 92.8952 160.043 94.4831L171.386 107.187L180.119 90.967L187.832 98.6799Z" fill="#FFB512"/>
<path d="M160.497 94.71L171.385 107.073L177.624 95.504" stroke="#FFCA55" stroke-width="0.75" stroke-miterlimit="10" stroke-linecap="round" stroke-linejoin="round"/>
<path d="M177.057 116.374C175.469 117.849 172.633 118.529 168.777 115.92C161.064 110.816 153.351 98.1127 153.351 98.1127" stroke="#FF9D12" stroke-width="0.75" stroke-miterlimit="10"/>
<path d="M115.126 184.77L113.992 188.172C113.538 189.647 112.291 190.781 110.816 191.348L106.619 192.823C106.052 193.05 105.599 193.617 105.599 194.184C105.599 194.978 106.279 195.658 107.073 195.658H117.281C118.643 195.658 119.777 194.751 120.004 193.39L121.592 186.358L115.126 184.77Z" fill="#FFB512"/>
<path d="M119.21 192.029C117.849 192.029 116.714 193.163 116.714 194.524C116.714 194.978 116.828 195.318 116.941 195.658H117.281C118.643 195.658 119.777 194.751 120.004 193.39L120.231 192.256C120.004 192.142 119.663 192.029 119.21 192.029Z" fill="#FF9D12"/>
<path d="M97.7726 154.372L94.4833 157.321C93.6893 158.001 92.6685 158.455 91.5342 158.342L86.3166 158.228C85.6361 158.228 85.069 158.568 84.7287 159.249C84.3884 160.043 84.8421 161.064 85.7495 161.291L94.7101 164.353C96.0712 164.807 97.6592 164.466 98.5666 163.332L102.99 158.455L97.7726 154.372Z" fill="#FFB512"/>
<path d="M99.0202 162.879C98.5665 161.971 97.6591 161.404 96.6383 161.517C95.2772 161.631 94.1429 162.765 94.2564 164.24L94.7101 164.353C95.1638 164.466 95.7309 164.58 96.298 164.58C96.298 164.58 96.298 164.58 96.4115 164.58C96.6383 164.58 96.8651 164.466 97.092 164.466C97.3188 164.353 97.4323 164.353 97.6591 164.24C98.1128 164.013 98.4531 163.786 98.68 163.446L99.0202 162.879Z" fill="#FF9D12"/>
<path d="M160.837 144.617H136.791C136.791 144.617 134.749 151.536 131.914 160.837C131.8 161.177 131.687 161.517 131.573 161.971C128.851 170.705 127.15 178.078 124.768 185.223C124.201 186.698 122.726 187.605 121.138 187.265L115.921 186.017C114.446 185.677 113.539 184.202 113.879 182.728C115.354 175.128 117.282 170.024 118.756 160.95C119.55 155.392 120.571 149.721 121.705 143.71C122.84 139.967 124.428 137.131 126.469 134.976C128.738 132.707 131.46 131.233 134.522 130.326C139.173 128.964 144.731 128.624 150.856 128.624H150.969C154.145 128.624 157.434 128.738 160.837 128.738V144.617Z" fill="#004CBB"/>
<path d="M181.367 128.397C180.8 137.471 174.335 144.617 164.24 144.617H158.795V128.397H181.367Z" fill="#004CBB"/>
<path d="M163.446 123.747L163.333 123.633C158.342 120.117 153.805 117.055 149.154 115.467C146.092 114.446 143.029 113.992 139.854 114.559C137.018 115.127 133.955 116.488 130.893 118.87C126.356 123.066 121.592 127.263 117.736 131.233C110.703 138.379 104.011 144.277 96.752 151.649C95.7312 152.67 95.8446 154.372 96.9789 155.279L102.877 160.27C103.671 160.95 104.805 160.383 105.145 160.156C105.713 159.589 105.826 158.909 106.393 158.455C107.074 157.888 108.095 158.001 108.889 157.434C109.682 156.867 109.456 155.96 110.25 155.392C111.044 154.825 111.384 155.052 112.405 154.145C113.085 153.578 122.386 144.277 128.398 139.626C128.738 139.4 128.965 139.173 129.305 138.946C137.018 133.048 143.029 128.851 143.029 128.851L162.198 142.689L171.499 129.645C168.664 127.603 166.055 125.562 163.446 123.747Z" fill="#004CBB"/>
<path d="M142.916 128.738L155.279 140.874C157.661 143.143 159.59 144.617 163.333 144.617H150.289L142.916 128.738Z" fill="#0034B0"/>
<path d="M197.133 117.282H166.849C163.786 117.282 161.177 119.777 161.177 122.953V172.179C161.177 175.242 163.673 177.851 166.849 177.851H197.133C200.195 177.851 202.804 175.355 202.804 172.179V122.953C202.804 119.777 200.309 117.282 197.133 117.282Z" fill="#CAEFF2"/>
<path d="M211.992 117.282H181.707C178.645 117.282 176.036 119.777 176.036 122.953V172.179C176.036 175.242 178.531 177.851 181.707 177.851H211.992C215.054 177.851 217.663 175.355 217.663 172.179V122.953C217.663 119.777 215.168 117.282 211.992 117.282Z" fill="#96DFE6"/>
<path fill-rule="evenodd" clip-rule="evenodd" d="M130.779 88.2448L129.872 83.1407C129.759 82.5736 130.099 82.0064 130.779 81.893C131.46 81.7796 132.141 82.1199 132.367 82.8004L133.275 85.9763L130.779 88.2448Z" fill="#F15A37"/>
<path d="M143.256 94.3698H137.698C136.564 94.3698 135.316 93.4624 134.976 92.3281L130.779 79.5111C130.439 78.3768 131.006 77.4694 132.14 77.4694H137.698C138.832 77.4694 140.08 78.3768 140.42 79.5111L144.617 92.3281C145.071 93.4624 144.39 94.3698 143.256 94.3698Z" fill="#004CBB"/>
<path d="M142.235 94.3698H136.678C135.543 94.3698 134.296 93.4624 133.955 92.3281L129.759 79.5111C129.418 78.3768 129.986 77.4694 131.12 77.4694H136.678C137.812 77.4694 139.06 78.3768 139.4 79.5111L143.597 92.3281C144.05 93.4624 143.37 94.3698 142.235 94.3698Z" fill="black"/>
<path fill-rule="evenodd" clip-rule="evenodd" d="M132.027 96.4114L130.666 91.761C129.872 88.8119 130.779 86.9971 132.027 86.2031L136.11 83.7078C136.677 83.3675 137.471 83.5944 137.812 84.1615C138.152 84.7286 138.038 85.4092 137.471 85.636L135.657 86.8837L138.265 85.1823C138.832 84.842 139.513 84.9555 139.967 85.5226C140.307 86.0897 140.194 86.7703 139.74 87.1105L136.904 89.0388L139.173 87.5643C139.626 87.224 140.307 87.4508 140.647 87.9045C140.988 88.3582 140.874 89.0388 140.42 89.2656L137.018 91.761L137.812 94.8235L132.027 96.4114Z" fill="#FF7254"/>
<path d="M143.029 101.516L137.811 93.8026L131.687 96.0711C131.687 96.0711 132.594 100.381 135.43 106.166C137.925 104.578 140.42 103.103 143.029 101.516Z" fill="#FF9D12"/>
<path d="M171.385 107.073C172.179 107.867 172.406 108.888 172.406 108.888" stroke="#FFCA55" stroke-width="0.75" stroke-miterlimit="10" stroke-linecap="round" stroke-linejoin="round"/>
<path d="M171.612 106.733L173.314 107.414" stroke="#FFCA55" stroke-width="0.75" stroke-miterlimit="10" stroke-linecap="round" stroke-linejoin="round"/>
<path d="M147.68 105.599C147.226 106.62 146.886 107.187 146.886 107.187L147.907 109.455C148.02 109.455 148.133 107.414 147.68 105.599Z" fill="#EC8A12"/>
<path d="M59.2078 0.113403H0.453613V85.2957H59.2078V0.113403Z" fill="#E0F5F7"/>
<path d="M25.067 47.5252C25.7476 45.7104 26.0878 43.7821 26.0878 41.627C26.0878 37.6572 24.7267 33.9141 22.3448 30.9651C20.4166 28.4697 19.5092 25.1804 20.3032 22.1179C20.53 21.2105 20.6434 20.3031 20.6434 19.2823C20.6434 12.3634 14.6319 6.91895 7.59954 7.71293C4.76391 8.0532 2.15513 9.41431 0.340332 11.456V85.1823H30.398C31.9859 82.2333 32.8934 78.9439 33.1202 75.4277C33.4605 68.6222 31.0785 62.3839 26.8818 57.8469C24.4999 55.1246 23.7059 51.0413 25.067 47.5252Z" fill="#C1ECF0"/>
<path d="M30.3979 0H29.2637V86.6568H30.3979V0Z" fill="white"/>
<path d="M59.4348 27.7892H0V28.9234H59.4348V27.7892Z" fill="white"/>
<path d="M59.7751 56.5992H0V57.7334H59.7751V56.5992Z" fill="white"/>
<path d="M52.2893 51.2682L48.6597 60.3422" stroke="#0F1235" stroke-width="0.5" stroke-miterlimit="10" stroke-linecap="round"/>
<path d="M56.8765 51.4652C57.0815 50.8073 55.3568 49.685 53.0244 48.9585C50.692 48.2319 48.6351 48.1762 48.4301 48.8341C48.2252 49.4919 49.9499 50.6142 52.2823 51.3408C54.6147 52.0674 56.6716 52.1231 56.8765 51.4652Z" fill="#96DFE6"/>
<path d="M56.8258 65.7865C57.2795 67.4879 58.9809 68.5087 60.6823 68.055C62.3836 67.6013 63.4045 65.9 62.9508 64.1986C62.8373 63.6315 62.4971 63.1778 62.1568 62.8375C62.0434 62.7241 61.8165 62.4972 61.7031 62.3838C61.0225 61.8167 60.0017 61.7032 59.0943 61.9301C57.9601 62.2704 57.1661 63.0643 56.9392 64.0852C56.8258 64.312 56.8258 64.5389 56.8258 64.7657C56.7124 65.106 56.8258 65.4463 56.8258 65.7865Z" fill="#38BEDA"/>
<path d="M35.6156 63.7449C37.0901 64.0852 38.6781 62.4972 39.3586 60.2287C39.5855 59.5482 39.5855 58.8676 39.5855 58.3005C39.5855 56.826 38.9049 55.5783 37.9975 55.238C37.6572 55.1246 37.317 55.1246 37.0901 55.238C35.9559 55.5783 34.8216 56.9394 34.2545 58.7542C33.5739 61.1361 34.141 63.4046 35.6156 63.7449Z" fill="#38BEDA"/>
<path d="M57.8468 56.7126L51.9487 68.7356" stroke="#0F1235" stroke-width="0.5" stroke-miterlimit="10" stroke-linecap="round"/>
<path d="M57.8467 63.0644C60.603 63.0644 62.8374 60.8299 62.8374 58.0737C62.8374 55.3174 60.603 53.0829 57.8467 53.0829C55.0904 53.0829 52.856 55.3174 52.856 58.0737C52.856 60.8299 55.0904 63.0644 57.8467 63.0644Z" fill="#96DFE6"/>
<path d="M42.0807 57.8468C44.7118 57.8468 46.8446 55.7139 46.8446 53.0829C46.8446 50.4519 44.7118 48.3191 42.0807 48.3191C39.4497 48.3191 37.3169 50.4519 37.3169 53.0829C37.3169 55.7139 39.4497 57.8468 42.0807 57.8468Z" fill="#96DFE6"/>
<path d="M47.2983 65.9V68.7356" stroke="#0F1235" stroke-width="0.5" stroke-miterlimit="10" stroke-linecap="round"/>
<path d="M42.7612 57.8468L44.2358 68.7356" stroke="#0F1235" stroke-width="0.5" stroke-miterlimit="10" stroke-linecap="round"/>
<path d="M39.1318 60.569L43.442 63.0643" stroke="#0F1235" stroke-width="0.5" stroke-miterlimit="10" stroke-linecap="round"/>
<path d="M56.8262 65.9H53.3101" stroke="#0F1235" stroke-width="0.5" stroke-miterlimit="10" stroke-linecap="round"/>
<path d="M55.5784 71.1175L52.9696 84.6151C52.9696 84.8419 52.7427 84.9553 52.6293 84.9553H42.9882C42.7613 84.9553 42.6479 84.8419 42.6479 84.6151L40.3794 71.1175C40.3794 70.8906 40.4928 70.6638 40.7197 70.6638L55.3515 70.5504C55.4649 70.6638 55.5784 70.8906 55.5784 71.1175Z" fill="white"/>
<path d="M40.4928 72.592L55.0112 74.0666L55.3515 71.9115H40.3794L40.4928 72.592Z" fill="#E0F5F7"/>
<path d="M40.4929 71.9115H55.2381C56.1456 71.9115 56.9395 71.1175 56.9395 70.2101C56.9395 69.3027 56.1456 68.5087 55.2381 68.5087H40.4929C39.5855 68.5087 38.7915 69.3027 38.7915 70.2101C38.7915 71.2309 39.5855 71.9115 40.4929 71.9115Z" fill="white"/>
<path d="M47.2983 65.9C48.9897 65.9 50.3608 64.5289 50.3608 62.8376C50.3608 61.1462 48.9897 59.7751 47.2983 59.7751C45.607 59.7751 44.2358 61.1462 44.2358 62.8376C44.2358 64.5289 45.607 65.9 47.2983 65.9Z" fill="#96DFE6"/>
<path d="M0.340332 89.1521H68.282C69.5297 89.1521 70.4371 88.1313 70.4371 86.9971C70.4371 85.7494 69.4163 84.842 68.282 84.842H0.340332V89.1521Z" fill="#96DFE6"/>
</svg>
