<svg width="220" height="200" viewBox="0 0 220 200" fill="none" xmlns="http://www.w3.org/2000/svg">
<path d="M59.9129 5.55786H2.33398V89.0361H59.9129V5.55786Z" fill="#E1F6F8"/>
<path d="M26.4557 52.021C27.1226 50.2425 27.4561 48.3529 27.4561 46.2409C27.4561 42.3504 26.1222 38.6823 23.7879 35.7922C21.8983 33.3468 21.009 30.1233 21.7871 27.122C22.0094 26.2328 22.1206 25.3435 22.1206 24.3431C22.1206 17.5626 16.2293 12.2271 9.33763 13.0052C6.55873 13.3387 4.00213 14.6726 2.22363 16.6734V88.9249H31.68C33.2362 86.0348 34.1255 82.8113 34.3478 79.3655C34.6812 72.6961 32.347 66.5825 28.2342 62.1362C25.8999 59.4685 25.1218 55.4669 26.4557 52.021Z" fill="#C2EDF1"/>
<path d="M31.124 0V95.4832" stroke="white" stroke-width="1.027" stroke-miterlimit="10"/>
<path d="M0 33.2357H62.9144" stroke="white" stroke-width="1.027" stroke-miterlimit="10"/>
<path d="M0 61.4694H62.9144" stroke="white" stroke-width="1.027" stroke-miterlimit="10"/>
<path d="M125.94 199.192C177.446 199.192 219.2 198.296 219.2 197.191C219.2 196.086 177.446 195.19 125.94 195.19C74.4336 195.19 32.6797 196.086 32.6797 197.191C32.6797 198.296 74.4336 199.192 125.94 199.192Z" fill="#E1F6F8"/>
<path d="M72.9179 120.382H39.9045C36.9033 120.382 34.3467 122.828 34.3467 125.94V174.182C34.3467 177.183 36.7921 179.74 39.9045 179.74H72.8067C75.8079 179.74 78.3645 177.294 78.3645 174.182V125.94C78.3645 122.828 75.9191 120.382 72.9179 120.382Z" fill="#CBF0F3"/>
<path d="M85.9234 120.382H54.5773C51.5761 120.382 49.0195 122.828 49.0195 125.94V174.182C49.0195 177.183 51.465 179.74 54.5773 179.74H85.9234C88.9246 179.74 91.4812 177.294 91.4812 174.182V125.94C91.37 122.828 88.9246 120.382 85.9234 120.382Z" fill="#97E0E7"/>
<path d="M154.284 178.961L155.396 184.742L157.619 195.968C157.73 196.746 158.397 197.302 159.175 197.302H161.509C162.399 197.302 163.177 196.524 163.177 195.635V178.961H154.284Z" fill="#008FCD"/>
<path d="M163.177 178.961H154.284L155.285 183.852L163.177 183.963V178.961Z" fill="#0069D1"/>
<path d="M193.967 178.961H202.859V195.635C202.859 196.524 202.081 197.302 201.192 197.302H198.858C198.08 197.302 197.413 196.746 197.301 195.968L193.967 178.961Z" fill="#004CBC"/>
<path d="M96.038 178.961H87.1455V195.635C87.1455 196.524 87.9236 197.302 88.8129 197.302H91.1471C91.9252 197.302 92.5922 196.746 92.7033 195.968L96.038 178.961Z" fill="#004CBC"/>
<path d="M47.4629 178.961V195.635C47.4629 196.524 48.241 197.302 49.1302 197.302H51.4645C52.2426 197.302 52.9095 196.746 53.0207 195.968L55.2438 184.742L56.3554 178.961H47.4629Z" fill="#008FCD"/>
<path d="M55.6884 182.518L56.3554 178.961H47.4629V182.407L55.6884 182.518Z" fill="#0069D1"/>
<path d="M201.748 151.061L211.641 108.044C213.197 100.708 206.75 92.7043 199.97 92.7043H110.823C104.042 92.7043 97.2615 98.151 95.7053 104.932L85.1455 150.95H201.748V151.061Z" fill="#CBF0F3"/>
<path d="M191.077 92.7043H99.0394C92.2588 92.7043 85.4783 98.151 83.9221 104.932L73.3623 150.95H189.965L200.525 104.932C202.081 98.151 197.857 92.7043 191.077 92.7043Z" fill="#CBF0F3"/>
<path d="M92.3699 147.06H67.9155C66.0259 147.06 64.4697 145.726 64.0251 143.947L60.3569 128.163C59.8011 125.718 61.2461 123.828 63.6916 123.828H86.3675C88.8129 123.828 91.1472 125.718 91.703 128.163L95.26 143.391C95.7046 145.281 94.2595 147.06 92.3699 147.06Z" fill="white"/>
<path d="M171.069 147.171H45.6846V179.74H171.069V147.171Z" fill="#CBF0F3"/>
<path d="M137.277 103.375L160.176 91.1481L157.508 105.821C157.508 105.821 140.056 115.38 134.165 114.38C127.94 113.268 124.383 91.2592 123.716 86.0349C123.605 85.3679 124.05 84.8122 124.606 84.5898L130.942 82.7002L137.277 103.375Z" fill="#79D4E7"/>
<path d="M125.273 86.3685H124.717C123.828 86.3685 123.161 85.7015 122.939 84.9234L121.827 78.4764C121.605 77.3648 122.049 76.2532 122.939 75.4751L124.717 73.9189L125.829 76.2532L125.273 86.3685Z" fill="#FF7254"/>
<path d="M132.832 87.2577H126.607C125.718 87.2577 124.94 86.5908 124.829 85.7015L124.607 84.4788L122.495 71.9182V71.6958C122.383 70.8066 122.939 70.1396 123.828 70.1396H130.053C130.942 70.1396 131.721 70.8066 131.832 71.5847V71.9182L133.944 84.4788L134.166 85.5904C134.277 86.5908 133.61 87.2577 132.832 87.2577Z" fill="black"/>
<path d="M133.276 84.8122H125.829L123.828 72.8074H131.276L133.276 84.8122Z" fill="#38BFDB"/>
<path d="M123.05 75.4751L123.94 74.8082C124.384 74.4747 125.051 74.5859 125.385 75.1417C125.607 75.5863 125.496 76.1421 125.162 76.4755L123.161 78.0317L122.717 76.3644L123.05 75.4751Z" fill="#FF7254"/>
<path d="M123.161 77.8094L124.161 77.0313C124.606 76.6979 125.273 76.809 125.606 77.3648C125.829 77.8094 125.717 78.3652 125.384 78.6987L123.383 80.2549L122.938 78.5875L123.161 77.8094Z" fill="#FF7254"/>
<path d="M123.383 79.9215L124.384 79.1434C124.828 78.8099 125.495 78.9211 125.829 79.4768C126.051 79.9215 125.94 80.4773 125.607 80.8107L123.606 82.3669L123.161 80.6996L123.383 79.9215Z" fill="#FF7254"/>
<path d="M134.388 82.3669L133.832 84.0342L133.388 81.5888L131.387 79.9215C130.942 79.588 130.942 78.9211 131.165 78.5876C131.498 78.143 132.054 78.1429 132.498 78.3653L133.61 79.2545C134.277 79.8103 134.499 80.5884 134.388 81.3665V82.3669Z" fill="#FF7254"/>
<path d="M158.509 92.2595L145.504 111.601C149.283 110.045 152.951 108.266 155.174 107.043L158.509 92.2595Z" fill="#38BFDB"/>
<path d="M175.404 89.8142H165.178C159.953 89.8142 153.395 95.0385 153.062 98.929C152.728 101.93 155.285 104.82 155.285 104.82L144.392 136.166H180.406L181.295 123.161C182.852 116.714 184.186 106.599 184.852 101.708C185.408 97.484 183.519 93.26 179.962 91.1481C178.405 90.37 176.849 89.8142 175.404 89.8142Z" fill="#79D4E7"/>
<path fill-rule="evenodd" clip-rule="evenodd" d="M167.178 96.039C170.179 96.4836 174.292 93.4824 176.404 91.7039C176.96 91.2592 177.071 90.4812 176.737 89.9254C176.293 89.8142 175.848 89.8142 175.403 89.8142H165.177C164.732 89.8142 164.399 89.8142 163.954 89.9254C163.51 90.2588 163.287 90.8146 163.287 91.2592C163.176 92.2596 163.954 95.4832 167.178 96.039Z" fill="#FF7254"/>
<path d="M115.824 186.52L114.713 189.855C114.268 191.3 113.046 192.411 111.6 192.967L107.488 194.412C106.932 194.634 106.487 195.19 106.487 195.746C106.487 196.524 107.154 197.191 107.932 197.191H117.936C119.27 197.191 120.382 196.302 120.604 194.968L122.16 188.076L115.824 186.52Z" fill="#004CBC"/>
<path d="M119.826 193.634C118.492 193.634 117.381 194.746 117.381 196.079C117.381 196.524 117.492 196.858 117.603 197.191H117.937C119.271 197.191 120.382 196.302 120.604 194.968L120.827 193.856C120.604 193.745 120.271 193.634 119.826 193.634Z" fill="#326FC9"/>
<path d="M98.1505 156.286L94.927 159.176C94.1489 159.843 93.1485 160.287 92.0369 160.176L86.9237 160.065C86.2568 160.065 85.701 160.398 85.3676 161.065C85.0341 161.843 85.4787 162.844 86.368 163.066L95.1493 166.067C96.4832 166.512 98.0394 166.179 98.9286 165.067L103.264 160.287L98.1505 156.286Z" fill="#004CBC"/>
<path d="M98.9289 165.178L99.3735 164.622C98.9289 163.733 98.0396 163.177 97.0392 163.289C95.7053 163.4 94.5938 164.511 94.7049 165.956V166.067L95.1496 166.179C96.4834 166.512 97.9285 166.179 98.9289 165.178Z" fill="#326FC9"/>
<path d="M160.62 147.171H137.055C137.055 147.171 135.054 153.951 132.275 163.066C132.164 163.4 132.053 163.733 131.942 164.178C128.94 173.848 125.272 181.296 122.382 189.077L115.046 187.409C116.602 178.406 117.714 172.959 119.27 163.066C120.048 157.619 121.048 152.062 122.16 146.17C123.271 142.502 124.828 139.723 126.828 137.611C129.052 135.388 131.719 133.943 134.721 133.054C139.278 131.72 144.725 131.387 150.727 131.387H150.838C153.951 131.387 157.174 131.498 160.509 131.498L160.62 147.171Z" fill="#FFB612"/>
<path d="M180.739 131.275C180.183 140.168 173.848 146.948 163.955 146.948H158.619V131.275H180.739Z" fill="#FFB612"/>
<path d="M161.954 145.17L142.836 131.386C142.836 131.386 137.278 135.722 129.719 141.502C129.386 141.724 129.163 141.946 128.83 142.169C120.715 148.393 111.045 156.285 103.264 162.177L97.1504 156.952C104.931 148.838 111.601 141.502 119.048 133.943C122.827 130.053 126.829 126.051 131.275 121.938C134.277 119.604 137.278 118.27 140.057 117.714C143.169 117.159 146.17 117.603 149.171 118.604C153.729 120.16 158.175 123.161 163.066 126.607L163.177 126.718C165.734 128.496 168.29 130.497 171.069 132.387L161.954 145.17Z" fill="#FFB612"/>
<path d="M142.835 131.387L155.284 143.503C157.619 145.726 160.731 147.06 163.955 147.06H150.394L142.835 131.387Z" fill="#FF9C12"/>
<path fill-rule="evenodd" clip-rule="evenodd" d="M170.958 63.9148C170.958 63.9148 186.297 62.9144 184.185 88.5914H158.286C158.175 88.5914 156.841 63.0255 170.958 63.9148Z" fill="black"/>
<path fill-rule="evenodd" clip-rule="evenodd" d="M174.514 90.1475L166.178 90.3699L167.956 79.2542L175.181 77.2534L174.514 90.1475Z" fill="#FF7254"/>
<path d="M167.179 83.7006L166.623 86.9241C166.623 86.9241 171.959 83.7006 172.07 83.7006H167.179Z" fill="#F25A37"/>
<path fill-rule="evenodd" clip-rule="evenodd" d="M160.62 78.8097C160.953 82.0332 162.398 84.2564 166.289 84.701H166.4C166.622 84.701 168.401 84.8121 168.957 84.701C170.957 84.3675 172.958 83.9229 174.626 82.3667C175.07 82.0332 175.404 80.9217 175.848 80.477C175.96 80.3659 176.071 80.1436 176.182 80.0324C176.293 79.8101 176.515 79.5878 176.626 79.3655C176.738 79.2543 176.849 79.032 176.849 78.9208C177.516 77.6981 177.96 76.3643 178.071 75.0304C178.294 72.1403 177.96 69.9172 177.071 68.2499C176.515 67.1383 175.737 66.3602 174.848 65.8044C174.292 65.471 173.736 65.2486 173.069 65.0263C172.736 64.9152 172.514 64.9152 172.18 64.804C171.847 64.804 171.624 64.6929 171.291 64.6929C171.291 64.6929 171.291 64.6929 171.18 64.6929H171.069C170.735 64.6929 170.402 64.6929 170.179 64.6929C169.846 64.6929 169.401 64.6929 169.068 64.6929C168.845 64.6929 168.512 64.6929 168.29 64.804H168.179C168.067 64.804 168.067 64.804 167.956 64.804C167.734 64.9152 167.512 64.9152 167.289 65.0263H167.178C166.956 65.1375 166.734 65.1375 166.511 65.2487C166.4 65.3598 166.178 65.3598 165.955 65.471C165.733 65.5821 165.622 65.6933 165.4 65.8044C165.288 65.9156 165.066 66.0267 164.955 66.1379C164.51 66.4714 164.066 66.8048 163.732 67.2494C163.621 67.3606 163.51 67.4718 163.399 67.5829C163.288 67.6941 163.288 67.6941 163.177 67.8052C161.509 69.9172 160.62 72.9184 160.509 75.9196C160.509 76.0308 160.509 76.142 160.509 76.3643C160.509 77.1424 160.62 78.0316 160.62 78.8097Z" fill="#FF7254"/>
<path fill-rule="evenodd" clip-rule="evenodd" d="M169.846 64.3594C170.179 64.804 170.29 66.8048 170.513 68.9168C170.846 72.1403 175.292 75.9196 174.959 82.1444C176.737 81.0328 178.627 76.4754 178.627 75.2527C178.849 72.3626 178.516 69.806 177.627 68.1387C177.071 67.0271 176.182 66.0267 175.181 65.4709C174.625 65.1375 173.736 64.804 173.069 64.6928C172.736 64.5817 172.18 64.4705 171.847 64.4705C171.624 64.3594 170.179 64.4705 169.846 64.3594Z" fill="black"/>
<path d="M174.403 77.8092C175.508 77.8092 176.404 76.9134 176.404 75.8084C176.404 74.7034 175.508 73.8076 174.403 73.8076C173.298 73.8076 172.402 74.7034 172.402 75.8084C172.402 76.9134 173.298 77.8092 174.403 77.8092Z" fill="#FF7254"/>
<path fill-rule="evenodd" clip-rule="evenodd" d="M169.846 64.5818C169.512 64.5818 169.068 64.5818 168.734 64.5818C168.401 64.5818 168.067 64.693 167.845 64.693C167.734 64.693 167.734 64.693 167.623 64.693C167.4 64.693 167.178 64.8041 166.956 64.9153H166.845C165.288 65.471 164.066 66.3603 162.954 67.6942C164.51 70.1396 174.514 73.0297 174.514 73.1408L174.959 65.8045C173.514 64.8041 171.624 64.6929 170.957 64.5818H170.846C170.513 64.6929 170.179 64.6929 169.846 64.5818Z" fill="black"/>
<path d="M167.289 78.6985L164.177 78.8096" stroke="black" stroke-width="0.5" stroke-miterlimit="10" stroke-linecap="round"/>
<path d="M174.514 117.047L169.512 117.159C167.956 117.159 166.511 118.048 165.733 119.382L165.177 120.493H166.955L167.066 120.382V120.493H167.845H169.623H170.512H172.291H173.069H178.293C177.96 118.493 176.404 116.936 174.514 117.047Z" fill="#FF7254"/>
<path d="M196.19 120.382H166.511C163.51 120.382 160.953 122.828 160.953 125.94V174.182C160.953 177.183 163.399 179.74 166.511 179.74H196.19C199.191 179.74 201.747 177.294 201.747 174.182V125.94C201.747 122.828 199.302 120.382 196.19 120.382Z" fill="#CBF0F3"/>
<path d="M210.751 120.382H181.072C178.071 120.382 175.515 122.828 175.515 125.94V174.182C175.515 177.183 177.96 179.74 181.072 179.74H210.751C213.752 179.74 216.309 177.294 216.309 174.182V125.94C216.309 122.828 213.864 120.382 210.751 120.382Z" fill="#97E0E7"/>
<path d="M183.74 109.155L179.738 104.265L177.293 114.38L182.962 113.935C183.184 112.379 183.518 110.712 183.74 109.155Z" fill="#38BFDB"/>
<path d="M165.289 120.271L164.622 121.605C164.289 122.161 164.622 122.939 165.289 123.161C165.845 123.383 166.401 123.161 166.734 122.605L168.068 120.049L166.067 119.938L165.289 120.271Z" fill="#FF7254"/>
<path d="M167.734 120.271L167.067 121.605C166.734 122.161 167.067 122.939 167.734 123.161C168.29 123.383 168.846 123.161 169.179 122.605L170.513 120.049L168.512 119.938L167.734 120.271Z" fill="#FF7254"/>
<path d="M170.18 120.271L169.513 121.605C169.179 122.161 169.513 122.939 170.18 123.161C170.735 123.383 171.291 123.161 171.625 122.605L172.958 120.049L170.958 119.938L170.18 120.271Z" fill="#FF7254"/>
<path d="M197.19 113.046L182.962 94.1492L178.961 104.376L187.408 113.713L175.181 113.935L173.625 120.382H194.411C197.635 120.382 199.191 115.936 197.19 113.046Z" fill="#79D4E7"/>
</svg>
