<svg width="438" height="398" viewBox="0 0 438 398" fill="none" xmlns="http://www.w3.org/2000/svg">
<style>:root{--hair-color:black;}@media(prefers-color-scheme:dark){:root{--hair-color: #404040;}}</style>
<path d="M119.723 11.1049H4.67578V177.901H119.723V11.1049Z" fill="#E1F6F8"/>
<path d="M52.8705 103.942C54.2031 100.388 54.8694 96.6126 54.8694 92.3927C54.8694 84.6193 52.2042 77.29 47.5402 71.5155C43.7645 66.6293 41.9877 60.1885 43.5424 54.1918C43.9866 52.415 44.2087 50.6383 44.2087 48.6394C44.2087 35.0914 32.4375 24.4307 18.6674 25.9854C13.115 26.6516 8.0067 29.3168 4.45312 33.3146V177.678H63.3091C66.4185 171.904 68.1953 165.463 68.6395 158.578C69.3058 145.252 64.6417 133.037 56.4241 124.153C51.76 118.822 50.2053 110.827 52.8705 103.942Z" fill="#C2EDF1"/>
<path d="M62.1992 0V190.782" stroke="white" stroke-width="1.027" stroke-miterlimit="10"/>
<path d="M0.0117188 66.4077H125.719" stroke="white" stroke-width="1.027" stroke-miterlimit="10"/>
<path d="M0.0117188 122.82H125.719" stroke="white" stroke-width="1.027" stroke-miterlimit="10"/>
<path d="M251.649 398C354.562 398 437.989 396.21 437.989 394.003C437.989 391.795 354.562 390.005 251.649 390.005C148.736 390.005 65.3086 391.795 65.3086 394.003C65.3086 396.21 148.736 398 251.649 398Z" fill="#E1F6F8"/>
<path d="M145.709 240.533H79.7455C73.7489 240.533 68.6406 245.419 68.6406 251.638V348.028C68.6406 354.025 73.5268 359.133 79.7455 359.133H145.487C151.483 359.133 156.591 354.247 156.591 348.028V251.638C156.591 245.419 151.705 240.533 145.709 240.533Z" fill="#CBF0F3"/>
<path d="M171.694 240.533H109.062C103.065 240.533 97.957 245.419 97.957 251.638V348.028C97.957 354.025 102.843 359.133 109.062 359.133H171.694C177.69 359.133 182.799 354.247 182.799 348.028V251.638C182.576 245.419 177.69 240.533 171.694 240.533Z" fill="#97E0E7"/>
<path d="M308.285 357.578L310.506 369.127L314.948 391.559C315.17 393.114 316.503 394.224 318.057 394.224H322.722C324.498 394.224 326.053 392.669 326.053 390.893V357.578H308.285Z" fill="#008FCD"/>
<path d="M326.053 357.578H308.285L310.284 367.35L326.053 367.572V357.578Z" fill="#0069D1"/>
<path d="M387.574 357.578H405.342V390.893C405.342 392.669 403.787 394.224 402.011 394.224H397.347C395.792 394.224 394.459 393.114 394.237 391.559L387.574 357.578Z" fill="#004CBC"/>
<path d="M191.907 357.578H174.139V390.893C174.139 392.669 175.693 394.224 177.47 394.224H182.134C183.689 394.224 185.021 393.114 185.244 391.559L191.907 357.578Z" fill="#004CBC"/>
<path d="M94.8477 357.578V390.893C94.8477 392.669 96.4023 394.224 98.1791 394.224H102.843C104.398 394.224 105.73 393.114 105.953 391.559L110.395 369.127L112.616 357.578H94.8477Z" fill="#008FCD"/>
<path d="M111.283 364.685L112.616 357.578H94.8477V364.463L111.283 364.685Z" fill="#0069D1"/>
<path d="M403.122 301.832L422.888 215.88C425.998 201.221 413.116 185.23 399.568 185.23H221.445C207.897 185.23 194.349 196.113 191.24 209.661L170.141 301.61H403.122V301.832Z" fill="#CBF0F3"/>
<path d="M381.8 185.23H197.902C184.354 185.23 170.806 196.113 167.697 209.661L146.598 301.61H379.579L400.678 209.661C403.787 196.113 395.348 185.23 381.8 185.23Z" fill="#CBF0F3"/>
<path d="M184.576 293.836H135.715C131.939 293.836 128.83 291.171 127.941 287.617L120.612 256.08C119.502 251.193 122.389 247.418 127.275 247.418H172.583C177.469 247.418 182.133 251.193 183.244 256.08L190.351 286.507C191.239 290.283 188.352 293.836 184.576 293.836Z" fill="white"/>
<path d="M341.822 294.058H91.2949V359.133H341.822V294.058Z" fill="#CBF0F3"/>
<path d="M274.304 206.551L320.056 182.12L314.726 211.437C314.726 211.437 279.857 230.538 268.085 228.539C255.648 226.318 248.541 182.343 247.208 171.904C246.986 170.571 247.874 169.461 248.985 169.017L261.644 165.241L274.304 206.551Z" fill="#79D4E7"/>
<path d="M250.317 172.57H249.206C247.429 172.57 246.097 171.238 245.653 169.683L243.432 156.801C242.987 154.58 243.876 152.359 245.653 150.805L249.206 147.695L251.427 152.359L250.317 172.57Z" fill="#FF7254"/>
<path d="M265.42 174.347H252.982C251.205 174.347 249.651 173.015 249.429 171.238L248.984 168.795L244.764 143.698V143.254C244.542 141.477 245.653 140.144 247.43 140.144H259.867C261.644 140.144 263.199 141.477 263.421 143.031V143.698L267.641 168.795L268.085 171.016C268.307 173.015 266.974 174.347 265.42 174.347Z" style="fill:var(--hair-color)"/>
<path d="M266.308 169.461H251.427L247.43 145.474H262.31L266.308 169.461Z" fill="#38BFDB"/>
<path d="M245.875 150.805L247.652 149.472C248.54 148.806 249.873 149.028 250.539 150.138C250.984 151.027 250.761 152.137 250.095 152.804L246.097 155.913L245.209 152.582L245.875 150.805Z" fill="#FF7254"/>
<path d="M246.098 155.469L248.097 153.914C248.986 153.248 250.318 153.47 250.985 154.58C251.429 155.469 251.207 156.579 250.54 157.246L246.543 160.355L245.654 157.024L246.098 155.469Z" fill="#FF7254"/>
<path d="M246.542 159.689L248.541 158.134C249.429 157.468 250.762 157.69 251.428 158.8C251.872 159.689 251.65 160.799 250.984 161.466L246.986 164.575L246.098 161.243L246.542 159.689Z" fill="#FF7254"/>
<path d="M268.529 164.575L267.419 167.907L266.531 163.02L262.533 159.689C261.644 159.023 261.644 157.69 262.089 157.024C262.755 156.135 263.865 156.135 264.754 156.58L266.975 158.356C268.307 159.467 268.752 161.022 268.529 162.576V164.575Z" fill="#FF7254"/>
<path d="M316.726 184.341L290.74 222.986C298.292 219.877 305.621 216.324 310.063 213.88L316.726 184.341Z" fill="#38BFDB"/>
<path d="M350.485 179.455H330.052C319.613 179.455 306.509 189.894 305.843 197.667C305.177 203.664 310.285 209.439 310.285 209.439L288.52 272.07H360.479L362.256 246.085C365.365 233.203 368.031 212.992 369.363 203.22C370.474 194.78 366.698 186.34 359.591 182.12C356.482 180.566 353.372 179.455 350.485 179.455Z" fill="#79D4E7"/>
<path fill-rule="evenodd" clip-rule="evenodd" d="M334.047 191.893C340.044 192.781 348.262 186.784 352.482 183.231C353.592 182.343 353.814 180.788 353.148 179.677C352.26 179.455 351.371 179.455 350.483 179.455H330.05C329.161 179.455 328.495 179.455 327.607 179.677C326.718 180.344 326.274 181.454 326.274 182.343C326.052 184.341 327.607 190.782 334.047 191.893Z" fill="#FF7254"/>
<path d="M231.439 372.681L229.218 379.344C228.33 382.231 225.887 384.452 223 385.562L214.782 388.45C213.672 388.894 212.783 390.004 212.783 391.115C212.783 392.669 214.116 394.002 215.67 394.002H235.659C238.324 394.002 240.545 392.225 240.99 389.56L244.099 375.79L231.439 372.681Z" fill="#004CBC"/>
<path d="M239.435 386.895C236.77 386.895 234.549 389.116 234.549 391.781C234.549 392.669 234.771 393.336 234.993 394.002H235.659C238.324 394.002 240.545 392.225 240.99 389.56L241.434 387.339C240.99 387.117 240.323 386.895 239.435 386.895Z" fill="#326FC9"/>
<path d="M196.126 312.27L189.685 318.045C188.13 319.377 186.131 320.266 183.91 320.044L173.694 319.821C172.361 319.821 171.251 320.488 170.584 321.82C169.918 323.375 170.807 325.374 172.583 325.818L190.129 331.815C192.794 332.703 195.904 332.037 197.68 329.816L206.342 320.266L196.126 312.27Z" fill="#004CBC"/>
<path d="M197.682 330.038L198.57 328.928C197.682 327.151 195.905 326.041 193.906 326.263C191.241 326.485 189.02 328.706 189.242 331.593V331.815L190.13 332.037C192.795 332.703 195.683 332.037 197.682 330.038Z" fill="#326FC9"/>
<path d="M320.945 294.058H273.86C273.86 294.058 269.862 307.606 264.31 325.818C264.088 326.484 263.866 327.151 263.644 328.039C257.647 347.362 250.318 362.242 244.543 377.789L229.885 374.458C232.994 356.468 235.215 345.585 238.324 325.818C239.879 314.935 241.878 303.83 244.099 292.059C246.32 284.73 249.429 279.178 253.427 274.958C257.869 270.516 263.199 267.628 269.196 265.852C278.302 263.186 289.185 262.52 301.178 262.52H301.4C307.619 262.52 314.06 262.742 320.723 262.742L320.945 294.058Z" fill="#FFB612"/>
<path d="M361.143 262.298C360.032 280.066 347.373 293.614 327.606 293.614H316.945V262.298H361.143Z" fill="#FFB612"/>
<path d="M323.61 290.06L285.409 262.52C285.409 262.52 274.304 271.182 259.202 282.731C258.535 283.175 258.091 283.619 257.425 284.063C241.212 296.501 221.889 312.27 206.342 324.041L194.127 313.602C209.674 297.389 223 282.731 237.88 267.628C245.432 259.855 253.427 251.859 262.311 243.641C268.308 238.977 274.304 236.312 279.857 235.202C286.076 234.091 292.072 234.98 298.069 236.978C307.175 240.088 316.059 246.084 325.831 252.97L326.053 253.192C331.161 256.745 336.27 260.743 341.822 264.519L323.61 290.06Z" fill="#FFB612"/>
<path d="M285.408 262.52L310.283 286.729C314.947 291.171 321.166 293.836 327.607 293.836H300.511L285.408 262.52Z" fill="#FF9C12"/>
<path fill-rule="evenodd" clip-rule="evenodd" d="M341.6 127.706C341.6 127.706 372.249 125.708 368.029 177.012H316.28C316.058 177.012 313.393 125.93 341.6 127.706Z" style="fill:var(--hair-color)"/>
<path fill-rule="evenodd" clip-rule="evenodd" d="M348.706 180.121L332.049 180.565L335.602 158.356L350.039 154.358L348.706 180.121Z" fill="#FF7254"/>
<path d="M334.048 167.24L332.938 173.681C332.938 173.681 343.598 167.24 343.82 167.24H334.048Z" fill="#F25A37"/>
<path fill-rule="evenodd" clip-rule="evenodd" d="M320.945 157.468C321.611 163.908 324.498 168.35 332.272 169.239H332.494C332.938 169.239 336.492 169.461 337.602 169.239C341.6 168.573 345.598 167.684 348.929 164.575C349.818 163.908 350.484 161.687 351.372 160.799C351.594 160.577 351.816 160.133 352.039 159.911C352.261 159.466 352.705 159.022 352.927 158.578C353.149 158.356 353.371 157.912 353.371 157.69C354.704 155.247 355.592 152.581 355.814 149.916C356.258 144.142 355.592 139.7 353.815 136.368C352.705 134.147 351.15 132.593 349.373 131.482C348.263 130.816 347.152 130.372 345.82 129.927C345.153 129.705 344.709 129.705 344.043 129.483C343.377 129.483 342.932 129.261 342.266 129.261C342.266 129.261 342.266 129.261 342.044 129.261H341.822C341.156 129.261 340.489 129.261 340.045 129.261C339.379 129.261 338.491 129.261 337.824 129.261C337.38 129.261 336.714 129.261 336.27 129.483H336.047C335.825 129.483 335.825 129.483 335.603 129.483C335.159 129.705 334.715 129.705 334.271 129.927H334.049C333.604 130.15 333.16 130.15 332.716 130.372C332.494 130.594 332.05 130.594 331.605 130.816C331.161 131.038 330.939 131.26 330.495 131.482C330.273 131.704 329.829 131.926 329.607 132.148C328.718 132.815 327.83 133.481 327.163 134.369C326.941 134.591 326.719 134.814 326.497 135.036C326.275 135.258 326.275 135.258 326.053 135.48C322.722 139.7 320.945 145.696 320.723 151.693C320.723 151.915 320.723 152.137 320.723 152.581C320.723 154.136 320.945 155.913 320.945 157.468Z" fill="#FF7254"/>
<path fill-rule="evenodd" clip-rule="evenodd" d="M339.377 128.595C340.043 129.483 340.265 133.481 340.71 137.701C341.376 144.142 350.26 151.693 349.593 164.13C353.147 161.909 356.923 152.803 356.923 150.36C357.367 144.586 356.701 139.477 354.924 136.146C353.813 133.925 352.037 131.926 350.038 130.816C348.927 130.149 347.15 129.483 345.818 129.261C345.152 129.039 344.041 128.817 343.375 128.817C342.931 128.595 340.043 128.817 339.377 128.595Z" style="fill:var(--hair-color)"/>
<path d="M348.484 155.469C350.692 155.469 352.482 153.679 352.482 151.471C352.482 149.263 350.692 147.473 348.484 147.473C346.276 147.473 344.486 149.263 344.486 151.471C344.486 153.679 346.276 155.469 348.484 155.469Z" fill="#FF7254"/>
<path fill-rule="evenodd" clip-rule="evenodd" d="M339.377 129.039C338.711 129.039 337.823 129.039 337.157 129.039C336.49 129.039 335.824 129.261 335.38 129.261C335.158 129.261 335.158 129.261 334.936 129.261C334.491 129.261 334.047 129.483 333.603 129.705H333.381C330.271 130.816 327.828 132.593 325.607 135.258C328.717 140.144 348.706 145.919 348.706 146.141L349.594 131.482C346.707 129.483 342.931 129.261 341.598 129.039H341.376C340.71 129.261 340.044 129.261 339.377 129.039Z" style="fill:var(--hair-color)"/>
<path d="M334.271 157.245L328.053 157.467" stroke="black" stroke-width="0.5" stroke-miterlimit="10" stroke-linecap="round"/>
<path d="M348.707 233.87L338.713 234.092C335.603 234.092 332.716 235.869 331.161 238.534L330.051 240.755H333.604L333.826 240.533V240.755H335.381H338.935H340.712H344.265H345.82H356.258C355.592 236.757 352.483 233.648 348.707 233.87Z" fill="#FF7254"/>
<path d="M392.016 240.533H332.716C326.72 240.533 321.611 245.419 321.611 251.638V348.028C321.611 354.025 326.497 359.133 332.716 359.133H392.016C398.013 359.133 403.121 354.247 403.121 348.028V251.638C403.121 245.419 398.235 240.533 392.016 240.533Z" fill="#CBF0F3"/>
<path d="M421.112 240.533H361.812C355.815 240.533 350.707 245.419 350.707 251.638V348.028C350.707 354.025 355.593 359.133 361.812 359.133H421.112C427.109 359.133 432.217 354.247 432.217 348.028V251.638C432.217 245.419 427.331 240.533 421.112 240.533Z" fill="#97E0E7"/>
<path d="M367.141 218.101L359.146 208.328L354.26 228.539L365.587 227.651C366.031 224.542 366.697 221.21 367.141 218.101Z" fill="#38BFDB"/>
<path d="M330.272 240.31L328.939 242.975C328.273 244.086 328.939 245.641 330.272 246.085C331.382 246.529 332.493 246.085 333.159 244.974L335.824 239.866L331.826 239.644L330.272 240.31Z" fill="#FF7254"/>
<path d="M335.158 240.31L333.826 242.975C333.16 244.086 333.826 245.64 335.158 246.085C336.269 246.529 337.379 246.085 338.046 244.974L340.711 239.866L336.713 239.644L335.158 240.31Z" fill="#FF7254"/>
<path d="M340.043 240.31L338.711 242.975C338.044 244.086 338.711 245.64 340.043 246.085C341.154 246.529 342.264 246.085 342.93 244.974L345.596 239.866L341.598 239.644L340.043 240.31Z" fill="#FF7254"/>
<path d="M394.014 225.874L365.586 188.117L357.59 208.55L374.47 227.206L350.039 227.65L346.93 240.532H388.462C394.903 240.532 398.012 231.648 394.014 225.874Z" fill="#79D4E7"/>
</svg>
